Amiamie-ItalicRound.ufo
<glyph name="exclam" format="2">
	<advance width="252"/>
	<unicode hex="0021"/>
	<note>
		exclam
	</note>
	<outline>
		<contour>
			<point x="158" y="198"/>
			<point x="163" y="218" type="curve" smooth="yes"/>
			<point x="259" y="627" type="line" smooth="yes"/>
			<point x="267" y="660"/>
			<point x="243" y="696"/>
			<point x="205" y="696" type="curve" smooth="yes"/>
			<point x="177" y="696"/>
			<point x="154" y="676"/>
			<point x="149" y="650" type="curve" smooth="yes"/>
			<point x="72" y="237" type="line" smooth="yes"/>
			<point x="67" y="209"/>
			<point x="89" y="183"/>
			<point x="118" y="183" type="curve" smooth="yes"/>
			<point x="140" y="183"/>
		</contour>
		<contour>
			<point x="46" y="10"/>
			<point x="66" y="-3" type="curve" smooth="yes"/>
			<point x="91" y="-18"/>
			<point x="118" y="-10"/>
			<point x="133" y="15" type="curve" smooth="yes"/>
			<point x="141" y="28"/>
			<point x="146" y="43"/>
			<point x="146" y="59" type="curve" smooth="yes"/>
			<point x="146" y="75"/>
			<point x="141" y="91"/>
			<point x="133" y="104" type="curve" smooth="yes"/>
			<point x="118" y="128"/>
			<point x="91" y="136"/>
			<point x="67" y="121" type="curve" smooth="yes"/>
			<point x="46" y="108"/>
			<point x="32" y="85"/>
			<point x="32" y="59" type="curve" smooth="yes"/>
			<point x="32" y="33"/>
		</contour>
	</outline>
</glyph>
<glyph name="numbersign" format="2">
	<advance width="601"/>
	<unicode hex="0023"/>
	<note>
		numbersign
	</note>
	<outline>
		<contour>
			<point x="404" y="281" type="line"/>
			<point x="459" y="410" type="line"/>
			<point x="540" y="410" type="line" smooth="yes"/>
			<point x="558" y="410"/>
			<point x="573" y="425"/>
			<point x="573" y="443" type="curve" smooth="yes"/>
			<point x="573" y="461"/>
			<point x="558" y="476"/>
			<point x="540" y="476" type="curve" smooth="yes"/>
			<point x="487" y="476" type="line"/>
			<point x="562" y="651" type="line" smooth="yes"/>
			<point x="563" y="654"/>
			<point x="564" y="659"/>
			<point x="564" y="664" type="curve" smooth="yes"/>
			<point x="564" y="681"/>
			<point x="550" y="696"/>
			<point x="532" y="696" type="curve" smooth="yes"/>
			<point x="519" y="696"/>
			<point x="508" y="688"/>
			<point x="503" y="676" type="curve" smooth="yes"/>
			<point x="418" y="476" type="line"/>
			<point x="328" y="476" type="line"/>
			<point x="403" y="651" type="line" smooth="yes"/>
			<point x="404" y="654"/>
			<point x="405" y="659"/>
			<point x="405" y="664" type="curve" smooth="yes"/>
			<point x="405" y="681"/>
			<point x="391" y="696"/>
			<point x="373" y="696" type="curve" smooth="yes"/>
			<point x="360" y="696"/>
			<point x="349" y="688"/>
			<point x="344" y="676" type="curve" smooth="yes"/>
			<point x="259" y="476" type="line"/>
			<point x="166" y="476" type="line" smooth="yes"/>
			<point x="148" y="476"/>
			<point x="133" y="461"/>
			<point x="133" y="443" type="curve" smooth="yes"/>
			<point x="133" y="425"/>
			<point x="148" y="410"/>
			<point x="166" y="410" type="curve" smooth="yes"/>
			<point x="231" y="410" type="line"/>
			<point x="176" y="281" type="line"/>
			<point x="94" y="281" type="line" smooth="yes"/>
			<point x="76" y="281"/>
			<point x="61" y="266"/>
			<point x="61" y="248" type="curve" smooth="yes"/>
			<point x="61" y="230"/>
			<point x="76" y="215"/>
			<point x="94" y="215" type="curve" smooth="yes"/>
			<point x="148" y="215" type="line"/>
			<point x="73" y="39" type="line" smooth="yes"/>
			<point x="72" y="36"/>
			<point x="71" y="31"/>
			<point x="71" y="26" type="curve" smooth="yes"/>
			<point x="71" y="9"/>
			<point x="85" y="-5"/>
			<point x="103" y="-5" type="curve" smooth="yes"/>
			<point x="116" y="-5"/>
			<point x="127" y="2"/>
			<point x="132" y="14" type="curve" smooth="yes"/>
			<point x="217" y="215" type="line"/>
			<point x="307" y="215" type="line"/>
			<point x="232" y="39" type="line" smooth="yes"/>
			<point x="231" y="36"/>
			<point x="230" y="31"/>
			<point x="230" y="26" type="curve" smooth="yes"/>
			<point x="230" y="9"/>
			<point x="244" y="-5"/>
			<point x="262" y="-5" type="curve" smooth="yes"/>
			<point x="275" y="-5"/>
			<point x="286" y="2"/>
			<point x="291" y="14" type="curve" smooth="yes"/>
			<point x="376" y="215" type="line"/>
			<point x="468" y="215" type="line" smooth="yes"/>
			<point x="486" y="215"/>
			<point x="501" y="230"/>
			<point x="501" y="248" type="curve" smooth="yes"/>
			<point x="501" y="266"/>
			<point x="486" y="281"/>
			<point x="468" y="281" type="curve" smooth="yes"/>
		</contour>
		<contour>
			<point x="300" y="410" type="line"/>
			<point x="390" y="410" type="line"/>
			<point x="335" y="281" type="line"/>
			<point x="245" y="281" type="line"/>
		</contour>
	</outline>
</glyph>
<glyph name="parenleft" format="2">
	<advance width="337"/>
	<unicode hex="0028"/>
	<note>
		parenleft
	</note>
	<outline>
		<contour>
			<point x="341" y="782"/>
			<point x="336" y="777" type="curve" smooth="yes"/>
			<point x="235" y="661"/>
			<point x="157" y="512"/>
			<point x="123" y="350" type="curve" smooth="yes"/>
			<point x="90" y="194"/>
			<point x="102" y="47"/>
			<point x="153" y="-67" type="curve" smooth="yes"/>
			<point x="158" y="-78"/>
			<point x="169" y="-86"/>
			<point x="182" y="-86" type="curve" smooth="yes"/>
			<point x="203" y="-86"/>
			<point x="218" y="-64"/>
			<point x="212" y="-44" type="curve" smooth="yes"/>
			<point x="173" y="77"/>
			<point x="166" y="211"/>
			<point x="196" y="350" type="curve" smooth="yes"/>
			<point x="226" y="489"/>
			<point x="290" y="623"/>
			<point x="377" y="744" type="curve" smooth="yes"/>
			<point x="380" y="749"/>
			<point x="382" y="753"/>
			<point x="382" y="759" type="curve" smooth="yes"/>
			<point x="382" y="774"/>
			<point x="370" y="786"/>
			<point x="356" y="786" type="curve" smooth="yes"/>
			<point x="348" y="786"/>
		</contour>
	</outline>
</glyph>
<glyph name="asterisk" format="2">
	<advance width="578"/>
	<unicode hex="002A"/>
	<note>
		asterisk
	</note>
	<outline>
		<contour>
			<point x="449" y="351" type="curve" smooth="yes"/>
			<point x="325" y="305" type="line"/>
			<point x="361" y="436" type="line" smooth="yes"/>
			<point x="367" y="459"/>
			<point x="351" y="481"/>
			<point x="327" y="481" type="curve" smooth="yes"/>
			<point x="310" y="481"/>
			<point x="294" y="467"/>
			<point x="292" y="450" type="curve" smooth="yes"/>
			<point x="271" y="305" type="line"/>
			<point x="163" y="352" type="line" smooth="yes"/>
			<point x="159" y="354"/>
			<point x="153" y="355"/>
			<point x="148" y="355" type="curve" smooth="yes"/>
			<point x="127" y="355"/>
			<point x="110" y="339"/>
			<point x="110" y="318" type="curve" smooth="yes"/>
			<point x="110" y="300"/>
			<point x="122" y="285"/>
			<point x="138" y="281" type="curve" smooth="yes"/>
			<point x="243" y="254" type="line"/>
			<point x="127" y="144" type="line" smooth="yes"/>
			<point x="121" y="138"/>
			<point x="117" y="129"/>
			<point x="117" y="120" type="curve" smooth="yes"/>
			<point x="117" y="102"/>
			<point x="131" y="88"/>
			<point x="149" y="88" type="curve" smooth="yes"/>
			<point x="159" y="88"/>
			<point x="168" y="92"/>
			<point x="174" y="99" type="curve" smooth="yes"/>
			<point x="280" y="224" type="line"/>
			<point x="326" y="115" type="line" smooth="yes"/>
			<point x="332" y="101"/>
			<point x="346" y="91"/>
			<point x="362" y="91" type="curve" smooth="yes"/>
			<point x="384" y="91"/>
			<point x="401" y="109"/>
			<point x="401" y="131" type="curve" smooth="yes"/>
			<point x="401" y="138"/>
			<point x="399" y="145"/>
			<point x="395" y="151" type="curve" smooth="yes"/>
			<point x="331" y="254" type="line"/>
			<point x="468" y="286" type="line" smooth="yes"/>
			<point x="483" y="289"/>
			<point x="494" y="303"/>
			<point x="494" y="319" type="curve" smooth="yes"/>
			<point x="494" y="338"/>
			<point x="479" y="353"/>
			<point x="461" y="353" type="curve" smooth="yes"/>
			<point x="456" y="353"/>
			<point x="452" y="352"/>
		</contour>
	</outline>
</glyph>
<glyph name="hyphen" format="2">
	<advance width="284"/>
	<unicode hex="002D"/>
	<note>
		hyphen
	</note>
	<outline>
		<contour>
			<point x="64" y="250" type="curve" smooth="yes"/>
			<point x="228" y="250" type="line" smooth="yes"/>
			<point x="246" y="250"/>
			<point x="261" y="265"/>
			<point x="261" y="283" type="curve" smooth="yes"/>
			<point x="261" y="301"/>
			<point x="246" y="316"/>
			<point x="228" y="316" type="curve" smooth="yes"/>
			<point x="64" y="316" type="line" smooth="yes"/>
			<point x="46" y="316"/>
			<point x="31" y="301"/>
			<point x="31" y="283" type="curve" smooth="yes"/>
			<point x="31" y="265"/>
			<point x="46" y="250"/>
		</contour>
	</outline>
</glyph>
<glyph name="period" format="2">
	<advance width="232"/>
	<unicode hex="002E"/>
	<note>
		period
	</note>
	<outline>
		<contour>
			<point x="24" y="-14"/>
			<point x="64" y="-14" type="curve" smooth="yes"/>
			<point x="72" y="-14" type="line" smooth="yes"/>
			<point x="112" y="-14"/>
			<point x="145" y="19"/>
			<point x="145" y="59" type="curve" smooth="yes"/>
			<point x="145" y="99"/>
			<point x="112" y="132"/>
			<point x="72" y="132" type="curve" smooth="yes"/>
			<point x="64" y="132" type="line" smooth="yes"/>
			<point x="24" y="132"/>
			<point x="-9" y="99"/>
			<point x="-9" y="59" type="curve" smooth="yes"/>
			<point x="-9" y="19"/>
		</contour>
	</outline>
</glyph>
<glyph name="slash" format="2">
	<advance width="314"/>
	<unicode hex="002F"/>
	<note>
		slash
	</note>
	<outline>
		<contour>
			<point x="6" y="-29"/>
			<point x="11" y="-19" type="curve" smooth="yes"/>
			<point x="393" y="678" type="line" smooth="yes"/>
			<point x="395" y="682"/>
			<point x="397" y="688"/>
			<point x="397" y="693" type="curve" smooth="yes"/>
			<point x="397" y="711"/>
			<point x="383" y="726"/>
			<point x="365" y="726" type="curve" smooth="yes"/>
			<point x="353" y="726"/>
			<point x="342" y="719"/>
			<point x="337" y="709" type="curve" smooth="yes"/>
			<point x="-45" y="12" type="line" smooth="yes"/>
			<point x="-47" y="8"/>
			<point x="-49" y="2"/>
			<point x="-49" y="-3" type="curve" smooth="yes"/>
			<point x="-49" y="-21"/>
			<point x="-35" y="-36"/>
			<point x="-17" y="-36" type="curve" smooth="yes"/>
			<point x="-5" y="-36"/>
		</contour>
	</outline>
</glyph>
<glyph name="zero" format="2">
	<advance width="601"/>
	<unicode hex="0030"/>
	<note>
		zero
	</note>
	<outline>
		<contour>
			<point x="393" y="704" type="curve" smooth="yes"/>
			<point x="201" y="704"/>
			<point x="103" y="554"/>
			<point x="59" y="345" type="curve" smooth="yes"/>
			<point x="15" y="138"/>
			<point x="49" y="-14"/>
			<point x="241" y="-14" type="curve" smooth="yes"/>
			<point x="434" y="-14"/>
			<point x="531" y="138"/>
			<point x="575" y="345" type="curve" smooth="yes"/>
			<point x="619" y="554"/>
			<point x="586" y="704"/>
		</contour>
		<contour>
			<point x="259" y="70" type="curve" smooth="yes"/>
			<point x="161" y="70"/>
			<point x="140" y="168"/>
			<point x="178" y="345" type="curve" smooth="yes"/>
			<point x="216" y="524"/>
			<point x="277" y="620"/>
			<point x="375" y="620" type="curve" smooth="yes"/>
			<point x="474" y="620"/>
			<point x="494" y="524"/>
			<point x="456" y="345" type="curve" smooth="yes"/>
			<point x="418" y="168"/>
			<point x="358" y="70"/>
		</contour>
	</outline>
</glyph>
<glyph name="two" format="2">
	<advance width="601"/>
	<unicode hex="0032"/>
	<note>
		two
	</note>
	<outline>
		<contour>
			<point x="455" y="88" type="curve" smooth="yes"/>
			<point x="186" y="88" type="line"/>
			<point x="370" y="238" type="line" smooth="yes"/>
			<point x="516" y="356"/>
			<point x="578" y="420"/>
			<point x="597" y="511" type="curve" smooth="yes"/>
			<point x="620" y="620"/>
			<point x="565" y="705"/>
			<point x="419" y="705" type="curve" smooth="yes"/>
			<point x="287" y="705"/>
			<point x="188" y="641"/>
			<point x="137" y="521" type="curve" smooth="yes"/>
			<point x="125" y="492"/>
			<point x="126" y="465"/>
			<point x="153" y="450" type="curve" smooth="yes"/>
			<point x="163" y="444"/>
			<point x="175" y="441"/>
			<point x="188" y="441" type="curve" smooth="yes"/>
			<point x="200" y="441"/>
			<point x="208" y="447"/>
			<point x="214" y="455" type="curve" smooth="yes"/>
			<point x="228" y="473"/>
			<point x="234" y="489"/>
			<point x="245" y="515" type="curve" smooth="yes"/>
			<point x="274" y="584"/>
			<point x="321" y="621"/>
			<point x="389" y="621" type="curve" smooth="yes"/>
			<point x="464" y="621"/>
			<point x="490" y="568"/>
			<point x="476" y="501" type="curve" smooth="yes"/>
			<point x="462" y="435"/>
			<point x="414" y="385"/>
			<point x="308" y="299" type="curve" smooth="yes"/>
			<point x="18" y="57" type="line" smooth="yes"/>
			<point x="11" y="51"/>
			<point x="6" y="43"/>
			<point x="6" y="33" type="curve" smooth="yes"/>
			<point x="6" y="15"/>
			<point x="21" y="0"/>
			<point x="39" y="0" type="curve" smooth="yes"/>
			<point x="455" y="0" type="line" smooth="yes"/>
			<point x="479" y="0"/>
			<point x="499" y="20"/>
			<point x="499" y="44" type="curve" smooth="yes"/>
			<point x="499" y="68"/>
			<point x="479" y="88"/>
		</contour>
	</outline>
</glyph>
<glyph name="four" format="2">
	<advance width="601"/>
	<unicode hex="0034"/>
	<note>
		four
	</note>
	<outline>
		<contour>
			<point x="461" y="169" type="line"/>
			<point x="518" y="169" type="line" smooth="yes"/>
			<point x="542" y="169"/>
			<point x="562" y="189"/>
			<point x="562" y="213" type="curve" smooth="yes"/>
			<point x="562" y="237"/>
			<point x="542" y="257"/>
			<point x="518" y="257" type="curve" smooth="yes"/>
			<point x="479" y="257" type="line"/>
			<point x="555" y="617" type="line" smooth="yes"/>
			<point x="563" y="656"/>
			<point x="535" y="696"/>
			<point x="492" y="696" type="curve" smooth="yes"/>
			<point x="473" y="696"/>
			<point x="456" y="688"/>
			<point x="444" y="675" type="curve" smooth="yes"/>
			<point x="25" y="225" type="line" smooth="yes"/>
			<point x="20" y="219"/>
			<point x="16" y="211"/>
			<point x="16" y="202" type="curve" smooth="yes"/>
			<point x="16" y="184"/>
			<point x="31" y="169"/>
			<point x="49" y="169" type="curve" smooth="yes"/>
			<point x="352" y="169" type="line"/>
			<point x="329" y="59" type="line" smooth="yes"/>
			<point x="322" y="25"/>
			<point x="347" y="-6"/>
			<point x="381" y="-6" type="curve" smooth="yes"/>
			<point x="406" y="-6"/>
			<point x="428" y="13"/>
			<point x="433" y="37" type="curve" smooth="yes"/>
		</contour>
		<contour>
			<point x="434" y="556" type="curve"/>
			<point x="370" y="257" type="line"/>
			<point x="161" y="257" type="line"/>
			<point x="365" y="475" type="line" smooth="yes"/>
			<point x="392" y="503"/>
			<point x="413" y="530"/>
		</contour>
	</outline>
</glyph>
<glyph name="five" format="2">
	<advance width="601"/>
	<unicode hex="0035"/>
	<note>
		five
	</note>
	<outline>
		<contour>
			<point x="366" y="459" type="curve" smooth="yes"/>
			<point x="337" y="459"/>
			<point x="311" y="455"/>
			<point x="285" y="445" type="curve" smooth="yes"/>
			<point x="260" y="436"/>
			<point x="245" y="425"/>
			<point x="226" y="406" type="curve" smooth="yes"/>
			<point x="203" y="384" type="line"/>
			<point x="278" y="603" type="line"/>
			<point x="568" y="603" type="line" smooth="yes"/>
			<point x="592" y="603"/>
			<point x="612" y="622"/>
			<point x="612" y="647" type="curve" smooth="yes"/>
			<point x="612" y="671"/>
			<point x="592" y="690"/>
			<point x="568" y="690" type="curve" smooth="yes"/>
			<point x="257" y="690" type="line" smooth="yes"/>
			<point x="224" y="690"/>
			<point x="202" y="675"/>
			<point x="191" y="643" type="curve" smooth="yes"/>
			<point x="94" y="353" type="line" smooth="yes"/>
			<point x="92" y="347"/>
			<point x="91" y="341"/>
			<point x="91" y="335" type="curve" smooth="yes"/>
			<point x="91" y="305"/>
			<point x="116" y="280"/>
			<point x="146" y="280" type="curve" smooth="yes"/>
			<point x="164" y="280"/>
			<point x="180" y="288"/>
			<point x="190" y="302" type="curve" smooth="yes"/>
			<point x="230" y="355"/>
			<point x="272" y="375"/>
			<point x="324" y="375" type="curve" smooth="yes"/>
			<point x="409" y="375"/>
			<point x="446" y="314"/>
			<point x="427" y="221" type="curve" smooth="yes"/>
			<point x="407" y="127"/>
			<point x="342" y="70"/>
			<point x="257" y="70" type="curve" smooth="yes"/>
			<point x="195" y="70"/>
			<point x="164" y="99"/>
			<point x="154" y="147" type="curve" smooth="yes"/>
			<point x="149" y="175"/>
			<point x="148" y="199"/>
			<point x="122" y="211" type="curve" smooth="yes"/>
			<point x="113" y="216"/>
			<point x="103" y="218"/>
			<point x="92" y="218" type="curve" smooth="yes"/>
			<point x="80" y="218"/>
			<point x="71" y="214"/>
			<point x="63" y="208" type="curve" smooth="yes"/>
			<point x="44" y="195"/>
			<point x="39" y="175"/>
			<point x="39" y="146" type="curve" smooth="yes"/>
			<point x="42" y="39"/>
			<point x="112" y="-14"/>
			<point x="242" y="-14" type="curve" smooth="yes"/>
			<point x="374" y="-14"/>
			<point x="514" y="72"/>
			<point x="547" y="226" type="curve" smooth="yes"/>
			<point x="576" y="362"/>
			<point x="516" y="459"/>
		</contour>
	</outline>
</glyph>
<glyph name="six" format="2">
	<advance width="601"/>
	<unicode hex="0036"/>
	<note>
		six
	</note>
	<outline>
		<contour>
			<point x="367" y="465" type="curve" smooth="yes"/>
			<point x="329" y="465"/>
			<point x="297" y="459"/>
			<point x="265" y="442" type="curve" smooth="yes"/>
			<point x="240" y="430"/>
			<point x="226" y="415"/>
			<point x="210" y="395" type="curve" smooth="yes"/>
			<point x="182" y="361" type="line"/>
			<point x="229" y="548"/>
			<point x="302" y="620"/>
			<point x="388" y="620" type="curve" smooth="yes"/>
			<point x="438" y="620"/>
			<point x="467" y="598"/>
			<point x="477" y="555" type="curve" smooth="yes"/>
			<point x="484" y="526"/>
			<point x="486" y="502"/>
			<point x="513" y="491" type="curve" smooth="yes"/>
			<point x="522" y="487"/>
			<point x="532" y="485"/>
			<point x="542" y="485" type="curve" smooth="yes"/>
			<point x="553" y="485"/>
			<point x="564" y="488"/>
			<point x="573" y="493" type="curve" smooth="yes"/>
			<point x="593" y="506"/>
			<point x="600" y="526"/>
			<point x="598" y="555" type="curve" smooth="yes"/>
			<point x="592" y="647"/>
			<point x="526" y="704"/>
			<point x="414" y="704" type="curve" smooth="yes"/>
			<point x="262" y="704"/>
			<point x="114" y="585"/>
			<point x="57" y="317" type="curve" smooth="yes"/>
			<point x="8" y="86"/>
			<point x="78" y="-14"/>
			<point x="240" y="-14" type="curve" smooth="yes"/>
			<point x="381" y="-14"/>
			<point x="513" y="82"/>
			<point x="546" y="235" type="curve" smooth="yes"/>
			<point x="574" y="367"/>
			<point x="514" y="465"/>
		</contour>
		<contour>
			<point x="258" y="70" type="curve" smooth="yes"/>
			<point x="178" y="70"/>
			<point x="141" y="136"/>
			<point x="159" y="224" type="curve" smooth="yes"/>
			<point x="181" y="327"/>
			<point x="253" y="381"/>
			<point x="323" y="381" type="curve" smooth="yes"/>
			<point x="417" y="381"/>
			<point x="443" y="311"/>
			<point x="424" y="222" type="curve" smooth="yes"/>
			<point x="405" y="133"/>
			<point x="338" y="70"/>
		</contour>
	</outline>
</glyph>
<glyph name="seven" format="2">
	<advance width="601"/>
	<unicode hex="0037"/>
	<note>
		seven
	</note>
	<outline>
		<contour>
			<point x="632" y="690"/>
			<point x="615" y="690" type="curve" smooth="yes"/>
			<point x="172" y="690" type="line" smooth="yes"/>
			<point x="148" y="690"/>
			<point x="128" y="671"/>
			<point x="128" y="647" type="curve" smooth="yes"/>
			<point x="128" y="622"/>
			<point x="148" y="603"/>
			<point x="172" y="603" type="curve" smooth="yes"/>
			<point x="499" y="603" type="line"/>
			<point x="99" y="70" type="line" smooth="yes"/>
			<point x="93" y="62"/>
			<point x="89" y="52"/>
			<point x="89" y="42" type="curve" smooth="yes"/>
			<point x="89" y="16"/>
			<point x="110" y="-6"/>
			<point x="136" y="-6" type="curve" smooth="yes"/>
			<point x="152" y="-6"/>
			<point x="166" y="3"/>
			<point x="174" y="14" type="curve" smooth="yes"/>
			<point x="640" y="640" type="line" smooth="yes"/>
			<point x="644" y="646"/>
			<point x="647" y="651"/>
			<point x="647" y="658" type="curve" smooth="yes"/>
			<point x="647" y="676"/>
		</contour>
	</outline>
</glyph>
<glyph name="eight" format="2">
	<advance width="601"/>
	<unicode hex="0038"/>
	<note>
		eight
	</note>
	<outline>
		<contour>
			<point x="444" y="365" type="curve"/>
			<point x="512" y="387"/>
			<point x="574" y="438"/>
			<point x="590" y="516" type="curve" smooth="yes"/>
			<point x="615" y="630"/>
			<point x="543" y="704"/>
			<point x="400" y="704" type="curve" smooth="yes"/>
			<point x="258" y="704"/>
			<point x="155" y="630"/>
			<point x="130" y="516" type="curve" smooth="yes"/>
			<point x="114" y="439"/>
			<point x="147" y="388"/>
			<point x="203" y="365" type="curve"/>
			<point x="125" y="342"/>
			<point x="49" y="280"/>
			<point x="31" y="194" type="curve" smooth="yes"/>
			<point x="-1" y="43"/>
			<point x="99" y="-15"/>
			<point x="240" y="-15" type="curve" smooth="yes"/>
			<point x="371" y="-15"/>
			<point x="508" y="43"/>
			<point x="540" y="194" type="curve" smooth="yes"/>
			<point x="558" y="280"/>
			<point x="511" y="342"/>
		</contour>
		<contour>
			<point x="382" y="620" type="curve" smooth="yes"/>
			<point x="458" y="620"/>
			<point x="487" y="573"/>
			<point x="475" y="512" type="curve" smooth="yes"/>
			<point x="461" y="447"/>
			<point x="410" y="401"/>
			<point x="335" y="401" type="curve" smooth="yes"/>
			<point x="260" y="401"/>
			<point x="231" y="447"/>
			<point x="245" y="512" type="curve" smooth="yes"/>
			<point x="257" y="573"/>
			<point x="307" y="620"/>
		</contour>
		<contour>
			<point x="260" y="69" type="curve" smooth="yes"/>
			<point x="169" y="69"/>
			<point x="133" y="120"/>
			<point x="149" y="193" type="curve" smooth="yes"/>
			<point x="163" y="261"/>
			<point x="219" y="317"/>
			<point x="312" y="317" type="curve" smooth="yes"/>
			<point x="407" y="317"/>
			<point x="435" y="260"/>
			<point x="421" y="193" type="curve" smooth="yes"/>
			<point x="405" y="120"/>
			<point x="352" y="69"/>
		</contour>
	</outline>
</glyph>
<glyph name="colon" format="2">
	<advance width="232"/>
	<unicode hex="003A"/>
	<note>
		colon
	</note>
	<outline>
		<contour>
			<point x="111" y="399"/>
			<point x="151" y="399" type="curve" smooth="yes"/>
			<point x="160" y="399" type="line" smooth="yes"/>
			<point x="200" y="399"/>
			<point x="233" y="432"/>
			<point x="233" y="472" type="curve" smooth="yes"/>
			<point x="233" y="512"/>
			<point x="200" y="545"/>
			<point x="160" y="545" type="curve" smooth="yes"/>
			<point x="151" y="545" type="line" smooth="yes"/>
			<point x="111" y="545"/>
			<point x="78" y="512"/>
			<point x="78" y="472" type="curve" smooth="yes"/>
			<point x="78" y="432"/>
		</contour>
		<contour>
			<point x="24" y="-12"/>
			<point x="64" y="-12" type="curve" smooth="yes"/>
			<point x="72" y="-12" type="line" smooth="yes"/>
			<point x="112" y="-12"/>
			<point x="145" y="21"/>
			<point x="145" y="61" type="curve" smooth="yes"/>
			<point x="145" y="101"/>
			<point x="112" y="134"/>
			<point x="72" y="134" type="curve" smooth="yes"/>
			<point x="64" y="134" type="line" smooth="yes"/>
			<point x="24" y="134"/>
			<point x="-9" y="101"/>
			<point x="-9" y="61" type="curve" smooth="yes"/>
			<point x="-9" y="21"/>
		</contour>
	</outline>
</glyph>
<glyph name="less" format="2">
	<advance width="601"/>
	<unicode hex="003C"/>
	<note>
		less
	</note>
	<outline>
		<contour>
			<point x="175" y="266" type="line"/>
			<point x="546" y="418" type="line" smooth="yes"/>
			<point x="558" y="423"/>
			<point x="567" y="435"/>
			<point x="567" y="449" type="curve" smooth="yes"/>
			<point x="567" y="468"/>
			<point x="552" y="483"/>
			<point x="533" y="483" type="curve" smooth="yes"/>
			<point x="528" y="483"/>
			<point x="524" y="482"/>
			<point x="520" y="480" type="curve" smooth="yes"/>
			<point x="137" y="318" type="line" smooth="yes"/>
			<point x="115" y="309"/>
			<point x="99" y="286"/>
			<point x="99" y="260" type="curve" smooth="yes"/>
			<point x="99" y="235"/>
			<point x="113" y="214"/>
			<point x="133" y="203" type="curve" smooth="yes"/>
			<point x="431" y="50" type="line" smooth="yes"/>
			<point x="436" y="47"/>
			<point x="443" y="45"/>
			<point x="450" y="45" type="curve" smooth="yes"/>
			<point x="472" y="45"/>
			<point x="490" y="63"/>
			<point x="490" y="85" type="curve" smooth="yes"/>
			<point x="490" y="101"/>
			<point x="480" y="114"/>
			<point x="467" y="121" type="curve" smooth="yes"/>
		</contour>
	</outline>
</glyph>
<glyph name="greater" format="2">
	<advance width="601"/>
	<unicode hex="003E"/>
	<note>
		greater
	</note>
	<outline>
		<contour>
			<point x="478" y="317"/>
			<point x="458" y="328" type="curve" smooth="yes"/>
			<point x="162" y="481" type="line" smooth="yes"/>
			<point x="157" y="484"/>
			<point x="150" y="486"/>
			<point x="144" y="486" type="curve" smooth="yes"/>
			<point x="121" y="486"/>
			<point x="103" y="467"/>
			<point x="103" y="445" type="curve" smooth="yes"/>
			<point x="103" y="429"/>
			<point x="112" y="415"/>
			<point x="125" y="408" type="curve" smooth="yes"/>
			<point x="416" y="264" type="line"/>
			<point x="46" y="112" type="line" smooth="yes"/>
			<point x="34" y="107"/>
			<point x="25" y="95"/>
			<point x="25" y="81" type="curve" smooth="yes"/>
			<point x="25" y="63"/>
			<point x="40" y="48"/>
			<point x="59" y="48" type="curve" smooth="yes"/>
			<point x="63" y="48"/>
			<point x="68" y="49"/>
			<point x="72" y="51" type="curve" smooth="yes"/>
			<point x="454" y="213" type="line" smooth="yes"/>
			<point x="476" y="223"/>
			<point x="492" y="245"/>
			<point x="492" y="271" type="curve" smooth="yes"/>
			<point x="492" y="296"/>
		</contour>
	</outline>
</glyph>
<glyph name="at" format="2">
	<advance width="872"/>
	<unicode hex="0040"/>
	<note>
		at
	</note>
	<outline>
		<contour>
			<point x="590" y="236" type="curve" smooth="yes"/>
			<point x="668" y="409" type="line" smooth="yes"/>
			<point x="670" y="414"/>
			<point x="672" y="421"/>
			<point x="672" y="427" type="curve" smooth="yes"/>
			<point x="672" y="452"/>
			<point x="651" y="472"/>
			<point x="626" y="472" type="curve" smooth="yes"/>
			<point x="609" y="472"/>
			<point x="593" y="462"/>
			<point x="586" y="448" type="curve" smooth="yes"/>
			<point x="563" y="403" type="line"/>
			<point x="564" y="429" type="line" smooth="yes"/>
			<point x="564" y="448"/>
			<point x="558" y="468"/>
			<point x="530" y="478" type="curve" smooth="yes"/>
			<point x="517" y="483"/>
			<point x="502" y="485"/>
			<point x="486" y="485" type="curve" smooth="yes"/>
			<point x="362" y="485"/>
			<point x="250" y="366"/>
			<point x="222" y="232" type="curve" smooth="yes"/>
			<point x="196" y="108"/>
			<point x="261" y="69"/>
			<point x="327" y="69" type="curve" smooth="yes"/>
			<point x="351" y="69"/>
			<point x="375" y="75"/>
			<point x="400" y="87" type="curve" smooth="yes"/>
			<point x="425" y="99"/>
			<point x="438" y="114"/>
			<point x="453" y="136" type="curve" smooth="yes"/>
			<point x="465" y="153" type="line"/>
			<point x="465" y="97"/>
			<point x="503" y="73"/>
			<point x="561" y="73" type="curve" smooth="yes"/>
			<point x="666" y="73"/>
			<point x="790" y="149"/>
			<point x="830" y="336" type="curve" smooth="yes"/>
			<point x="871" y="530"/>
			<point x="770" y="674"/>
			<point x="565" y="674" type="curve" smooth="yes"/>
			<point x="346" y="674"/>
			<point x="104" y="508"/>
			<point x="48" y="245" type="curve" smooth="yes"/>
			<point x="-5" y="-1"/>
			<point x="149" y="-112"/>
			<point x="327" y="-112" type="curve" smooth="yes"/>
			<point x="404" y="-112"/>
			<point x="503" y="-92"/>
			<point x="607" y="-36" type="curve" smooth="yes"/>
			<point x="616" y="-31"/>
			<point x="623" y="-21"/>
			<point x="623" y="-10" type="curve" smooth="yes"/>
			<point x="623" y="6"/>
			<point x="610" y="19"/>
			<point x="594" y="19" type="curve" smooth="yes"/>
			<point x="589" y="19"/>
			<point x="585" y="17"/>
			<point x="581" y="15" type="curve" smooth="yes"/>
			<point x="503" y="-25"/>
			<point x="419" y="-44"/>
			<point x="347" y="-44" type="curve" smooth="yes"/>
			<point x="181" y="-44"/>
			<point x="81" y="57"/>
			<point x="121" y="248" type="curve" smooth="yes"/>
			<point x="170" y="476"/>
			<point x="377" y="606"/>
			<point x="547" y="606" type="curve" smooth="yes"/>
			<point x="697" y="606"/>
			<point x="795" y="512"/>
			<point x="756" y="332" type="curve" smooth="yes"/>
			<point x="729" y="203"/>
			<point x="658" y="141"/>
			<point x="601" y="141" type="curve" smooth="yes"/>
			<point x="569" y="141"/>
			<point x="566" y="161"/>
			<point x="571" y="184" type="curve" smooth="yes"/>
			<point x="573" y="195"/>
			<point x="577" y="208"/>
		</contour>
		<contour>
			<point x="514" y="297" type="curve" smooth="yes"/>
			<point x="493" y="250" type="line" smooth="yes"/>
			<point x="470" y="198"/>
			<point x="423" y="149"/>
			<point x="375" y="149" type="curve" smooth="yes"/>
			<point x="341" y="149"/>
			<point x="321" y="173"/>
			<point x="335" y="239" type="curve" smooth="yes"/>
			<point x="354" y="325"/>
			<point x="414" y="405"/>
			<point x="484" y="405" type="curve" smooth="yes"/>
			<point x="526" y="405"/>
			<point x="549" y="376"/>
		</contour>
	</outline>
</glyph>
<glyph name="F" format="2">
	<advance width="579"/>
	<unicode hex="0046"/>
	<note>
		F
	</note>
	<outline>
		<contour>
			<point x="231" y="389" type="line"/>
			<point x="277" y="603" type="line"/>
			<point x="604" y="603" type="line" smooth="yes"/>
			<point x="628" y="603"/>
			<point x="648" y="622"/>
			<point x="648" y="647" type="curve" smooth="yes"/>
			<point x="648" y="671"/>
			<point x="628" y="690"/>
			<point x="604" y="690" type="curve" smooth="yes"/>
			<point x="237" y="690" type="line" smooth="yes"/>
			<point x="202" y="690"/>
			<point x="181" y="674"/>
			<point x="174" y="639" type="curve" smooth="yes"/>
			<point x="52" y="59" type="line" smooth="yes"/>
			<point x="45" y="25"/>
			<point x="70" y="-6"/>
			<point x="104" y="-6" type="curve" smooth="yes"/>
			<point x="130" y="-6"/>
			<point x="152" y="12"/>
			<point x="157" y="37" type="curve" smooth="yes"/>
			<point x="213" y="302" type="line"/>
			<point x="502" y="302" type="line" smooth="yes"/>
			<point x="526" y="302"/>
			<point x="546" y="321"/>
			<point x="546" y="345" type="curve" smooth="yes"/>
			<point x="546" y="370"/>
			<point x="526" y="389"/>
			<point x="502" y="389" type="curve" smooth="yes"/>
		</contour>
	</outline>
</glyph>
<glyph name="G" format="2">
	<advance width="722"/>
	<unicode hex="0047"/>
	<note>
		G
	</note>
	<outline>
		<contour>
			<point x="614" y="342" type="curve" smooth="yes"/>
			<point x="448" y="342" type="line" smooth="yes"/>
			<point x="424" y="342"/>
			<point x="404" y="322"/>
			<point x="404" y="298" type="curve" smooth="yes"/>
			<point x="404" y="274"/>
			<point x="424" y="254"/>
			<point x="448" y="254" type="curve" smooth="yes"/>
			<point x="554" y="254" type="line"/>
			<point x="524" y="143"/>
			<point x="435" y="70"/>
			<point x="333" y="70" type="curve" smooth="yes"/>
			<point x="210" y="70"/>
			<point x="149" y="176"/>
			<point x="185" y="347" type="curve" smooth="yes"/>
			<point x="220" y="510"/>
			<point x="326" y="620"/>
			<point x="454" y="620" type="curve" smooth="yes"/>
			<point x="543" y="620"/>
			<point x="589" y="578"/>
			<point x="600" y="509" type="curve" smooth="yes"/>
			<point x="604" y="480"/>
			<point x="607" y="455"/>
			<point x="634" y="444" type="curve" smooth="yes"/>
			<point x="642" y="441"/>
			<point x="650" y="439"/>
			<point x="659" y="439" type="curve" smooth="yes"/>
			<point x="670" y="439"/>
			<point x="680" y="442"/>
			<point x="689" y="447" type="curve" smooth="yes"/>
			<point x="709" y="459"/>
			<point x="716" y="479"/>
			<point x="715" y="508" type="curve" smooth="yes"/>
			<point x="712" y="623"/>
			<point x="637" y="704"/>
			<point x="474" y="704" type="curve" smooth="yes"/>
			<point x="280" y="704"/>
			<point x="111" y="559"/>
			<point x="65" y="342" type="curve" smooth="yes"/>
			<point x="21" y="132"/>
			<point x="106" y="-14"/>
			<point x="303" y="-14" type="curve" smooth="yes"/>
			<point x="366" y="-14"/>
			<point x="418" y="1"/>
			<point x="462" y="29" type="curve" smooth="yes"/>
			<point x="484" y="43"/>
			<point x="495" y="58"/>
			<point x="510" y="79" type="curve" smooth="yes"/>
			<point x="536" y="117" type="line"/>
			<point x="524" y="48" type="line" smooth="yes"/>
			<point x="519" y="21"/>
			<point x="540" y="-6"/>
			<point x="569" y="-6" type="curve" smooth="yes"/>
			<point x="591" y="-6"/>
			<point x="609" y="11"/>
			<point x="613" y="31" type="curve" smooth="yes"/>
			<point x="666" y="279" type="line" smooth="yes"/>
			<point x="674" y="319"/>
			<point x="654" y="342"/>
		</contour>
	</outline>
</glyph>
<glyph name="H" format="2">
	<advance width="740"/>
	<unicode hex="0048"/>
	<note>
		H
	</note>
	<outline>
		<contour>
			<point x="620" y="37" type="curve" smooth="yes"/>
			<point x="746" y="631" type="line" smooth="yes"/>
			<point x="753" y="665"/>
			<point x="727" y="696"/>
			<point x="693" y="696" type="curve" smooth="yes"/>
			<point x="668" y="696"/>
			<point x="646" y="678"/>
			<point x="641" y="653" type="curve" smooth="yes"/>
			<point x="584" y="383" type="line"/>
			<point x="230" y="383" type="line"/>
			<point x="282" y="631" type="line" smooth="yes"/>
			<point x="289" y="665"/>
			<point x="264" y="696"/>
			<point x="230" y="696" type="curve" smooth="yes"/>
			<point x="204" y="696"/>
			<point x="182" y="678"/>
			<point x="177" y="653" type="curve" smooth="yes"/>
			<point x="52" y="59" type="line" smooth="yes"/>
			<point x="45" y="25"/>
			<point x="70" y="-6"/>
			<point x="104" y="-6" type="curve" smooth="yes"/>
			<point x="130" y="-6"/>
			<point x="152" y="12"/>
			<point x="157" y="37" type="curve" smooth="yes"/>
			<point x="211" y="294" type="line"/>
			<point x="565" y="294" type="line"/>
			<point x="515" y="59" type="line" smooth="yes"/>
			<point x="508" y="25"/>
			<point x="534" y="-6"/>
			<point x="568" y="-6" type="curve" smooth="yes"/>
			<point x="593" y="-6"/>
			<point x="615" y="12"/>
		</contour>
	</outline>
</glyph>
<glyph name="J" format="2">
	<advance width="568"/>
	<unicode hex="004A"/>
	<note>
		J
	</note>
	<outline>
		<contour>
			<point x="515" y="273" type="curve" smooth="yes"/>
			<point x="590" y="631" type="line" smooth="yes"/>
			<point x="597" y="665"/>
			<point x="572" y="695"/>
			<point x="538" y="695" type="curve" smooth="yes"/>
			<point x="512" y="695"/>
			<point x="490" y="678"/>
			<point x="485" y="653" type="curve" smooth="yes"/>
			<point x="404" y="268" type="line" smooth="yes"/>
			<point x="397" y="236"/>
			<point x="392" y="212"/>
			<point x="386" y="191" type="curve" smooth="yes"/>
			<point x="364" y="116"/>
			<point x="319" y="70"/>
			<point x="246" y="70" type="curve" smooth="yes"/>
			<point x="183" y="70"/>
			<point x="148" y="99"/>
			<point x="149" y="167" type="curve" smooth="yes"/>
			<point x="149" y="194"/>
			<point x="154" y="216"/>
			<point x="134" y="235" type="curve" smooth="yes"/>
			<point x="124" y="245"/>
			<point x="110" y="251"/>
			<point x="95" y="251" type="curve" smooth="yes"/>
			<point x="67" y="251"/>
			<point x="46" y="230"/>
			<point x="41" y="204" type="curve" smooth="yes"/>
			<point x="17" y="70"/>
			<point x="75" y="-14"/>
			<point x="218" y="-14" type="curve" smooth="yes"/>
			<point x="372" y="-14"/>
			<point x="461" y="67"/>
			<point x="493" y="184" type="curve" smooth="yes"/>
			<point x="504" y="223"/>
			<point x="509" y="245"/>
		</contour>
	</outline>
</glyph>
<glyph name="K" format="2">
	<advance width="643"/>
	<unicode hex="004B"/>
	<note>
		K
	</note>
	<outline>
		<contour>
			<point x="529" y="89" type="curve" smooth="yes"/>
			<point x="365" y="356" type="line"/>
			<point x="665" y="619" type="line" smooth="yes"/>
			<point x="706" y="655"/>
			<point x="701" y="690"/>
			<point x="657" y="690" type="curve" smooth="yes"/>
			<point x="628" y="690"/>
			<point x="607" y="683"/>
			<point x="585" y="663" type="curve" smooth="yes"/>
			<point x="221" y="339" type="line"/>
			<point x="282" y="631" type="line" smooth="yes"/>
			<point x="289" y="665"/>
			<point x="264" y="695"/>
			<point x="230" y="695" type="curve" smooth="yes"/>
			<point x="204" y="695"/>
			<point x="182" y="678"/>
			<point x="177" y="653" type="curve" smooth="yes"/>
			<point x="52" y="59" type="line" smooth="yes"/>
			<point x="45" y="25"/>
			<point x="70" y="-5"/>
			<point x="104" y="-5" type="curve" smooth="yes"/>
			<point x="130" y="-5"/>
			<point x="152" y="12"/>
			<point x="157" y="37" type="curve" smooth="yes"/>
			<point x="196" y="222" type="line"/>
			<point x="271" y="288" type="line"/>
			<point x="422" y="26" type="line" smooth="yes"/>
			<point x="433" y="8"/>
			<point x="453" y="-6"/>
			<point x="476" y="-6" type="curve" smooth="yes"/>
			<point x="510" y="-6"/>
			<point x="538" y="22"/>
			<point x="538" y="57" type="curve" smooth="yes"/>
			<point x="538" y="69"/>
			<point x="535" y="79"/>
		</contour>
	</outline>
</glyph>
<glyph name="M" format="2">
	<advance width="880"/>
	<unicode hex="004D"/>
	<note>
		M
	</note>
	<outline>
		<contour>
			<point x="760" y="37" type="curve" smooth="yes"/>
			<point x="885" y="627" type="line" smooth="yes"/>
			<point x="893" y="666"/>
			<point x="873" y="690"/>
			<point x="833" y="690" type="curve" smooth="yes"/>
			<point x="773" y="690" type="line" smooth="yes"/>
			<point x="741" y="690"/>
			<point x="719" y="676"/>
			<point x="704" y="648" type="curve" smooth="yes"/>
			<point x="419" y="98" type="line"/>
			<point x="367" y="635" type="line" smooth="yes"/>
			<point x="364" y="671"/>
			<point x="343" y="690"/>
			<point x="307" y="690" type="curve" smooth="yes"/>
			<point x="237" y="690" type="line" smooth="yes"/>
			<point x="202" y="690"/>
			<point x="181" y="674"/>
			<point x="174" y="639" type="curve" smooth="yes"/>
			<point x="52" y="59" type="line" smooth="yes"/>
			<point x="45" y="25"/>
			<point x="70" y="-6"/>
			<point x="104" y="-6" type="curve" smooth="yes"/>
			<point x="130" y="-6"/>
			<point x="152" y="12"/>
			<point x="157" y="37" type="curve" smooth="yes"/>
			<point x="221" y="339" type="line" smooth="yes"/>
			<point x="238" y="418"/>
			<point x="257" y="511"/>
			<point x="271" y="585" type="curve"/>
			<point x="275" y="512"/>
			<point x="284" y="418"/>
			<point x="292" y="341" type="curve" smooth="yes"/>
			<point x="326" y="54" type="line" smooth="yes"/>
			<point x="330" y="18"/>
			<point x="351" y="0"/>
			<point x="387" y="0" type="curve" smooth="yes"/>
			<point x="412" y="0" type="line" smooth="yes"/>
			<point x="444" y="0"/>
			<point x="466" y="12"/>
			<point x="481" y="41" type="curve" smooth="yes"/>
			<point x="642" y="340" type="line" smooth="yes"/>
			<point x="685" y="418"/>
			<point x="734" y="513"/>
			<point x="769" y="586" type="curve"/>
			<point x="752" y="513"/>
			<point x="732" y="418"/>
			<point x="715" y="339" type="curve" smooth="yes"/>
			<point x="656" y="59" type="line" smooth="yes"/>
			<point x="649" y="25"/>
			<point x="674" y="-5"/>
			<point x="708" y="-5" type="curve" smooth="yes"/>
			<point x="733" y="-5"/>
			<point x="755" y="12"/>
		</contour>
	</outline>
</glyph>
<glyph name="T" format="2">
	<advance width="617"/>
	<unicode hex="0054"/>
	<note>
		T
	</note>
	<outline>
		<contour>
			<point x="451" y="603" type="line"/>
			<point x="662" y="603" type="line" smooth="yes"/>
			<point x="686" y="603"/>
			<point x="706" y="622"/>
			<point x="706" y="646" type="curve" smooth="yes"/>
			<point x="706" y="671"/>
			<point x="686" y="690"/>
			<point x="662" y="690" type="curve" smooth="yes"/>
			<point x="149" y="690" type="line" smooth="yes"/>
			<point x="125" y="690"/>
			<point x="105" y="671"/>
			<point x="105" y="647" type="curve" smooth="yes"/>
			<point x="105" y="622"/>
			<point x="125" y="603"/>
			<point x="149" y="603" type="curve" smooth="yes"/>
			<point x="342" y="603" type="line"/>
			<point x="226" y="59" type="line" smooth="yes"/>
			<point x="219" y="25"/>
			<point x="245" y="-5"/>
			<point x="279" y="-5" type="curve" smooth="yes"/>
			<point x="304" y="-5"/>
			<point x="326" y="12"/>
			<point x="331" y="37" type="curve" smooth="yes"/>
		</contour>
	</outline>
</glyph>
<glyph name="U" format="2">
	<advance width="691"/>
	<unicode hex="0055"/>
	<note>
		U
	</note>
	<outline>
		<contour>
			<point x="629" y="267" type="curve" smooth="yes"/>
			<point x="706" y="631" type="line" smooth="yes"/>
			<point x="713" y="665"/>
			<point x="688" y="696"/>
			<point x="654" y="696" type="curve" smooth="yes"/>
			<point x="629" y="696"/>
			<point x="607" y="678"/>
			<point x="602" y="653" type="curve" smooth="yes"/>
			<point x="520" y="265" type="line" smooth="yes"/>
			<point x="516" y="244"/>
			<point x="511" y="225"/>
			<point x="506" y="209" type="curve" smooth="yes"/>
			<point x="481" y="126"/>
			<point x="417" y="70"/>
			<point x="317" y="70" type="curve" smooth="yes"/>
			<point x="218" y="70"/>
			<point x="176" y="126"/>
			<point x="187" y="209" type="curve" smooth="yes"/>
			<point x="188" y="225"/>
			<point x="193" y="244"/>
			<point x="197" y="265" type="curve" smooth="yes"/>
			<point x="275" y="631" type="line" smooth="yes"/>
			<point x="282" y="665"/>
			<point x="256" y="695"/>
			<point x="222" y="695" type="curve" smooth="yes"/>
			<point x="197" y="695"/>
			<point x="175" y="678"/>
			<point x="170" y="653" type="curve" smooth="yes"/>
			<point x="88" y="267" type="line" smooth="yes"/>
			<point x="83" y="242"/>
			<point x="79" y="222"/>
			<point x="75" y="196" type="curve" smooth="yes"/>
			<point x="60" y="81"/>
			<point x="119" y="-14"/>
			<point x="299" y="-14" type="curve" smooth="yes"/>
			<point x="479" y="-14"/>
			<point x="578" y="81"/>
			<point x="612" y="196" type="curve" smooth="yes"/>
			<point x="620" y="222"/>
			<point x="624" y="242"/>
		</contour>
	</outline>
</glyph>
<glyph name="V" format="2">
	<advance width="652"/>
	<unicode hex="0056"/>
	<note>
		V
	</note>
	<outline>
		<contour>
			<point x="271" y="0" type="curve" smooth="yes"/>
			<point x="313" y="0" type="line" smooth="yes"/>
			<point x="345" y="0"/>
			<point x="366" y="13"/>
			<point x="382" y="40" type="curve" smooth="yes"/>
			<point x="713" y="620" type="line" smooth="yes"/>
			<point x="717" y="628"/>
			<point x="720" y="636"/>
			<point x="720" y="645" type="curve" smooth="yes"/>
			<point x="720" y="673"/>
			<point x="697" y="695"/>
			<point x="669" y="695" type="curve" smooth="yes"/>
			<point x="650" y="695"/>
			<point x="633" y="684"/>
			<point x="625" y="669" type="curve" smooth="yes"/>
			<point x="308" y="84" type="line"/>
			<point x="246" y="644" type="line" smooth="yes"/>
			<point x="243" y="674"/>
			<point x="218" y="695"/>
			<point x="188" y="695" type="curve" smooth="yes"/>
			<point x="153" y="695"/>
			<point x="125" y="664"/>
			<point x="130" y="629" type="curve" smooth="yes"/>
			<point x="210" y="54" type="line" smooth="yes"/>
			<point x="215" y="19"/>
			<point x="235" y="0"/>
		</contour>
	</outline>
</glyph>
<glyph name="W" format="2">
	<advance width="968"/>
	<unicode hex="0057"/>
	<note>
		W
	</note>
	<outline>
		<contour>
			<point x="743" y="43" type="curve" smooth="yes"/>
			<point x="1023" y="622" type="line" smooth="yes"/>
			<point x="1026" y="628"/>
			<point x="1028" y="637"/>
			<point x="1028" y="645" type="curve" smooth="yes"/>
			<point x="1028" y="673"/>
			<point x="1006" y="695"/>
			<point x="977" y="695" type="curve" smooth="yes"/>
			<point x="957" y="695"/>
			<point x="939" y="682"/>
			<point x="931" y="665" type="curve" smooth="yes"/>
			<point x="674" y="88" type="line"/>
			<point x="662" y="623" type="line" smooth="yes"/>
			<point x="661" y="661"/>
			<point x="641" y="680"/>
			<point x="604" y="680" type="curve" smooth="yes"/>
			<point x="558" y="680" type="line" smooth="yes"/>
			<point x="526" y="680"/>
			<point x="503" y="667"/>
			<point x="490" y="637" type="curve" smooth="yes"/>
			<point x="242" y="91" type="line"/>
			<point x="237" y="637" type="line" smooth="yes"/>
			<point x="237" y="669"/>
			<point x="211" y="696"/>
			<point x="178" y="696" type="curve" smooth="yes"/>
			<point x="143" y="696"/>
			<point x="118" y="666"/>
			<point x="119" y="633" type="curve" smooth="yes"/>
			<point x="145" y="57" type="line" smooth="yes"/>
			<point x="147" y="20"/>
			<point x="168" y="0"/>
			<point x="205" y="0" type="curve" smooth="yes"/>
			<point x="246" y="0" type="line" smooth="yes"/>
			<point x="278" y="0"/>
			<point x="300" y="14"/>
			<point x="314" y="43" type="curve" smooth="yes"/>
			<point x="564" y="588" type="line"/>
			<point x="576" y="57" type="line" smooth="yes"/>
			<point x="577" y="19"/>
			<point x="597" y="0"/>
			<point x="634" y="0" type="curve" smooth="yes"/>
			<point x="675" y="0" type="line" smooth="yes"/>
			<point x="707" y="0"/>
			<point x="729" y="13"/>
		</contour>
	</outline>
</glyph>
<glyph name="Y" format="2">
	<advance width="602"/>
	<unicode hex="0059"/>
	<note>
		Y
	</note>
	<outline>
		<contour>
			<point x="323" y="37" type="curve" smooth="yes"/>
			<point x="372" y="270" type="line"/>
			<point x="648" y="618" type="line" smooth="yes"/>
			<point x="654" y="626"/>
			<point x="659" y="637"/>
			<point x="659" y="648" type="curve" smooth="yes"/>
			<point x="659" y="674"/>
			<point x="637" y="696"/>
			<point x="611" y="696" type="curve" smooth="yes"/>
			<point x="595" y="696"/>
			<point x="581" y="687"/>
			<point x="573" y="676" type="curve" smooth="yes"/>
			<point x="344" y="371" type="line"/>
			<point x="245" y="656" type="line" smooth="yes"/>
			<point x="237" y="678"/>
			<point x="215" y="695"/>
			<point x="190" y="695" type="curve" smooth="yes"/>
			<point x="157" y="695"/>
			<point x="131" y="669"/>
			<point x="131" y="637" type="curve" smooth="yes"/>
			<point x="131" y="630"/>
			<point x="133" y="624"/>
			<point x="135" y="617" type="curve" smooth="yes"/>
			<point x="263" y="270" type="line"/>
			<point x="218" y="59" type="line" smooth="yes"/>
			<point x="211" y="25"/>
			<point x="237" y="-6"/>
			<point x="271" y="-6" type="curve" smooth="yes"/>
			<point x="296" y="-6"/>
			<point x="318" y="12"/>
		</contour>
	</outline>
</glyph>
<glyph name="bracketleft" format="2">
	<advance width="333"/>
	<unicode hex="005B"/>
	<note>
		bracketleft
	</note>
	<outline>
		<contour>
			<point x="383" y="780"/>
			<point x="365" y="780" type="curve" smooth="yes"/>
			<point x="262" y="780" type="line" smooth="yes"/>
			<point x="227" y="780"/>
			<point x="206" y="764"/>
			<point x="199" y="729" type="curve" smooth="yes"/>
			<point x="41" y="-17" type="line" smooth="yes"/>
			<point x="33" y="-56"/>
			<point x="53" y="-80"/>
			<point x="93" y="-80" type="curve" smooth="yes"/>
			<point x="197" y="-80" type="line" smooth="yes"/>
			<point x="215" y="-80"/>
			<point x="230" y="-65"/>
			<point x="230" y="-47" type="curve" smooth="yes"/>
			<point x="230" y="-29"/>
			<point x="215" y="-14"/>
			<point x="197" y="-14" type="curve" smooth="yes"/>
			<point x="110" y="-14" type="line"/>
			<point x="264" y="714" type="line"/>
			<point x="365" y="714" type="line" smooth="yes"/>
			<point x="383" y="714"/>
			<point x="398" y="729"/>
			<point x="398" y="747" type="curve" smooth="yes"/>
			<point x="398" y="765"/>
		</contour>
	</outline>
</glyph>
<glyph name="c" format="2">
	<advance width="544"/>
	<unicode hex="0063"/>
	<note>
		c
	</note>
	<outline>
		<contour>
			<point x="346" y="545" type="curve" smooth="yes"/>
			<point x="207" y="545"/>
			<point x="67" y="444"/>
			<point x="29" y="263" type="curve" smooth="yes"/>
			<point x="-12" y="74"/>
			<point x="75" y="-14"/>
			<point x="214" y="-14" type="curve" smooth="yes"/>
			<point x="312" y="-14"/>
			<point x="397" y="24"/>
			<point x="455" y="105" type="curve" smooth="yes"/>
			<point x="461" y="113"/>
			<point x="464" y="122"/>
			<point x="464" y="133" type="curve" smooth="yes"/>
			<point x="464" y="160"/>
			<point x="442" y="182"/>
			<point x="415" y="182" type="curve" smooth="yes"/>
			<point x="396" y="182"/>
			<point x="380" y="172"/>
			<point x="372" y="156" type="curve" smooth="yes"/>
			<point x="340" y="96"/>
			<point x="293" y="66"/>
			<point x="237" y="66" type="curve" smooth="yes"/>
			<point x="163" y="66"/>
			<point x="116" y="127"/>
			<point x="146" y="271" type="curve" smooth="yes"/>
			<point x="175" y="404"/>
			<point x="249" y="465"/>
			<point x="326" y="465" type="curve" smooth="yes"/>
			<point x="378" y="465"/>
			<point x="411" y="441"/>
			<point x="421" y="388" type="curve" smooth="yes"/>
			<point x="426" y="361"/>
			<point x="449" y="341"/>
			<point x="477" y="341" type="curve" smooth="yes"/>
			<point x="512" y="341"/>
			<point x="539" y="374"/>
			<point x="533" y="408" type="curve" smooth="yes"/>
			<point x="518" y="492"/>
			<point x="454" y="545"/>
		</contour>
	</outline>
</glyph>
<glyph name="k" format="2">
	<advance width="550"/>
	<unicode hex="006B"/>
	<note>
		k
	</note>
	<outline>
		<contour>
			<point x="158" y="166" type="line"/>
			<point x="216" y="218" type="line"/>
			<point x="336" y="23" type="line" smooth="yes"/>
			<point x="346" y="6"/>
			<point x="365" y="-6"/>
			<point x="387" y="-6" type="curve" smooth="yes"/>
			<point x="419" y="-6"/>
			<point x="446" y="21"/>
			<point x="446" y="54" type="curve" smooth="yes"/>
			<point x="446" y="66"/>
			<point x="442" y="76"/>
			<point x="436" y="86" type="curve" smooth="yes"/>
			<point x="308" y="282" type="line"/>
			<point x="519" y="460" type="line" smooth="yes"/>
			<point x="560" y="495"/>
			<point x="555" y="531"/>
			<point x="509" y="531" type="curve" smooth="yes"/>
			<point x="480" y="531"/>
			<point x="459" y="523"/>
			<point x="437" y="504" type="curve" smooth="yes"/>
			<point x="181" y="275" type="line"/>
			<point x="266" y="676" type="line" smooth="yes"/>
			<point x="273" y="710"/>
			<point x="248" y="740"/>
			<point x="214" y="740" type="curve" smooth="yes"/>
			<point x="188" y="740"/>
			<point x="166" y="723"/>
			<point x="161" y="698" type="curve" smooth="yes"/>
			<point x="26" y="59" type="line" smooth="yes"/>
			<point x="19" y="25"/>
			<point x="44" y="-5"/>
			<point x="78" y="-5" type="curve" smooth="yes"/>
			<point x="104" y="-5"/>
			<point x="126" y="12"/>
			<point x="131" y="37" type="curve" smooth="yes"/>
		</contour>
	</outline>
</glyph>
<glyph name="q" format="2">
	<advance width="629"/>
	<unicode hex="0071"/>
	<note>
		q
	</note>
	<outline>
		<contour>
			<point x="467" y="-159" type="curve" smooth="yes"/>
			<point x="601" y="471" type="line" smooth="yes"/>
			<point x="608" y="505"/>
			<point x="583" y="537"/>
			<point x="549" y="537" type="curve" smooth="yes"/>
			<point x="523" y="537"/>
			<point x="501" y="519"/>
			<point x="496" y="494" type="curve" smooth="yes"/>
			<point x="488" y="459" type="line"/>
			<point x="477" y="486" type="line" smooth="yes"/>
			<point x="469" y="506"/>
			<point x="458" y="521"/>
			<point x="432" y="531" type="curve" smooth="yes"/>
			<point x="407" y="540"/>
			<point x="375" y="545"/>
			<point x="346" y="545" type="curve" smooth="yes"/>
			<point x="209" y="545"/>
			<point x="69" y="451"/>
			<point x="27" y="257" type="curve" smooth="yes"/>
			<point x="-6" y="101"/>
			<point x="57" y="-14"/>
			<point x="209" y="-14" type="curve" smooth="yes"/>
			<point x="249" y="-14"/>
			<point x="291" y="-5"/>
			<point x="325" y="9" type="curve" smooth="yes"/>
			<point x="349" y="20"/>
			<point x="363" y="33"/>
			<point x="380" y="52" type="curve" smooth="yes"/>
			<point x="409" y="84" type="line"/>
			<point x="362" y="-136" type="line" smooth="yes"/>
			<point x="355" y="-170"/>
			<point x="380" y="-202"/>
			<point x="414" y="-202" type="curve" smooth="yes"/>
			<point x="440" y="-202"/>
			<point x="462" y="-184"/>
		</contour>
		<contour>
			<point x="251" y="66" type="curve" smooth="yes"/>
			<point x="156" y="66"/>
			<point x="121" y="151"/>
			<point x="145" y="266" type="curve" smooth="yes"/>
			<point x="173" y="398"/>
			<point x="254" y="465"/>
			<point x="341" y="465" type="curve" smooth="yes"/>
			<point x="412" y="465"/>
			<point x="479" y="417"/>
			<point x="452" y="288" type="curve" smooth="yes"/>
			<point x="446" y="260" type="line" smooth="yes"/>
			<point x="416" y="118"/>
			<point x="334" y="66"/>
		</contour>
	</outline>
</glyph>
<glyph name="v" format="2">
	<advance width="538"/>
	<unicode hex="0076"/>
	<note>
		v
	</note>
	<outline>
		<contour>
			<point x="299" y="39" type="curve" smooth="yes"/>
			<point x="550" y="461" type="line" smooth="yes"/>
			<point x="554" y="468"/>
			<point x="557" y="477"/>
			<point x="557" y="487" type="curve" smooth="yes"/>
			<point x="557" y="514"/>
			<point x="535" y="537"/>
			<point x="508" y="537" type="curve" smooth="yes"/>
			<point x="489" y="537"/>
			<point x="472" y="526"/>
			<point x="464" y="510" type="curve" smooth="yes"/>
			<point x="232" y="81" type="line"/>
			<point x="184" y="485" type="line" smooth="yes"/>
			<point x="181" y="514"/>
			<point x="156" y="536"/>
			<point x="126" y="536" type="curve" smooth="yes"/>
			<point x="90" y="536"/>
			<point x="63" y="503"/>
			<point x="69" y="468" type="curve" smooth="yes"/>
			<point x="139" y="53" type="line" smooth="yes"/>
			<point x="145" y="18"/>
			<point x="166" y="0"/>
			<point x="201" y="0" type="curve" smooth="yes"/>
			<point x="230" y="0" type="line" smooth="yes"/>
			<point x="261" y="0"/>
			<point x="283" y="11"/>
		</contour>
	</outline>
</glyph>
<glyph name="x" format="2">
	<advance width="509"/>
	<unicode hex="0078"/>
	<note>
		x
	</note>
	<outline>
		<contour>
			<point x="408" y="75" type="curve" smooth="yes"/>
			<point x="314" y="270" type="line"/>
			<point x="489" y="460" type="line" smooth="yes"/>
			<point x="523" y="497"/>
			<point x="515" y="531"/>
			<point x="472" y="531" type="curve" smooth="yes"/>
			<point x="442" y="531"/>
			<point x="420" y="521"/>
			<point x="401" y="498" type="curve" smooth="yes"/>
			<point x="268" y="339" type="line"/>
			<point x="200" y="501" type="line" smooth="yes"/>
			<point x="192" y="521"/>
			<point x="171" y="536"/>
			<point x="148" y="536" type="curve" smooth="yes"/>
			<point x="116" y="536"/>
			<point x="90" y="511"/>
			<point x="90" y="479" type="curve" smooth="yes"/>
			<point x="90" y="470"/>
			<point x="93" y="461"/>
			<point x="96" y="454" type="curve" smooth="yes"/>
			<point x="185" y="269" type="line"/>
			<point x="4" y="71" type="line" smooth="yes"/>
			<point x="-30" y="33"/>
			<point x="-21" y="0"/>
			<point x="22" y="0" type="curve" smooth="yes"/>
			<point x="52" y="0"/>
			<point x="74" y="10"/>
			<point x="93" y="33" type="curve" smooth="yes"/>
			<point x="233" y="200" type="line"/>
			<point x="305" y="29" type="line" smooth="yes"/>
			<point x="313" y="9"/>
			<point x="333" y="-5"/>
			<point x="357" y="-5" type="curve" smooth="yes"/>
			<point x="388" y="-5"/>
			<point x="413" y="20"/>
			<point x="413" y="51" type="curve" smooth="yes"/>
			<point x="413" y="60"/>
			<point x="411" y="68"/>
		</contour>
	</outline>
</glyph>
<glyph name="y" format="2">
	<advance width="537"/>
	<unicode hex="0079"/>
	<note>
		y
	</note>
	<outline>
		<contour>
			<point x="254" y="-34" type="curve" smooth="yes"/>
			<point x="549" y="460" type="line" smooth="yes"/>
			<point x="553" y="467"/>
			<point x="556" y="476"/>
			<point x="556" y="486" type="curve" smooth="yes"/>
			<point x="556" y="514"/>
			<point x="533" y="537"/>
			<point x="505" y="537" type="curve" smooth="yes"/>
			<point x="486" y="537"/>
			<point x="469" y="526"/>
			<point x="461" y="510" type="curve" smooth="yes"/>
			<point x="231" y="82" type="line"/>
			<point x="186" y="484" type="line" smooth="yes"/>
			<point x="183" y="513"/>
			<point x="158" y="537"/>
			<point x="127" y="537" type="curve" smooth="yes"/>
			<point x="88" y="537"/>
			<point x="63" y="500"/>
			<point x="69" y="467" type="curve" smooth="yes"/>
			<point x="153" y="-25" type="line"/>
			<point x="141" y="-44" type="line" smooth="yes"/>
			<point x="104" y="-106"/>
			<point x="66" y="-127"/>
			<point x="16" y="-127" type="curve" smooth="yes"/>
			<point x="9" y="-127" type="line" smooth="yes"/>
			<point x="-14" y="-127"/>
			<point x="-33" y="-146"/>
			<point x="-33" y="-168" type="curve" smooth="yes"/>
			<point x="-33" y="-191"/>
			<point x="-14" y="-210"/>
			<point x="9" y="-210" type="curve" smooth="yes"/>
			<point x="15" y="-210" type="line" smooth="yes"/>
			<point x="111" y="-210"/>
			<point x="179" y="-160"/>
		</contour>
	</outline>
</glyph>
<glyph name="z" format="2">
	<advance width="478"/>
	<unicode hex="007A"/>
	<note>
		z
	</note>
	<outline>
		<contour>
			<point x="387" y="79"/>
			<point x="366" y="79" type="curve" smooth="yes"/>
			<point x="108" y="79" type="line"/>
			<point x="481" y="445" type="line" smooth="yes"/>
			<point x="490" y="453"/>
			<point x="495" y="466"/>
			<point x="495" y="479" type="curve" smooth="yes"/>
			<point x="495" y="506"/>
			<point x="473" y="527"/>
			<point x="447" y="527" type="curve" smooth="yes"/>
			<point x="126" y="527" type="line" smooth="yes"/>
			<point x="105" y="527"/>
			<point x="87" y="509"/>
			<point x="87" y="488" type="curve" smooth="yes"/>
			<point x="87" y="466"/>
			<point x="105" y="448"/>
			<point x="126" y="448" type="curve" smooth="yes"/>
			<point x="362" y="448" type="line"/>
			<point x="-13" y="79" type="line" smooth="yes"/>
			<point x="-22" y="70"/>
			<point x="-27" y="59"/>
			<point x="-27" y="46" type="curve" smooth="yes"/>
			<point x="-27" y="21"/>
			<point x="-6" y="0"/>
			<point x="19" y="0" type="curve" smooth="yes"/>
			<point x="366" y="0" type="line" smooth="yes"/>
			<point x="387" y="0"/>
			<point x="406" y="18"/>
			<point x="406" y="40" type="curve" smooth="yes"/>
			<point x="406" y="61"/>
		</contour>
	</outline>
</glyph>
<glyph name="braceleft" format="2">
	<advance width="335"/>
	<unicode hex="007B"/>
	<note>
		braceleft
	</note>
	<outline>
		<contour>
			<point x="392" y="726" type="curve" smooth="yes"/>
			<point x="397" y="732"/>
			<point x="400" y="739"/>
			<point x="400" y="747" type="curve" smooth="yes"/>
			<point x="400" y="754"/>
			<point x="398" y="761"/>
			<point x="395" y="766" type="curve" smooth="yes"/>
			<point x="388" y="779"/>
			<point x="370" y="781"/>
			<point x="341" y="778" type="curve" smooth="yes"/>
			<point x="276" y="770"/>
			<point x="237" y="740"/>
			<point x="223" y="672" type="curve" smooth="yes"/>
			<point x="217" y="647"/>
			<point x="215" y="626"/>
			<point x="211" y="560" type="curve" smooth="yes"/>
			<point x="207" y="509"/>
			<point x="204" y="482"/>
			<point x="198" y="455" type="curve" smooth="yes"/>
			<point x="191" y="421"/>
			<point x="171" y="396"/>
			<point x="121" y="387" type="curve" smooth="yes"/>
			<point x="103" y="384"/>
			<point x="89" y="368"/>
			<point x="89" y="349" type="curve" smooth="yes"/>
			<point x="89" y="332"/>
			<point x="101" y="317"/>
			<point x="116" y="312" type="curve" smooth="yes"/>
			<point x="153" y="300"/>
			<point x="160" y="277"/>
			<point x="154" y="245" type="curve" smooth="yes"/>
			<point x="148" y="218"/>
			<point x="139" y="191"/>
			<point x="121" y="140" type="curve" smooth="yes"/>
			<point x="97" y="74"/>
			<point x="91" y="53"/>
			<point x="86" y="29" type="curve" smooth="yes"/>
			<point x="68" y="-53"/>
			<point x="109" y="-80"/>
			<point x="199" y="-80" type="curve" smooth="yes"/>
			<point x="217" y="-80"/>
			<point x="232" y="-65"/>
			<point x="232" y="-47" type="curve" smooth="yes"/>
			<point x="232" y="-41"/>
			<point x="231" y="-35"/>
			<point x="229" y="-29" type="curve" smooth="yes"/>
			<point x="225" y="-17"/>
			<point x="204" y="-20"/>
			<point x="173" y="-8" type="curve" smooth="yes"/>
			<point x="155" y="-1"/>
			<point x="151" y="13"/>
			<point x="155" y="33" type="curve" smooth="yes"/>
			<point x="159" y="54"/>
			<point x="164" y="69"/>
			<point x="186" y="130" type="curve" smooth="yes"/>
			<point x="209" y="194"/>
			<point x="219" y="221"/>
			<point x="224" y="248" type="curve" smooth="yes"/>
			<point x="237" y="305"/>
			<point x="213" y="342"/>
			<point x="161" y="351" type="curve"/>
			<point x="218" y="361"/>
			<point x="256" y="396"/>
			<point x="268" y="452" type="curve" smooth="yes"/>
			<point x="273" y="479"/>
			<point x="275" y="506"/>
			<point x="280" y="570" type="curve" smooth="yes"/>
			<point x="284" y="632"/>
			<point x="285" y="647"/>
			<point x="289" y="667" type="curve" smooth="yes"/>
			<point x="294" y="691"/>
			<point x="307" y="705"/>
			<point x="337" y="711" type="curve" smooth="yes"/>
			<point x="363" y="716"/>
			<point x="381" y="713"/>
		</contour>
	</outline>
</glyph>
<glyph name="bar" format="2">
	<advance width="266"/>
	<unicode hex="007C"/>
	<note>
		bar
	</note>
	<outline>
		<contour>
			<point x="72" y="-194"/>
			<point x="75" y="-178" type="curve" smooth="yes"/>
			<point x="275" y="763" type="line" smooth="yes"/>
			<point x="280" y="784"/>
			<point x="263" y="805"/>
			<point x="241" y="805" type="curve" smooth="yes"/>
			<point x="224" y="805"/>
			<point x="209" y="794"/>
			<point x="206" y="778" type="curve" smooth="yes"/>
			<point x="6" y="-163" type="line" smooth="yes"/>
			<point x="1" y="-184"/>
			<point x="18" y="-206"/>
			<point x="40" y="-206" type="curve" smooth="yes"/>
			<point x="57" y="-206"/>
		</contour>
	</outline>
</glyph>
<glyph name="exclamdown" format="2">
	<advance width="252"/>
	<unicode hex="00A1"/>
	<note>
		exclamdown
	</note>
	<outline>
		<contour>
			<point x="94" y="334"/>
			<point x="89" y="313" type="curve" smooth="yes"/>
			<point x="-8" y="-97" type="line" smooth="yes"/>
			<point x="-16" y="-129"/>
			<point x="8" y="-166"/>
			<point x="47" y="-166" type="curve" smooth="yes"/>
			<point x="74" y="-166"/>
			<point x="97" y="-146"/>
			<point x="102" y="-120" type="curve" smooth="yes"/>
			<point x="180" y="293" type="line" smooth="yes"/>
			<point x="185" y="321"/>
			<point x="163" y="349"/>
			<point x="134" y="349" type="curve" smooth="yes"/>
			<point x="112" y="349"/>
		</contour>
		<contour>
			<point x="133" y="423"/>
			<point x="153" y="410" type="curve" smooth="yes"/>
			<point x="178" y="395"/>
			<point x="205" y="403"/>
			<point x="220" y="428" type="curve" smooth="yes"/>
			<point x="228" y="441"/>
			<point x="233" y="456"/>
			<point x="233" y="472" type="curve" smooth="yes"/>
			<point x="233" y="488"/>
			<point x="228" y="504"/>
			<point x="220" y="517" type="curve" smooth="yes"/>
			<point x="205" y="541"/>
			<point x="178" y="549"/>
			<point x="154" y="534" type="curve" smooth="yes"/>
			<point x="133" y="521"/>
			<point x="119" y="498"/>
			<point x="119" y="472" type="curve" smooth="yes"/>
			<point x="119" y="446"/>
		</contour>
	</outline>
</glyph>
<glyph name="currency" format="2">
	<advance width="601"/>
	<unicode hex="00A4"/>
	<note>
		currency
	</note>
	<outline>
		<contour>
			<point x="488" y="301" type="curve" smooth="yes"/>
			<point x="496" y="339"/>
			<point x="491" y="375"/>
			<point x="478" y="404" type="curve"/>
			<point x="531" y="447" type="line" smooth="yes"/>
			<point x="538" y="453"/>
			<point x="542" y="461"/>
			<point x="542" y="470" type="curve" smooth="yes"/>
			<point x="542" y="486"/>
			<point x="529" y="499"/>
			<point x="513" y="499" type="curve" smooth="yes"/>
			<point x="506" y="499"/>
			<point x="500" y="496"/>
			<point x="495" y="492" type="curve" smooth="yes"/>
			<point x="442" y="449" type="line"/>
			<point x="417" y="469"/>
			<point x="384" y="481"/>
			<point x="346" y="481" type="curve" smooth="yes"/>
			<point x="308" y="481"/>
			<point x="270" y="469"/>
			<point x="237" y="449" type="curve"/>
			<point x="210" y="483" type="line" smooth="yes"/>
			<point x="204" y="491"/>
			<point x="194" y="496"/>
			<point x="182" y="496" type="curve" smooth="yes"/>
			<point x="163" y="496"/>
			<point x="147" y="481"/>
			<point x="147" y="461" type="curve" smooth="yes"/>
			<point x="147" y="453"/>
			<point x="151" y="445"/>
			<point x="155" y="439" type="curve" smooth="yes"/>
			<point x="182" y="405" type="line"/>
			<point x="155" y="375"/>
			<point x="136" y="340"/>
			<point x="128" y="301" type="curve" smooth="yes"/>
			<point x="120" y="263"/>
			<point x="124" y="227"/>
			<point x="138" y="198" type="curve"/>
			<point x="86" y="155" type="line" smooth="yes"/>
			<point x="80" y="150"/>
			<point x="76" y="142"/>
			<point x="76" y="133" type="curve" smooth="yes"/>
			<point x="76" y="117"/>
			<point x="88" y="105"/>
			<point x="104" y="105" type="curve" smooth="yes"/>
			<point x="111" y="105"/>
			<point x="117" y="107"/>
			<point x="122" y="111" type="curve" smooth="yes"/>
			<point x="173" y="153" type="line"/>
			<point x="198" y="133"/>
			<point x="231" y="121"/>
			<point x="269" y="121" type="curve" smooth="yes"/>
			<point x="308" y="121"/>
			<point x="346" y="133"/>
			<point x="380" y="154" type="curve"/>
			<point x="407" y="120" type="line" smooth="yes"/>
			<point x="413" y="112"/>
			<point x="424" y="106"/>
			<point x="435" y="106" type="curve" smooth="yes"/>
			<point x="454" y="106"/>
			<point x="470" y="122"/>
			<point x="470" y="142" type="curve" smooth="yes"/>
			<point x="470" y="150"/>
			<point x="467" y="158"/>
			<point x="462" y="164" type="curve" smooth="yes"/>
			<point x="434" y="199" type="line"/>
			<point x="460" y="228"/>
			<point x="480" y="263"/>
		</contour>
		<contour>
			<point x="284" y="188" type="curve" smooth="yes"/>
			<point x="223" y="188"/>
			<point x="187" y="235"/>
			<point x="201" y="301" type="curve" smooth="yes"/>
			<point x="215" y="367"/>
			<point x="271" y="414"/>
			<point x="332" y="414" type="curve" smooth="yes"/>
			<point x="394" y="414"/>
			<point x="430" y="367"/>
			<point x="416" y="301" type="curve" smooth="yes"/>
			<point x="402" y="235"/>
			<point x="346" y="188"/>
		</contour>
	</outline>
</glyph>
<glyph name="yen" format="2">
	<advance width="601"/>
	<unicode hex="00A5"/>
	<note>
		yen
	</note>
	<outline>
		<contour>
			<point x="500" y="363" type="curve" smooth="yes"/>
			<point x="417" y="363" type="line"/>
			<point x="613" y="619" type="line" smooth="yes"/>
			<point x="619" y="627"/>
			<point x="623" y="637"/>
			<point x="623" y="648" type="curve" smooth="yes"/>
			<point x="623" y="674"/>
			<point x="601" y="696"/>
			<point x="575" y="696" type="curve" smooth="yes"/>
			<point x="559" y="696"/>
			<point x="544" y="687"/>
			<point x="536" y="675" type="curve" smooth="yes"/>
			<point x="326" y="367" type="line"/>
			<point x="249" y="652" type="line" smooth="yes"/>
			<point x="242" y="676"/>
			<point x="220" y="696"/>
			<point x="193" y="696" type="curve" smooth="yes"/>
			<point x="161" y="696"/>
			<point x="134" y="669"/>
			<point x="134" y="637" type="curve" smooth="yes"/>
			<point x="134" y="631"/>
			<point x="136" y="624"/>
			<point x="138" y="618" type="curve" smooth="yes"/>
			<point x="225" y="363" type="line"/>
			<point x="129" y="363" type="line" smooth="yes"/>
			<point x="111" y="363"/>
			<point x="96" y="348"/>
			<point x="96" y="330" type="curve" smooth="yes"/>
			<point x="96" y="312"/>
			<point x="111" y="297"/>
			<point x="129" y="297" type="curve" smooth="yes"/>
			<point x="248" y="297" type="line"/>
			<point x="251" y="287" type="line"/>
			<point x="240" y="235" type="line"/>
			<point x="102" y="235" type="line" smooth="yes"/>
			<point x="84" y="235"/>
			<point x="69" y="220"/>
			<point x="69" y="202" type="curve" smooth="yes"/>
			<point x="69" y="184"/>
			<point x="84" y="169"/>
			<point x="102" y="169" type="curve" smooth="yes"/>
			<point x="226" y="169" type="line"/>
			<point x="203" y="59" type="line" smooth="yes"/>
			<point x="196" y="25"/>
			<point x="221" y="-6"/>
			<point x="255" y="-6" type="curve" smooth="yes"/>
			<point x="280" y="-6"/>
			<point x="302" y="13"/>
			<point x="307" y="37" type="curve" smooth="yes"/>
			<point x="335" y="169" type="line"/>
			<point x="473" y="169" type="line" smooth="yes"/>
			<point x="491" y="169"/>
			<point x="506" y="184"/>
			<point x="506" y="202" type="curve" smooth="yes"/>
			<point x="506" y="220"/>
			<point x="491" y="235"/>
			<point x="473" y="235" type="curve" smooth="yes"/>
			<point x="349" y="235" type="line"/>
			<point x="360" y="289" type="line"/>
			<point x="366" y="297" type="line"/>
			<point x="500" y="297" type="line" smooth="yes"/>
			<point x="518" y="297"/>
			<point x="533" y="312"/>
			<point x="533" y="330" type="curve" smooth="yes"/>
			<point x="533" y="348"/>
			<point x="518" y="363"/>
		</contour>
	</outline>
</glyph>
<glyph name="brokenbar" format="2">
	<advance width="262"/>
	<unicode hex="00A6"/>
	<note>
		brokenbar
	</note>
	<outline>
		<contour>
			<point x="184" y="356"/>
			<point x="187" y="371" type="curve" smooth="yes"/>
			<point x="248" y="655" type="line" smooth="yes"/>
			<point x="252" y="675"/>
			<point x="236" y="696"/>
			<point x="215" y="696" type="curve" smooth="yes"/>
			<point x="199" y="696"/>
			<point x="186" y="684"/>
			<point x="183" y="669" type="curve" smooth="yes"/>
			<point x="122" y="385" type="line" smooth="yes"/>
			<point x="118" y="365"/>
			<point x="134" y="344"/>
			<point x="155" y="344" type="curve" smooth="yes"/>
			<point x="171" y="344"/>
		</contour>
		<contour>
			<point x="76" y="-154"/>
			<point x="79" y="-139" type="curve" smooth="yes"/>
			<point x="140" y="145" type="line" smooth="yes"/>
			<point x="144" y="165"/>
			<point x="128" y="186"/>
			<point x="107" y="186" type="curve" smooth="yes"/>
			<point x="91" y="186"/>
			<point x="78" y="174"/>
			<point x="75" y="159" type="curve" smooth="yes"/>
			<point x="14" y="-125" type="line" smooth="yes"/>
			<point x="10" y="-145"/>
			<point x="26" y="-166"/>
			<point x="47" y="-166" type="curve" smooth="yes"/>
			<point x="63" y="-166"/>
		</contour>
	</outline>
</glyph>
<glyph name="dieresis" format="2">
	<advance width="300"/>
	<unicode hex="00A8"/>
	<note>
		dieresis
	</note>
	<outline>
		<contour>
			<point x="117" y="582"/>
			<point x="146" y="582" type="curve" smooth="yes"/>
			<point x="159" y="582" type="line" smooth="yes"/>
			<point x="189" y="582"/>
			<point x="213" y="609"/>
			<point x="209" y="640" type="curve" smooth="yes"/>
			<point x="205" y="669"/>
			<point x="182" y="693"/>
			<point x="152" y="693" type="curve" smooth="yes"/>
			<point x="143" y="693"/>
			<point x="135" y="691"/>
			<point x="128" y="687" type="curve" smooth="yes"/>
			<point x="108" y="677"/>
			<point x="93" y="658"/>
			<point x="93" y="635" type="curve" smooth="yes"/>
			<point x="93" y="606"/>
		</contour>
		<contour>
			<point x="272" y="582"/>
			<point x="301" y="582" type="curve" smooth="yes"/>
			<point x="314" y="582" type="line" smooth="yes"/>
			<point x="344" y="582"/>
			<point x="368" y="609"/>
			<point x="364" y="640" type="curve" smooth="yes"/>
			<point x="360" y="669"/>
			<point x="337" y="693"/>
			<point x="307" y="693" type="curve" smooth="yes"/>
			<point x="298" y="693"/>
			<point x="290" y="691"/>
			<point x="283" y="687" type="curve" smooth="yes"/>
			<point x="263" y="677"/>
			<point x="248" y="658"/>
			<point x="248" y="635" type="curve" smooth="yes"/>
			<point x="248" y="606"/>
		</contour>
	</outline>
</glyph>
<glyph name="copyright" format="2">
	<advance width="844"/>
	<unicode hex="00A9"/>
	<note>
		copyright
	</note>
	<outline>
		<contour>
			<point x="525" y="748" type="curve" smooth="yes"/>
			<point x="303" y="748"/>
			<point x="98" y="579"/>
			<point x="50" y="355" type="curve" smooth="yes"/>
			<point x="3" y="131"/>
			<point x="136" y="-38"/>
			<point x="358" y="-38" type="curve" smooth="yes"/>
			<point x="580" y="-38"/>
			<point x="785" y="131"/>
			<point x="832" y="355" type="curve" smooth="yes"/>
			<point x="880" y="579"/>
			<point x="747" y="748"/>
		</contour>
		<contour>
			<point x="510" y="680" type="curve" smooth="yes"/>
			<point x="690" y="680"/>
			<point x="797" y="540"/>
			<point x="758" y="355" type="curve" smooth="yes"/>
			<point x="719" y="169"/>
			<point x="552" y="30"/>
			<point x="372" y="30" type="curve" smooth="yes"/>
			<point x="191" y="30"/>
			<point x="85" y="169"/>
			<point x="124" y="355" type="curve" smooth="yes"/>
			<point x="163" y="540"/>
			<point x="329" y="680"/>
		</contour>
		<contour>
			<point x="497" y="585" type="curve" smooth="yes"/>
			<point x="365" y="585"/>
			<point x="258" y="496"/>
			<point x="228" y="354" type="curve" smooth="yes"/>
			<point x="198" y="214"/>
			<point x="266" y="125"/>
			<point x="390" y="125" type="curve" smooth="yes"/>
			<point x="482" y="125"/>
			<point x="550" y="163"/>
			<point x="596" y="226" type="curve" smooth="yes"/>
			<point x="601" y="233"/>
			<point x="605" y="243"/>
			<point x="605" y="253" type="curve" smooth="yes"/>
			<point x="605" y="278"/>
			<point x="584" y="298"/>
			<point x="559" y="298" type="curve" smooth="yes"/>
			<point x="542" y="298"/>
			<point x="526" y="288"/>
			<point x="519" y="273" type="curve" smooth="yes"/>
			<point x="497" y="228"/>
			<point x="458" y="201"/>
			<point x="414" y="201" type="curve" smooth="yes"/>
			<point x="348" y="201"/>
			<point x="319" y="259"/>
			<point x="339" y="356" type="curve" smooth="yes"/>
			<point x="359" y="449"/>
			<point x="408" y="509"/>
			<point x="479" y="509" type="curve" smooth="yes"/>
			<point x="524" y="509"/>
			<point x="547" y="488"/>
			<point x="554" y="453" type="curve" smooth="yes"/>
			<point x="559" y="429"/>
			<point x="580" y="411"/>
			<point x="605" y="411" type="curve" smooth="yes"/>
			<point x="639" y="411"/>
			<point x="664" y="443"/>
			<point x="656" y="476" type="curve" smooth="yes"/>
			<point x="639" y="544"/>
			<point x="586" y="585"/>
		</contour>
	</outline>
</glyph>
<glyph name="Acircumflex" format="2">
	<advance width="656"/>
	<unicode hex="00C2"/>
	<note>
		Acircumflex
	</note>
	<outline>
		<contour>
			<point x="410" y="735"/>
			<point x="415" y="742" type="curve" smooth="yes"/>
			<point x="455" y="796" type="line"/>
			<point x="464" y="766" type="line" smooth="yes"/>
			<point x="470" y="745"/>
			<point x="475" y="736"/>
			<point x="477" y="736" type="curve" smooth="yes"/>
			<point x="505" y="736"/>
			<point x="528" y="759"/>
			<point x="528" y="787" type="curve" smooth="yes"/>
			<point x="528" y="815"/>
			<point x="505" y="838"/>
			<point x="477" y="838" type="curve" smooth="yes"/>
			<point x="461" y="838" type="line" smooth="yes"/>
			<point x="426" y="838"/>
			<point x="395" y="819"/>
			<point x="378" y="792" type="curve" smooth="yes"/>
			<point x="364" y="769"/>
			<point x="359" y="741"/>
			<point x="384" y="732" type="curve" smooth="yes"/>
			<point x="387" y="731"/>
			<point x="390" y="731"/>
			<point x="393" y="731" type="curve" smooth="yes"/>
			<point x="402" y="731"/>
		</contour>
		<contour>
			<point x="207" y="228" type="line"/>
			<point x="452" y="228" type="line"/>
			<point x="474" y="46" type="line" smooth="yes"/>
			<point x="477" y="17"/>
			<point x="502" y="-5"/>
			<point x="532" y="-5" type="curve" smooth="yes"/>
			<point x="567" y="-5"/>
			<point x="595" y="26"/>
			<point x="590" y="61" type="curve" smooth="yes"/>
			<point x="510" y="636" type="line" smooth="yes"/>
			<point x="505" y="671"/>
			<point x="485" y="690"/>
			<point x="449" y="690" type="curve" smooth="yes"/>
			<point x="407" y="690" type="line" smooth="yes"/>
			<point x="375" y="690"/>
			<point x="354" y="677"/>
			<point x="338" y="650" type="curve" smooth="yes"/>
			<point x="7" y="70" type="line" smooth="yes"/>
			<point x="3" y="62"/>
			<point x="0" y="54"/>
			<point x="0" y="45" type="curve" smooth="yes"/>
			<point x="0" y="17"/>
			<point x="23" y="-5"/>
			<point x="51" y="-5" type="curve" smooth="yes"/>
			<point x="70" y="-5"/>
			<point x="87" y="6"/>
			<point x="95" y="21" type="curve" smooth="yes"/>
		</contour>
		<contour>
			<point x="442" y="315" type="line"/>
			<point x="255" y="315" type="line"/>
			<point x="411" y="599" type="line"/>
		</contour>
	</outline>
</glyph>
<glyph name="Atilde" format="2">
	<advance width="656"/>
	<unicode hex="00C3"/>
	<note>
		Atilde
	</note>
	<outline>
		<contour>
			<point x="398" y="771" type="curve" smooth="yes"/>
			<point x="407" y="771"/>
			<point x="417" y="767"/>
			<point x="439" y="759" type="curve" smooth="yes"/>
			<point x="467" y="748"/>
			<point x="482" y="744"/>
			<point x="503" y="744" type="curve" smooth="yes"/>
			<point x="536" y="744"/>
			<point x="559" y="759"/>
			<point x="574" y="803" type="curve" smooth="yes"/>
			<point x="579" y="817"/>
			<point x="569" y="837"/>
			<point x="550" y="837" type="curve" smooth="yes"/>
			<point x="539" y="837"/>
			<point x="530" y="831"/>
			<point x="526" y="821" type="curve" smooth="yes"/>
			<point x="522" y="811"/>
			<point x="517" y="808"/>
			<point x="509" y="808" type="curve" smooth="yes"/>
			<point x="501" y="808"/>
			<point x="490" y="812"/>
			<point x="468" y="820" type="curve" smooth="yes"/>
			<point x="441" y="831"/>
			<point x="426" y="835"/>
			<point x="404" y="835" type="curve" smooth="yes"/>
			<point x="372" y="835"/>
			<point x="348" y="820"/>
			<point x="333" y="776" type="curve" smooth="yes"/>
			<point x="328" y="762"/>
			<point x="338" y="742"/>
			<point x="357" y="742" type="curve" smooth="yes"/>
			<point x="368" y="742"/>
			<point x="377" y="748"/>
			<point x="381" y="758" type="curve" smooth="yes"/>
			<point x="385" y="768"/>
			<point x="391" y="771"/>
		</contour>
		<contour>
			<point x="207" y="228" type="line"/>
			<point x="452" y="228" type="line"/>
			<point x="474" y="46" type="line" smooth="yes"/>
			<point x="477" y="17"/>
			<point x="502" y="-5"/>
			<point x="532" y="-5" type="curve" smooth="yes"/>
			<point x="567" y="-5"/>
			<point x="595" y="26"/>
			<point x="590" y="61" type="curve" smooth="yes"/>
			<point x="510" y="636" type="line" smooth="yes"/>
			<point x="505" y="671"/>
			<point x="485" y="690"/>
			<point x="449" y="690" type="curve" smooth="yes"/>
			<point x="407" y="690" type="line" smooth="yes"/>
			<point x="375" y="690"/>
			<point x="354" y="677"/>
			<point x="338" y="650" type="curve" smooth="yes"/>
			<point x="7" y="70" type="line" smooth="yes"/>
			<point x="3" y="62"/>
			<point x="0" y="54"/>
			<point x="0" y="45" type="curve" smooth="yes"/>
			<point x="0" y="17"/>
			<point x="23" y="-5"/>
			<point x="51" y="-5" type="curve" smooth="yes"/>
			<point x="70" y="-5"/>
			<point x="87" y="6"/>
			<point x="95" y="21" type="curve" smooth="yes"/>
		</contour>
		<contour>
			<point x="442" y="315" type="line"/>
			<point x="255" y="315" type="line"/>
			<point x="411" y="599" type="line"/>
		</contour>
	</outline>
</glyph>
<glyph name="Adieresis" format="2">
	<advance width="656"/>
	<unicode hex="00C4"/>
	<note>
		Adieresis
	</note>
	<outline>
		<contour>
			<point x="207" y="228" type="line"/>
			<point x="452" y="228" type="line"/>
			<point x="474" y="46" type="line" smooth="yes"/>
			<point x="477" y="17"/>
			<point x="502" y="-5"/>
			<point x="532" y="-5" type="curve" smooth="yes"/>
			<point x="567" y="-5"/>
			<point x="595" y="26"/>
			<point x="590" y="61" type="curve" smooth="yes"/>
			<point x="510" y="636" type="line" smooth="yes"/>
			<point x="505" y="671"/>
			<point x="485" y="690"/>
			<point x="449" y="690" type="curve" smooth="yes"/>
			<point x="407" y="690" type="line" smooth="yes"/>
			<point x="375" y="690"/>
			<point x="354" y="677"/>
			<point x="338" y="650" type="curve" smooth="yes"/>
			<point x="7" y="70" type="line" smooth="yes"/>
			<point x="3" y="62"/>
			<point x="0" y="54"/>
			<point x="0" y="45" type="curve" smooth="yes"/>
			<point x="0" y="17"/>
			<point x="23" y="-5"/>
			<point x="51" y="-5" type="curve" smooth="yes"/>
			<point x="70" y="-5"/>
			<point x="87" y="6"/>
			<point x="95" y="21" type="curve" smooth="yes"/>
		</contour>
		<contour>
			<point x="442" y="315" type="line"/>
			<point x="255" y="315" type="line"/>
			<point x="411" y="599" type="line"/>
		</contour>
		<contour>
			<point x="341" y="733"/>
			<point x="370" y="733" type="curve" smooth="yes"/>
			<point x="383" y="733" type="line" smooth="yes"/>
			<point x="413" y="733"/>
			<point x="437" y="760"/>
			<point x="433" y="791" type="curve" smooth="yes"/>
			<point x="429" y="820"/>
			<point x="406" y="844"/>
			<point x="376" y="844" type="curve" smooth="yes"/>
			<point x="367" y="844"/>
			<point x="359" y="842"/>
			<point x="352" y="838" type="curve" smooth="yes"/>
			<point x="332" y="828"/>
			<point x="317" y="809"/>
			<point x="317" y="786" type="curve" smooth="yes"/>
			<point x="317" y="757"/>
		</contour>
		<contour>
			<point x="496" y="733"/>
			<point x="525" y="733" type="curve" smooth="yes"/>
			<point x="538" y="733" type="line" smooth="yes"/>
			<point x="568" y="733"/>
			<point x="592" y="760"/>
			<point x="588" y="791" type="curve" smooth="yes"/>
			<point x="584" y="820"/>
			<point x="561" y="844"/>
			<point x="531" y="844" type="curve" smooth="yes"/>
			<point x="522" y="844"/>
			<point x="514" y="842"/>
			<point x="507" y="838" type="curve" smooth="yes"/>
			<point x="487" y="828"/>
			<point x="472" y="809"/>
			<point x="472" y="786" type="curve" smooth="yes"/>
			<point x="472" y="757"/>
		</contour>
	</outline>
</glyph>
<glyph name="Aring" format="2">
	<advance width="656"/>
	<unicode hex="00C5"/>
	<note>
		Aring
	</note>
	<outline>
		<contour>
			<point x="438" y="718" type="curve" smooth="yes"/>
			<point x="495" y="718"/>
			<point x="544" y="753"/>
			<point x="554" y="803" type="curve" smooth="yes"/>
			<point x="565" y="853"/>
			<point x="532" y="889"/>
			<point x="475" y="889" type="curve" smooth="yes"/>
			<point x="418" y="889"/>
			<point x="369" y="853"/>
			<point x="358" y="803" type="curve" smooth="yes"/>
			<point x="348" y="753"/>
			<point x="381" y="718"/>
		</contour>
		<contour>
			<point x="465" y="845" type="curve" smooth="yes"/>
			<point x="488" y="845"/>
			<point x="502" y="828"/>
			<point x="496" y="803" type="curve" smooth="yes"/>
			<point x="491" y="779"/>
			<point x="470" y="761"/>
			<point x="447" y="761" type="curve" smooth="yes"/>
			<point x="424" y="761"/>
			<point x="411" y="779"/>
			<point x="416" y="803" type="curve" smooth="yes"/>
			<point x="422" y="828"/>
			<point x="442" y="845"/>
		</contour>
		<contour>
			<point x="207" y="228" type="line"/>
			<point x="452" y="228" type="line"/>
			<point x="474" y="46" type="line" smooth="yes"/>
			<point x="477" y="17"/>
			<point x="502" y="-5"/>
			<point x="532" y="-5" type="curve" smooth="yes"/>
			<point x="567" y="-5"/>
			<point x="595" y="26"/>
			<point x="590" y="61" type="curve" smooth="yes"/>
			<point x="510" y="636" type="line" smooth="yes"/>
			<point x="505" y="671"/>
			<point x="485" y="690"/>
			<point x="449" y="690" type="curve" smooth="yes"/>
			<point x="407" y="690" type="line" smooth="yes"/>
			<point x="375" y="690"/>
			<point x="354" y="677"/>
			<point x="338" y="650" type="curve" smooth="yes"/>
			<point x="7" y="70" type="line" smooth="yes"/>
			<point x="3" y="62"/>
			<point x="0" y="54"/>
			<point x="0" y="45" type="curve" smooth="yes"/>
			<point x="0" y="17"/>
			<point x="23" y="-5"/>
			<point x="51" y="-5" type="curve" smooth="yes"/>
			<point x="70" y="-5"/>
			<point x="87" y="6"/>
			<point x="95" y="21" type="curve" smooth="yes"/>
		</contour>
		<contour>
			<point x="442" y="315" type="line"/>
			<point x="255" y="315" type="line"/>
			<point x="411" y="599" type="line"/>
		</contour>
	</outline>
</glyph>
<glyph name="AE" format="2">
	<advance width="930"/>
	<unicode hex="00C6"/>
	<note>
		AE
	</note>
	<outline>
		<contour>
			<point x="840" y="88"/>
			<point x="816" y="88" type="curve" smooth="yes"/>
			<point x="517" y="88" type="line"/>
			<point x="547" y="302" type="line"/>
			<point x="842" y="302" type="line" smooth="yes"/>
			<point x="866" y="302"/>
			<point x="886" y="321"/>
			<point x="886" y="346" type="curve" smooth="yes"/>
			<point x="886" y="370"/>
			<point x="866" y="389"/>
			<point x="842" y="389" type="curve" smooth="yes"/>
			<point x="559" y="389" type="line"/>
			<point x="589" y="603" type="line"/>
			<point x="934" y="603" type="line" smooth="yes"/>
			<point x="958" y="603"/>
			<point x="978" y="622"/>
			<point x="978" y="647" type="curve" smooth="yes"/>
			<point x="978" y="671"/>
			<point x="958" y="690"/>
			<point x="934" y="690" type="curve" smooth="yes"/>
			<point x="486" y="690" type="line" smooth="yes"/>
			<point x="456" y="690"/>
			<point x="434" y="680"/>
			<point x="415" y="655" type="curve" smooth="yes"/>
			<point x="-39" y="70" type="line" smooth="yes"/>
			<point x="-45" y="62"/>
			<point x="-49" y="52"/>
			<point x="-49" y="41" type="curve" smooth="yes"/>
			<point x="-49" y="15"/>
			<point x="-28" y="-5"/>
			<point x="-2" y="-5" type="curve" smooth="yes"/>
			<point x="13" y="-5"/>
			<point x="27" y="2"/>
			<point x="35" y="13" type="curve" smooth="yes"/>
			<point x="202" y="235" type="line"/>
			<point x="428" y="235" type="line"/>
			<point x="404" y="62" type="line" smooth="yes"/>
			<point x="399" y="23"/>
			<point x="418" y="0"/>
			<point x="457" y="0" type="curve" smooth="yes"/>
			<point x="816" y="0" type="line" smooth="yes"/>
			<point x="840" y="0"/>
			<point x="860" y="20"/>
			<point x="860" y="44" type="curve" smooth="yes"/>
			<point x="860" y="68"/>
		</contour>
		<contour>
			<point x="479" y="602" type="line"/>
			<point x="440" y="323" type="line"/>
			<point x="268" y="323" type="line"/>
		</contour>
	</outline>
</glyph>
<glyph name="Egrave" format="2">
	<advance width="600"/>
	<unicode hex="00C8"/>
	<note>
		Egrave
	</note>
	<outline>
		<contour>
			<point x="384" y="759"/>
			<point x="394" y="750" type="curve" smooth="yes"/>
			<point x="414" y="731"/>
			<point x="444" y="737"/>
			<point x="456" y="762" type="curve" smooth="yes"/>
			<point x="460" y="770"/>
			<point x="462" y="778"/>
			<point x="462" y="787" type="curve" smooth="yes"/>
			<point x="462" y="798"/>
			<point x="459" y="809"/>
			<point x="453" y="817" type="curve" smooth="yes"/>
			<point x="440" y="837"/>
			<point x="414" y="843"/>
			<point x="394" y="824" type="curve" smooth="yes"/>
			<point x="384" y="815"/>
			<point x="378" y="801"/>
			<point x="378" y="787" type="curve" smooth="yes"/>
			<point x="378" y="773"/>
		</contour>
		<contour>
			<point x="510" y="88"/>
			<point x="486" y="88" type="curve" smooth="yes"/>
			<point x="167" y="88" type="line"/>
			<point x="213" y="302" type="line"/>
			<point x="512" y="302" type="line" smooth="yes"/>
			<point x="536" y="302"/>
			<point x="556" y="321"/>
			<point x="556" y="346" type="curve" smooth="yes"/>
			<point x="556" y="370"/>
			<point x="536" y="389"/>
			<point x="512" y="389" type="curve" smooth="yes"/>
			<point x="231" y="389" type="line"/>
			<point x="277" y="603" type="line"/>
			<point x="604" y="603" type="line" smooth="yes"/>
			<point x="628" y="603"/>
			<point x="648" y="622"/>
			<point x="648" y="647" type="curve" smooth="yes"/>
			<point x="648" y="671"/>
			<point x="628" y="690"/>
			<point x="604" y="690" type="curve" smooth="yes"/>
			<point x="237" y="690" type="line" smooth="yes"/>
			<point x="202" y="690"/>
			<point x="181" y="674"/>
			<point x="174" y="639" type="curve" smooth="yes"/>
			<point x="52" y="63" type="line" smooth="yes"/>
			<point x="44" y="24"/>
			<point x="64" y="0"/>
			<point x="104" y="0" type="curve" smooth="yes"/>
			<point x="486" y="0" type="line" smooth="yes"/>
			<point x="510" y="0"/>
			<point x="530" y="20"/>
			<point x="530" y="44" type="curve" smooth="yes"/>
			<point x="530" y="68"/>
		</contour>
	</outline>
</glyph>
<glyph name="Eacute" format="2">
	<advance width="600"/>
	<unicode hex="00C9"/>
	<note>
		Eacute
	</note>
	<outline>
		<contour>
			<point x="462" y="733"/>
			<point x="466" y="737" type="curve" smooth="yes"/>
			<point x="524" y="787" type="line" smooth="yes"/>
			<point x="531" y="793"/>
			<point x="536" y="802"/>
			<point x="536" y="811" type="curve" smooth="yes"/>
			<point x="536" y="829"/>
			<point x="521" y="844"/>
			<point x="504" y="844" type="curve" smooth="yes"/>
			<point x="494" y="844"/>
			<point x="485" y="839"/>
			<point x="479" y="832" type="curve" smooth="yes"/>
			<point x="429" y="773" type="line" smooth="yes"/>
			<point x="426" y="769"/>
			<point x="423" y="762"/>
			<point x="423" y="756" type="curve" smooth="yes"/>
			<point x="423" y="742"/>
			<point x="435" y="731"/>
			<point x="449" y="731" type="curve" smooth="yes"/>
			<point x="455" y="731"/>
		</contour>
		<contour>
			<point x="510" y="88"/>
			<point x="486" y="88" type="curve" smooth="yes"/>
			<point x="167" y="88" type="line"/>
			<point x="213" y="302" type="line"/>
			<point x="512" y="302" type="line" smooth="yes"/>
			<point x="536" y="302"/>
			<point x="556" y="321"/>
			<point x="556" y="346" type="curve" smooth="yes"/>
			<point x="556" y="370"/>
			<point x="536" y="389"/>
			<point x="512" y="389" type="curve" smooth="yes"/>
			<point x="231" y="389" type="line"/>
			<point x="277" y="603" type="line"/>
			<point x="604" y="603" type="line" smooth="yes"/>
			<point x="628" y="603"/>
			<point x="648" y="622"/>
			<point x="648" y="647" type="curve" smooth="yes"/>
			<point x="648" y="671"/>
			<point x="628" y="690"/>
			<point x="604" y="690" type="curve" smooth="yes"/>
			<point x="237" y="690" type="line" smooth="yes"/>
			<point x="202" y="690"/>
			<point x="181" y="674"/>
			<point x="174" y="639" type="curve" smooth="yes"/>
			<point x="52" y="63" type="line" smooth="yes"/>
			<point x="44" y="24"/>
			<point x="64" y="0"/>
			<point x="104" y="0" type="curve" smooth="yes"/>
			<point x="486" y="0" type="line" smooth="yes"/>
			<point x="510" y="0"/>
			<point x="530" y="20"/>
			<point x="530" y="44" type="curve" smooth="yes"/>
			<point x="530" y="68"/>
		</contour>
	</outline>
</glyph>
<glyph name="Ecircumflex" format="2">
	<advance width="600"/>
	<unicode hex="00CA"/>
	<note>
		Ecircumflex
	</note>
	<outline>
		<contour>
			<point x="405" y="735"/>
			<point x="410" y="742" type="curve" smooth="yes"/>
			<point x="450" y="796" type="line"/>
			<point x="459" y="766" type="line" smooth="yes"/>
			<point x="465" y="745"/>
			<point x="470" y="736"/>
			<point x="472" y="736" type="curve" smooth="yes"/>
			<point x="500" y="736"/>
			<point x="523" y="759"/>
			<point x="523" y="787" type="curve" smooth="yes"/>
			<point x="523" y="815"/>
			<point x="500" y="838"/>
			<point x="472" y="838" type="curve" smooth="yes"/>
			<point x="456" y="838" type="line" smooth="yes"/>
			<point x="421" y="838"/>
			<point x="390" y="819"/>
			<point x="373" y="792" type="curve" smooth="yes"/>
			<point x="359" y="769"/>
			<point x="354" y="741"/>
			<point x="379" y="732" type="curve" smooth="yes"/>
			<point x="382" y="731"/>
			<point x="385" y="731"/>
			<point x="388" y="731" type="curve" smooth="yes"/>
			<point x="397" y="731"/>
		</contour>
		<contour>
			<point x="510" y="88"/>
			<point x="486" y="88" type="curve" smooth="yes"/>
			<point x="167" y="88" type="line"/>
			<point x="213" y="302" type="line"/>
			<point x="512" y="302" type="line" smooth="yes"/>
			<point x="536" y="302"/>
			<point x="556" y="321"/>
			<point x="556" y="346" type="curve" smooth="yes"/>
			<point x="556" y="370"/>
			<point x="536" y="389"/>
			<point x="512" y="389" type="curve" smooth="yes"/>
			<point x="231" y="389" type="line"/>
			<point x="277" y="603" type="line"/>
			<point x="604" y="603" type="line" smooth="yes"/>
			<point x="628" y="603"/>
			<point x="648" y="622"/>
			<point x="648" y="647" type="curve" smooth="yes"/>
			<point x="648" y="671"/>
			<point x="628" y="690"/>
			<point x="604" y="690" type="curve" smooth="yes"/>
			<point x="237" y="690" type="line" smooth="yes"/>
			<point x="202" y="690"/>
			<point x="181" y="674"/>
			<point x="174" y="639" type="curve" smooth="yes"/>
			<point x="52" y="63" type="line" smooth="yes"/>
			<point x="44" y="24"/>
			<point x="64" y="0"/>
			<point x="104" y="0" type="curve" smooth="yes"/>
			<point x="486" y="0" type="line" smooth="yes"/>
			<point x="510" y="0"/>
			<point x="530" y="20"/>
			<point x="530" y="44" type="curve" smooth="yes"/>
			<point x="530" y="68"/>
		</contour>
	</outline>
</glyph>
<glyph name="Edieresis" format="2">
	<advance width="600"/>
	<unicode hex="00CB"/>
	<note>
		Edieresis
	</note>
	<outline>
		<contour>
			<point x="510" y="88"/>
			<point x="486" y="88" type="curve" smooth="yes"/>
			<point x="167" y="88" type="line"/>
			<point x="213" y="302" type="line"/>
			<point x="512" y="302" type="line" smooth="yes"/>
			<point x="536" y="302"/>
			<point x="556" y="321"/>
			<point x="556" y="346" type="curve" smooth="yes"/>
			<point x="556" y="370"/>
			<point x="536" y="389"/>
			<point x="512" y="389" type="curve" smooth="yes"/>
			<point x="231" y="389" type="line"/>
			<point x="277" y="603" type="line"/>
			<point x="604" y="603" type="line" smooth="yes"/>
			<point x="628" y="603"/>
			<point x="648" y="622"/>
			<point x="648" y="647" type="curve" smooth="yes"/>
			<point x="648" y="671"/>
			<point x="628" y="690"/>
			<point x="604" y="690" type="curve" smooth="yes"/>
			<point x="237" y="690" type="line" smooth="yes"/>
			<point x="202" y="690"/>
			<point x="181" y="674"/>
			<point x="174" y="639" type="curve" smooth="yes"/>
			<point x="52" y="63" type="line" smooth="yes"/>
			<point x="44" y="24"/>
			<point x="64" y="0"/>
			<point x="104" y="0" type="curve" smooth="yes"/>
			<point x="486" y="0" type="line" smooth="yes"/>
			<point x="510" y="0"/>
			<point x="530" y="20"/>
			<point x="530" y="44" type="curve" smooth="yes"/>
			<point x="530" y="68"/>
		</contour>
		<contour>
			<point x="327" y="738"/>
			<point x="349" y="729" type="curve" smooth="yes"/>
			<point x="355" y="727"/>
			<point x="362" y="725"/>
			<point x="369" y="725" type="curve" smooth="yes"/>
			<point x="393" y="725"/>
			<point x="413" y="742"/>
			<point x="418" y="765" type="curve" smooth="yes"/>
			<point x="421" y="777" type="line" smooth="yes"/>
			<point x="428" y="810"/>
			<point x="402" y="841"/>
			<point x="369" y="841" type="curve" smooth="yes"/>
			<point x="360" y="841"/>
			<point x="352" y="840"/>
			<point x="345" y="836" type="curve" smooth="yes"/>
			<point x="325" y="826"/>
			<point x="310" y="806"/>
			<point x="310" y="783" type="curve" smooth="yes"/>
			<point x="310" y="759"/>
		</contour>
		<contour>
			<point x="482" y="738"/>
			<point x="504" y="729" type="curve" smooth="yes"/>
			<point x="510" y="727"/>
			<point x="517" y="725"/>
			<point x="524" y="725" type="curve" smooth="yes"/>
			<point x="548" y="725"/>
			<point x="568" y="742"/>
			<point x="573" y="765" type="curve" smooth="yes"/>
			<point x="576" y="777" type="line" smooth="yes"/>
			<point x="583" y="810"/>
			<point x="557" y="842"/>
			<point x="524" y="842" type="curve" smooth="yes"/>
			<point x="515" y="842"/>
			<point x="507" y="840"/>
			<point x="500" y="836" type="curve" smooth="yes"/>
			<point x="480" y="826"/>
			<point x="465" y="806"/>
			<point x="465" y="783" type="curve" smooth="yes"/>
			<point x="465" y="759"/>
		</contour>
	</outline>
</glyph>
<glyph name="Iacute" format="2">
	<advance width="277"/>
	<unicode hex="00CD"/>
	<note>
		Iacute
	</note>
	<outline>
		<contour>
			<point x="275" y="733"/>
			<point x="279" y="737" type="curve" smooth="yes"/>
			<point x="337" y="787" type="line" smooth="yes"/>
			<point x="344" y="793"/>
			<point x="349" y="802"/>
			<point x="349" y="811" type="curve" smooth="yes"/>
			<point x="349" y="829"/>
			<point x="334" y="844"/>
			<point x="317" y="844" type="curve" smooth="yes"/>
			<point x="307" y="844"/>
			<point x="298" y="839"/>
			<point x="292" y="832" type="curve" smooth="yes"/>
			<point x="242" y="773" type="line" smooth="yes"/>
			<point x="239" y="769"/>
			<point x="236" y="762"/>
			<point x="236" y="756" type="curve" smooth="yes"/>
			<point x="236" y="742"/>
			<point x="248" y="731"/>
			<point x="262" y="731" type="curve" smooth="yes"/>
			<point x="268" y="731"/>
		</contour>
		<contour>
			<point x="152" y="12"/>
			<point x="157" y="37" type="curve" smooth="yes"/>
			<point x="282" y="631" type="line" smooth="yes"/>
			<point x="289" y="665"/>
			<point x="264" y="695"/>
			<point x="230" y="695" type="curve" smooth="yes"/>
			<point x="204" y="695"/>
			<point x="182" y="678"/>
			<point x="177" y="653" type="curve" smooth="yes"/>
			<point x="52" y="59" type="line" smooth="yes"/>
			<point x="45" y="25"/>
			<point x="70" y="-5"/>
			<point x="104" y="-5" type="curve" smooth="yes"/>
			<point x="130" y="-5"/>
		</contour>
	</outline>
</glyph>
<glyph name="Icircumflex" format="2">
	<advance width="277"/>
	<unicode hex="00CE"/>
	<note>
		Icircumflex
	</note>
	<outline>
		<contour>
			<point x="218" y="735"/>
			<point x="223" y="742" type="curve" smooth="yes"/>
			<point x="263" y="796" type="line"/>
			<point x="272" y="766" type="line" smooth="yes"/>
			<point x="278" y="745"/>
			<point x="283" y="736"/>
			<point x="285" y="736" type="curve" smooth="yes"/>
			<point x="313" y="736"/>
			<point x="336" y="759"/>
			<point x="336" y="787" type="curve" smooth="yes"/>
			<point x="336" y="815"/>
			<point x="313" y="838"/>
			<point x="285" y="838" type="curve" smooth="yes"/>
			<point x="269" y="838" type="line" smooth="yes"/>
			<point x="234" y="838"/>
			<point x="203" y="819"/>
			<point x="186" y="792" type="curve" smooth="yes"/>
			<point x="172" y="769"/>
			<point x="167" y="741"/>
			<point x="192" y="732" type="curve" smooth="yes"/>
			<point x="195" y="731"/>
			<point x="198" y="731"/>
			<point x="201" y="731" type="curve" smooth="yes"/>
			<point x="210" y="731"/>
		</contour>
		<contour>
			<point x="182" y="678"/>
			<point x="177" y="653" type="curve" smooth="yes"/>
			<point x="52" y="59" type="line" smooth="yes"/>
			<point x="45" y="25"/>
			<point x="70" y="-5"/>
			<point x="104" y="-5" type="curve" smooth="yes"/>
			<point x="130" y="-5"/>
			<point x="152" y="12"/>
			<point x="157" y="37" type="curve" smooth="yes"/>
			<point x="282" y="631" type="line" smooth="yes"/>
			<point x="289" y="665"/>
			<point x="264" y="695"/>
			<point x="230" y="695" type="curve" smooth="yes"/>
			<point x="204" y="695"/>
		</contour>
	</outline>
</glyph>
<glyph name="Idieresis" format="2">
	<advance width="277"/>
	<unicode hex="00CF"/>
	<note>
		Idieresis
	</note>
	<outline>
		<contour>
			<point x="152" y="12"/>
			<point x="157" y="37" type="curve" smooth="yes"/>
			<point x="282" y="631" type="line" smooth="yes"/>
			<point x="289" y="665"/>
			<point x="264" y="695"/>
			<point x="230" y="695" type="curve" smooth="yes"/>
			<point x="204" y="695"/>
			<point x="182" y="678"/>
			<point x="177" y="653" type="curve" smooth="yes"/>
			<point x="52" y="59" type="line" smooth="yes"/>
			<point x="45" y="25"/>
			<point x="70" y="-5"/>
			<point x="104" y="-5" type="curve" smooth="yes"/>
			<point x="130" y="-5"/>
		</contour>
		<contour>
			<point x="148" y="733"/>
			<point x="177" y="733" type="curve" smooth="yes"/>
			<point x="190" y="733" type="line" smooth="yes"/>
			<point x="220" y="733"/>
			<point x="244" y="760"/>
			<point x="240" y="791" type="curve" smooth="yes"/>
			<point x="236" y="820"/>
			<point x="213" y="844"/>
			<point x="183" y="844" type="curve" smooth="yes"/>
			<point x="174" y="844"/>
			<point x="166" y="842"/>
			<point x="159" y="838" type="curve" smooth="yes"/>
			<point x="139" y="828"/>
			<point x="124" y="809"/>
			<point x="124" y="786" type="curve" smooth="yes"/>
			<point x="124" y="757"/>
		</contour>
		<contour>
			<point x="303" y="733"/>
			<point x="332" y="733" type="curve" smooth="yes"/>
			<point x="345" y="733" type="line" smooth="yes"/>
			<point x="375" y="733"/>
			<point x="399" y="760"/>
			<point x="395" y="791" type="curve" smooth="yes"/>
			<point x="391" y="820"/>
			<point x="368" y="844"/>
			<point x="338" y="844" type="curve" smooth="yes"/>
			<point x="329" y="844"/>
			<point x="321" y="842"/>
			<point x="314" y="838" type="curve" smooth="yes"/>
			<point x="294" y="828"/>
			<point x="279" y="809"/>
			<point x="279" y="786" type="curve" smooth="yes"/>
			<point x="279" y="757"/>
		</contour>
	</outline>
</glyph>
<glyph name="Eth" format="2">
	<advance width="716"/>
	<unicode hex="00D0"/>
	<note>
		Eth
	</note>
	<outline>
		<contour>
			<point x="491" y="686" type="curve" smooth="yes"/>
			<point x="457" y="690"/>
			<point x="441" y="690"/>
			<point x="404" y="690" type="curve" smooth="yes"/>
			<point x="234" y="690" type="line" smooth="yes"/>
			<point x="199" y="690"/>
			<point x="178" y="674"/>
			<point x="171" y="639" type="curve" smooth="yes"/>
			<point x="114" y="368" type="line"/>
			<point x="76" y="368" type="line" smooth="yes"/>
			<point x="58" y="368"/>
			<point x="43" y="353"/>
			<point x="43" y="335" type="curve" smooth="yes"/>
			<point x="43" y="317"/>
			<point x="58" y="302"/>
			<point x="76" y="302" type="curve" smooth="yes"/>
			<point x="100" y="302" type="line"/>
			<point x="49" y="63" type="line" smooth="yes"/>
			<point x="41" y="23"/>
			<point x="61" y="0"/>
			<point x="101" y="0" type="curve" smooth="yes"/>
			<point x="255" y="0" type="line" smooth="yes"/>
			<point x="292" y="0"/>
			<point x="308" y="0"/>
			<point x="344" y="4" type="curve" smooth="yes"/>
			<point x="508" y="24"/>
			<point x="655" y="147"/>
			<point x="699" y="353" type="curve" smooth="yes"/>
			<point x="743" y="562"/>
			<point x="647" y="667"/>
		</contour>
		<contour>
			<point x="343" y="92" type="curve" smooth="yes"/>
			<point x="320" y="88"/>
			<point x="296" y="88"/>
			<point x="263" y="88" type="curve" smooth="yes"/>
			<point x="163" y="88" type="line"/>
			<point x="209" y="302" type="line"/>
			<point x="316" y="302" type="line" smooth="yes"/>
			<point x="334" y="302"/>
			<point x="349" y="317"/>
			<point x="349" y="335" type="curve" smooth="yes"/>
			<point x="349" y="353"/>
			<point x="334" y="368"/>
			<point x="316" y="368" type="curve" smooth="yes"/>
			<point x="223" y="368" type="line"/>
			<point x="273" y="603" type="line"/>
			<point x="376" y="603" type="line" smooth="yes"/>
			<point x="410" y="603"/>
			<point x="433" y="602"/>
			<point x="455" y="598" type="curve" smooth="yes"/>
			<point x="561" y="582"/>
			<point x="613" y="498"/>
			<point x="582" y="353" type="curve" smooth="yes"/>
			<point x="549" y="200"/>
			<point x="457" y="108"/>
		</contour>
	</outline>
</glyph>
<glyph name="Ocircumflex" format="2">
	<advance width="750"/>
	<unicode hex="00D4"/>
	<note>
		Ocircumflex
	</note>
	<outline>
		<contour>
			<point x="450" y="735"/>
			<point x="455" y="742" type="curve" smooth="yes"/>
			<point x="495" y="796" type="line"/>
			<point x="504" y="766" type="line" smooth="yes"/>
			<point x="510" y="745"/>
			<point x="515" y="736"/>
			<point x="517" y="736" type="curve" smooth="yes"/>
			<point x="545" y="736"/>
			<point x="568" y="759"/>
			<point x="568" y="787" type="curve" smooth="yes"/>
			<point x="568" y="815"/>
			<point x="545" y="838"/>
			<point x="517" y="838" type="curve" smooth="yes"/>
			<point x="501" y="838" type="line" smooth="yes"/>
			<point x="466" y="838"/>
			<point x="435" y="819"/>
			<point x="418" y="792" type="curve" smooth="yes"/>
			<point x="404" y="769"/>
			<point x="399" y="741"/>
			<point x="424" y="732" type="curve" smooth="yes"/>
			<point x="427" y="731"/>
			<point x="430" y="731"/>
			<point x="433" y="731" type="curve" smooth="yes"/>
			<point x="442" y="731"/>
		</contour>
		<contour>
			<point x="475" y="704" type="curve" smooth="yes"/>
			<point x="263" y="704"/>
			<point x="111" y="559"/>
			<point x="66" y="345" type="curve" smooth="yes"/>
			<point x="21" y="132"/>
			<point x="111" y="-14"/>
			<point x="323" y="-14" type="curve" smooth="yes"/>
			<point x="534" y="-14"/>
			<point x="686" y="132"/>
			<point x="731" y="345" type="curve" smooth="yes"/>
			<point x="776" y="559"/>
			<point x="686" y="704"/>
		</contour>
		<contour>
			<point x="341" y="70" type="curve" smooth="yes"/>
			<point x="206" y="70"/>
			<point x="148" y="174"/>
			<point x="184" y="345" type="curve" smooth="yes"/>
			<point x="221" y="517"/>
			<point x="322" y="620"/>
			<point x="457" y="620" type="curve" smooth="yes"/>
			<point x="591" y="620"/>
			<point x="650" y="517"/>
			<point x="613" y="345" type="curve" smooth="yes"/>
			<point x="577" y="174"/>
			<point x="475" y="70"/>
		</contour>
	</outline>
</glyph>
<glyph name="Odieresis" format="2">
	<advance width="750"/>
	<unicode hex="00D6"/>
	<note>
		Odieresis
	</note>
	<outline>
		<contour>
			<point x="475" y="704" type="curve" smooth="yes"/>
			<point x="263" y="704"/>
			<point x="111" y="559"/>
			<point x="66" y="345" type="curve" smooth="yes"/>
			<point x="21" y="132"/>
			<point x="111" y="-14"/>
			<point x="323" y="-14" type="curve" smooth="yes"/>
			<point x="534" y="-14"/>
			<point x="686" y="132"/>
			<point x="731" y="345" type="curve" smooth="yes"/>
			<point x="776" y="559"/>
			<point x="686" y="704"/>
		</contour>
		<contour>
			<point x="341" y="70" type="curve" smooth="yes"/>
			<point x="206" y="70"/>
			<point x="148" y="174"/>
			<point x="184" y="345" type="curve" smooth="yes"/>
			<point x="221" y="517"/>
			<point x="322" y="620"/>
			<point x="457" y="620" type="curve" smooth="yes"/>
			<point x="591" y="620"/>
			<point x="650" y="517"/>
			<point x="613" y="345" type="curve" smooth="yes"/>
			<point x="577" y="174"/>
			<point x="475" y="70"/>
		</contour>
		<contour>
			<point x="384" y="733"/>
			<point x="413" y="733" type="curve" smooth="yes"/>
			<point x="426" y="733" type="line" smooth="yes"/>
			<point x="456" y="733"/>
			<point x="480" y="760"/>
			<point x="476" y="791" type="curve" smooth="yes"/>
			<point x="472" y="820"/>
			<point x="449" y="844"/>
			<point x="419" y="844" type="curve" smooth="yes"/>
			<point x="410" y="844"/>
			<point x="402" y="842"/>
			<point x="395" y="838" type="curve" smooth="yes"/>
			<point x="375" y="828"/>
			<point x="360" y="809"/>
			<point x="360" y="786" type="curve" smooth="yes"/>
			<point x="360" y="757"/>
		</contour>
		<contour>
			<point x="539" y="733"/>
			<point x="568" y="733" type="curve" smooth="yes"/>
			<point x="581" y="733" type="line" smooth="yes"/>
			<point x="611" y="733"/>
			<point x="635" y="760"/>
			<point x="631" y="791" type="curve" smooth="yes"/>
			<point x="627" y="820"/>
			<point x="604" y="844"/>
			<point x="574" y="844" type="curve" smooth="yes"/>
			<point x="565" y="844"/>
			<point x="557" y="842"/>
			<point x="550" y="838" type="curve" smooth="yes"/>
			<point x="530" y="828"/>
			<point x="515" y="809"/>
			<point x="515" y="786" type="curve" smooth="yes"/>
			<point x="515" y="757"/>
		</contour>
	</outline>
</glyph>
<glyph name="Ugrave" format="2">
	<advance width="691"/>
	<unicode hex="00D9"/>
	<note>
		Ugrave
	</note>
	<outline>
		<contour>
			<point x="482" y="771"/>
			<point x="481" y="775" type="curve"/>
			<point x="463" y="819" type="line" smooth="yes"/>
			<point x="458" y="833"/>
			<point x="444" y="844"/>
			<point x="428" y="844" type="curve" smooth="yes"/>
			<point x="407" y="844"/>
			<point x="389" y="826"/>
			<point x="389" y="805" type="curve" smooth="yes"/>
			<point x="389" y="801"/>
			<point x="390" y="797"/>
			<point x="391" y="792" type="curve" smooth="yes"/>
			<point x="395" y="774"/>
			<point x="405" y="758"/>
			<point x="419" y="747" type="curve" smooth="yes"/>
			<point x="440" y="730"/>
			<point x="468" y="726"/>
			<point x="480" y="748" type="curve" smooth="yes"/>
			<point x="483" y="753"/>
			<point x="484" y="758"/>
			<point x="484" y="763" type="curve" smooth="yes"/>
			<point x="484" y="767"/>
		</contour>
		<contour>
			<point x="629" y="267" type="curve" smooth="yes"/>
			<point x="706" y="631" type="line" smooth="yes"/>
			<point x="713" y="665"/>
			<point x="688" y="696"/>
			<point x="654" y="696" type="curve" smooth="yes"/>
			<point x="629" y="696"/>
			<point x="607" y="678"/>
			<point x="602" y="653" type="curve" smooth="yes"/>
			<point x="520" y="265" type="line" smooth="yes"/>
			<point x="516" y="244"/>
			<point x="511" y="225"/>
			<point x="506" y="209" type="curve" smooth="yes"/>
			<point x="481" y="126"/>
			<point x="417" y="70"/>
			<point x="317" y="70" type="curve" smooth="yes"/>
			<point x="218" y="70"/>
			<point x="176" y="126"/>
			<point x="187" y="209" type="curve" smooth="yes"/>
			<point x="188" y="225"/>
			<point x="193" y="244"/>
			<point x="197" y="265" type="curve" smooth="yes"/>
			<point x="275" y="631" type="line" smooth="yes"/>
			<point x="282" y="665"/>
			<point x="256" y="695"/>
			<point x="222" y="695" type="curve" smooth="yes"/>
			<point x="197" y="695"/>
			<point x="175" y="678"/>
			<point x="170" y="653" type="curve" smooth="yes"/>
			<point x="88" y="267" type="line" smooth="yes"/>
			<point x="83" y="242"/>
			<point x="79" y="222"/>
			<point x="75" y="196" type="curve" smooth="yes"/>
			<point x="60" y="81"/>
			<point x="119" y="-14"/>
			<point x="299" y="-14" type="curve" smooth="yes"/>
			<point x="479" y="-14"/>
			<point x="578" y="81"/>
			<point x="612" y="196" type="curve" smooth="yes"/>
			<point x="620" y="222"/>
			<point x="624" y="242"/>
		</contour>
	</outline>
</glyph>
<glyph name="Ucircumflex" format="2">
	<advance width="691"/>
	<unicode hex="00DB"/>
	<note>
		Ucircumflex
	</note>
	<outline>
		<contour>
			<point x="426" y="735"/>
			<point x="431" y="742" type="curve" smooth="yes"/>
			<point x="471" y="796" type="line"/>
			<point x="480" y="766" type="line" smooth="yes"/>
			<point x="486" y="745"/>
			<point x="491" y="736"/>
			<point x="493" y="736" type="curve" smooth="yes"/>
			<point x="521" y="736"/>
			<point x="544" y="759"/>
			<point x="544" y="787" type="curve" smooth="yes"/>
			<point x="544" y="815"/>
			<point x="521" y="838"/>
			<point x="493" y="838" type="curve" smooth="yes"/>
			<point x="477" y="838" type="line" smooth="yes"/>
			<point x="442" y="838"/>
			<point x="411" y="819"/>
			<point x="394" y="792" type="curve" smooth="yes"/>
			<point x="380" y="769"/>
			<point x="375" y="741"/>
			<point x="400" y="732" type="curve" smooth="yes"/>
			<point x="403" y="731"/>
			<point x="406" y="731"/>
			<point x="409" y="731" type="curve" smooth="yes"/>
			<point x="418" y="731"/>
		</contour>
		<contour>
			<point x="629" y="267" type="curve" smooth="yes"/>
			<point x="706" y="631" type="line" smooth="yes"/>
			<point x="713" y="665"/>
			<point x="688" y="696"/>
			<point x="654" y="696" type="curve" smooth="yes"/>
			<point x="629" y="696"/>
			<point x="607" y="678"/>
			<point x="602" y="653" type="curve" smooth="yes"/>
			<point x="520" y="265" type="line" smooth="yes"/>
			<point x="516" y="244"/>
			<point x="511" y="225"/>
			<point x="506" y="209" type="curve" smooth="yes"/>
			<point x="481" y="126"/>
			<point x="417" y="70"/>
			<point x="317" y="70" type="curve" smooth="yes"/>
			<point x="218" y="70"/>
			<point x="176" y="126"/>
			<point x="187" y="209" type="curve" smooth="yes"/>
			<point x="188" y="225"/>
			<point x="193" y="244"/>
			<point x="197" y="265" type="curve" smooth="yes"/>
			<point x="275" y="631" type="line" smooth="yes"/>
			<point x="282" y="665"/>
			<point x="256" y="695"/>
			<point x="222" y="695" type="curve" smooth="yes"/>
			<point x="197" y="695"/>
			<point x="175" y="678"/>
			<point x="170" y="653" type="curve" smooth="yes"/>
			<point x="88" y="267" type="line" smooth="yes"/>
			<point x="83" y="242"/>
			<point x="79" y="222"/>
			<point x="75" y="196" type="curve" smooth="yes"/>
			<point x="60" y="81"/>
			<point x="119" y="-14"/>
			<point x="299" y="-14" type="curve" smooth="yes"/>
			<point x="479" y="-14"/>
			<point x="578" y="81"/>
			<point x="612" y="196" type="curve" smooth="yes"/>
			<point x="620" y="222"/>
			<point x="624" y="242"/>
		</contour>
	</outline>
</glyph>
<glyph name="Yacute" format="2">
	<advance width="602"/>
	<unicode hex="00DD"/>
	<note>
		Yacute
	</note>
	<outline>
		<contour>
			<point x="441" y="733"/>
			<point x="445" y="737" type="curve" smooth="yes"/>
			<point x="503" y="787" type="line" smooth="yes"/>
			<point x="510" y="793"/>
			<point x="515" y="802"/>
			<point x="515" y="811" type="curve" smooth="yes"/>
			<point x="515" y="829"/>
			<point x="500" y="844"/>
			<point x="483" y="844" type="curve" smooth="yes"/>
			<point x="473" y="844"/>
			<point x="464" y="839"/>
			<point x="458" y="832" type="curve" smooth="yes"/>
			<point x="408" y="773" type="line" smooth="yes"/>
			<point x="405" y="769"/>
			<point x="402" y="762"/>
			<point x="402" y="756" type="curve" smooth="yes"/>
			<point x="402" y="742"/>
			<point x="414" y="731"/>
			<point x="428" y="731" type="curve" smooth="yes"/>
			<point x="434" y="731"/>
		</contour>
		<contour>
			<point x="323" y="37" type="curve" smooth="yes"/>
			<point x="372" y="270" type="line"/>
			<point x="648" y="618" type="line" smooth="yes"/>
			<point x="654" y="626"/>
			<point x="659" y="637"/>
			<point x="659" y="648" type="curve" smooth="yes"/>
			<point x="659" y="674"/>
			<point x="637" y="696"/>
			<point x="611" y="696" type="curve" smooth="yes"/>
			<point x="595" y="696"/>
			<point x="581" y="687"/>
			<point x="573" y="676" type="curve" smooth="yes"/>
			<point x="344" y="371" type="line"/>
			<point x="245" y="656" type="line" smooth="yes"/>
			<point x="237" y="678"/>
			<point x="215" y="695"/>
			<point x="190" y="695" type="curve" smooth="yes"/>
			<point x="157" y="695"/>
			<point x="131" y="669"/>
			<point x="131" y="637" type="curve" smooth="yes"/>
			<point x="131" y="630"/>
			<point x="133" y="624"/>
			<point x="135" y="617" type="curve" smooth="yes"/>
			<point x="263" y="270" type="line"/>
			<point x="218" y="59" type="line" smooth="yes"/>
			<point x="211" y="25"/>
			<point x="237" y="-6"/>
			<point x="271" y="-6" type="curve" smooth="yes"/>
			<point x="296" y="-6"/>
			<point x="318" y="12"/>
		</contour>
	</outline>
</glyph>
<glyph name="germandbls" format="2">
	<advance width="623"/>
	<unicode hex="00DF"/>
	<note>
		germandbls
	</note>
	<outline>
		<contour>
			<point x="417" y="754" type="curve" smooth="yes"/>
			<point x="284" y="754"/>
			<point x="168" y="683"/>
			<point x="130" y="542" type="curve" smooth="yes"/>
			<point x="125" y="524"/>
			<point x="119" y="498"/>
			<point x="112" y="468" type="curve" smooth="yes"/>
			<point x="26" y="59" type="line" smooth="yes"/>
			<point x="19" y="25"/>
			<point x="44" y="-5"/>
			<point x="78" y="-5" type="curve" smooth="yes"/>
			<point x="104" y="-5"/>
			<point x="126" y="12"/>
			<point x="131" y="37" type="curve" smooth="yes"/>
			<point x="224" y="476" type="line" smooth="yes"/>
			<point x="230" y="507"/>
			<point x="235" y="526"/>
			<point x="239" y="540" type="curve" smooth="yes"/>
			<point x="264" y="626"/>
			<point x="324" y="670"/>
			<point x="395" y="670" type="curve" smooth="yes"/>
			<point x="474" y="670"/>
			<point x="504" y="633"/>
			<point x="491" y="573" type="curve" smooth="yes"/>
			<point x="487" y="552"/>
			<point x="479" y="535"/>
			<point x="462" y="514" type="curve"/>
			<point x="396" y="483"/>
			<point x="363" y="446"/>
			<point x="353" y="398" type="curve" smooth="yes"/>
			<point x="341" y="341"/>
			<point x="359" y="311"/>
			<point x="406" y="257" type="curve" smooth="yes"/>
			<point x="445" y="214"/>
			<point x="450" y="187"/>
			<point x="444" y="156" type="curve" smooth="yes"/>
			<point x="434" y="109"/>
			<point x="400" y="79"/>
			<point x="341" y="79" type="curve" smooth="yes"/>
			<point x="326" y="79"/>
			<point x="309" y="80"/>
			<point x="285" y="84" type="curve" smooth="yes"/>
			<point x="259" y="89"/>
			<point x="235" y="68"/>
			<point x="235" y="42" type="curve" smooth="yes"/>
			<point x="235" y="20"/>
			<point x="252" y="2"/>
			<point x="273" y="-1" type="curve" smooth="yes"/>
			<point x="293" y="-3"/>
			<point x="313" y="-4"/>
			<point x="338" y="-4" type="curve" smooth="yes"/>
			<point x="441" y="-4"/>
			<point x="540" y="49"/>
			<point x="560" y="145" type="curve" smooth="yes"/>
			<point x="576" y="218"/>
			<point x="559" y="256"/>
			<point x="513" y="305" type="curve" smooth="yes"/>
			<point x="478" y="342"/>
			<point x="465" y="364"/>
			<point x="472" y="398" type="curve" smooth="yes"/>
			<point x="477" y="419"/>
			<point x="494" y="439"/>
			<point x="526" y="458" type="curve" smooth="yes"/>
			<point x="550" y="473"/>
			<point x="568" y="483"/>
			<point x="582" y="506" type="curve" smooth="yes"/>
			<point x="597" y="530"/>
			<point x="606" y="553"/>
			<point x="611" y="574" type="curve" smooth="yes"/>
			<point x="634" y="682"/>
			<point x="562" y="754"/>
		</contour>
	</outline>
</glyph>
<glyph name="acircumflex" format="2">
	<advance width="545"/>
	<unicode hex="00E2"/>
	<note>
		acircumflex
	</note>
	<outline>
		<contour>
			<point x="305" y="577"/>
			<point x="310" y="585" type="curve" smooth="yes"/>
			<point x="351" y="643" type="line"/>
			<point x="361" y="611" type="line" smooth="yes"/>
			<point x="363" y="605"/>
			<point x="365" y="599"/>
			<point x="366" y="594" type="curve" smooth="yes"/>
			<point x="370" y="583"/>
			<point x="399" y="574"/>
			<point x="419" y="604" type="curve" smooth="yes"/>
			<point x="424" y="612"/>
			<point x="427" y="622"/>
			<point x="427" y="633" type="curve" smooth="yes"/>
			<point x="427" y="645"/>
			<point x="423" y="657"/>
			<point x="416" y="666" type="curve" smooth="yes"/>
			<point x="402" y="685"/>
			<point x="381" y="698"/>
			<point x="357" y="698" type="curve" smooth="yes"/>
			<point x="337" y="698"/>
			<point x="318" y="688"/>
			<point x="307" y="674" type="curve" smooth="yes"/>
			<point x="264" y="619" type="line" smooth="yes"/>
			<point x="260" y="614"/>
			<point x="258" y="608"/>
			<point x="258" y="601" type="curve" smooth="yes"/>
			<point x="258" y="585"/>
			<point x="271" y="572"/>
			<point x="286" y="572" type="curve" smooth="yes"/>
			<point x="296" y="572"/>
		</contour>
		<contour>
			<point x="325" y="77" type="line"/>
			<point x="323" y="53" type="line" smooth="yes"/>
			<point x="321" y="22"/>
			<point x="346" y="-5"/>
			<point x="378" y="-5" type="curve" smooth="yes"/>
			<point x="406" y="-5"/>
			<point x="429" y="17"/>
			<point x="432" y="44" type="curve" smooth="yes"/>
			<point x="436" y="80"/>
			<point x="440" y="106"/>
			<point x="446" y="135" type="curve" smooth="yes"/>
			<point x="486" y="322" type="line" smooth="yes"/>
			<point x="491" y="347"/>
			<point x="496" y="375"/>
			<point x="499" y="397" type="curve" smooth="yes"/>
			<point x="509" y="487"/>
			<point x="468" y="545"/>
			<point x="331" y="545" type="curve" smooth="yes"/>
			<point x="239" y="545"/>
			<point x="157" y="506"/>
			<point x="110" y="434" type="curve" smooth="yes"/>
			<point x="105" y="426"/>
			<point x="102" y="417"/>
			<point x="102" y="407" type="curve" smooth="yes"/>
			<point x="102" y="379"/>
			<point x="124" y="357"/>
			<point x="152" y="357" type="curve" smooth="yes"/>
			<point x="173" y="357"/>
			<point x="189" y="370"/>
			<point x="197" y="387" type="curve" smooth="yes"/>
			<point x="220" y="439"/>
			<point x="258" y="465"/>
			<point x="312" y="465" type="curve" smooth="yes"/>
			<point x="375" y="465"/>
			<point x="395" y="435"/>
			<point x="389" y="392" type="curve" smooth="yes"/>
			<point x="387" y="372"/>
			<point x="383" y="354"/>
			<point x="379" y="334" type="curve" smooth="yes"/>
			<point x="376" y="321" type="line"/>
			<point x="342" y="321" type="line" smooth="yes"/>
			<point x="141" y="321"/>
			<point x="33" y="257"/>
			<point x="8" y="139" type="curve" smooth="yes"/>
			<point x="-13" y="40"/>
			<point x="53" y="-14"/>
			<point x="147" y="-14" type="curve" smooth="yes"/>
			<point x="184" y="-14"/>
			<point x="220" y="-9"/>
			<point x="252" y="3" type="curve" smooth="yes"/>
			<point x="278" y="13"/>
			<point x="292" y="28"/>
			<point x="307" y="51" type="curve" smooth="yes"/>
		</contour>
		<contour>
			<point x="204" y="66" type="curve" smooth="yes"/>
			<point x="146" y="66"/>
			<point x="114" y="92"/>
			<point x="126" y="148" type="curve" smooth="yes"/>
			<point x="143" y="229"/>
			<point x="234" y="258"/>
			<point x="360" y="248" type="curve"/>
			<point x="350" y="199" type="line" smooth="yes"/>
			<point x="332" y="113"/>
			<point x="273" y="66"/>
		</contour>
	</outline>
</glyph>
<glyph name="ae" format="2">
	<advance width="910"/>
	<unicode hex="00E6"/>
	<note>
		ae
	</note>
	<outline>
		<contour>
			<point x="883" y="316" type="curve" smooth="yes"/>
			<point x="898" y="448"/>
			<point x="837" y="545"/>
			<point x="699" y="545" type="curve" smooth="yes"/>
			<point x="616" y="545"/>
			<point x="544" y="511"/>
			<point x="490" y="450" type="curve"/>
			<point x="477" y="511"/>
			<point x="429" y="545"/>
			<point x="331" y="545" type="curve" smooth="yes"/>
			<point x="234" y="545"/>
			<point x="153" y="506"/>
			<point x="108" y="434" type="curve" smooth="yes"/>
			<point x="103" y="427"/>
			<point x="100" y="417"/>
			<point x="100" y="407" type="curve" smooth="yes"/>
			<point x="100" y="379"/>
			<point x="123" y="357"/>
			<point x="151" y="357" type="curve" smooth="yes"/>
			<point x="172" y="357"/>
			<point x="190" y="370"/>
			<point x="197" y="388" type="curve" smooth="yes"/>
			<point x="218" y="439"/>
			<point x="258" y="465"/>
			<point x="315" y="465" type="curve" smooth="yes"/>
			<point x="390" y="465"/>
			<point x="410" y="415"/>
			<point x="393" y="334" type="curve" smooth="yes"/>
			<point x="388" y="312" type="line"/>
			<point x="348" y="312" type="line" smooth="yes"/>
			<point x="149" y="312"/>
			<point x="34" y="261"/>
			<point x="8" y="140" type="curve" smooth="yes"/>
			<point x="-13" y="40"/>
			<point x="58" y="-14"/>
			<point x="162" y="-14" type="curve" smooth="yes"/>
			<point x="210" y="-14"/>
			<point x="258" y="-5"/>
			<point x="306" y="22" type="curve" smooth="yes"/>
			<point x="329" y="35"/>
			<point x="343" y="49"/>
			<point x="359" y="69" type="curve" smooth="yes"/>
			<point x="387" y="103" type="line"/>
			<point x="411" y="19"/>
			<point x="478" y="-14"/>
			<point x="567" y="-14" type="curve" smooth="yes"/>
			<point x="658" y="-14"/>
			<point x="746" y="23"/>
			<point x="804" y="101" type="curve" smooth="yes"/>
			<point x="810" y="109"/>
			<point x="814" y="119"/>
			<point x="814" y="130" type="curve" smooth="yes"/>
			<point x="814" y="156"/>
			<point x="792" y="178"/>
			<point x="766" y="178" type="curve" smooth="yes"/>
			<point x="747" y="178"/>
			<point x="731" y="167"/>
			<point x="723" y="152" type="curve" smooth="yes"/>
			<point x="694" y="96"/>
			<point x="644" y="66"/>
			<point x="587" y="66" type="curve" smooth="yes"/>
			<point x="516" y="66"/>
			<point x="468" y="114"/>
			<point x="486" y="235" type="curve"/>
			<point x="814" y="235" type="line" smooth="yes"/>
			<point x="828" y="235"/>
			<point x="841" y="243"/>
			<point x="852" y="251" type="curve" smooth="yes"/>
			<point x="873" y="269"/>
			<point x="880" y="289"/>
		</contour>
		<contour>
			<point x="771" y="312" type="curve"/>
			<point x="503" y="312" type="line"/>
			<point x="536" y="413"/>
			<point x="600" y="465"/>
			<point x="676" y="465" type="curve" smooth="yes"/>
			<point x="753" y="465"/>
			<point x="783" y="410"/>
		</contour>
		<contour>
			<point x="372" y="235" type="curve"/>
			<point x="366" y="210" type="line" smooth="yes"/>
			<point x="347" y="121"/>
			<point x="280" y="66"/>
			<point x="207" y="66" type="curve" smooth="yes"/>
			<point x="146" y="66"/>
			<point x="114" y="92"/>
			<point x="126" y="149" type="curve" smooth="yes"/>
			<point x="142" y="225"/>
			<point x="228" y="241"/>
		</contour>
	</outline>
</glyph>
<glyph name="ccedilla" format="2">
	<advance width="544"/>
	<unicode hex="00E7"/>
	<note>
		ccedilla
	</note>
	<outline>
		<contour>
			<point x="237" y="66" type="curve" smooth="yes"/>
			<point x="163" y="66"/>
			<point x="116" y="127"/>
			<point x="146" y="271" type="curve" smooth="yes"/>
			<point x="175" y="404"/>
			<point x="249" y="465"/>
			<point x="326" y="465" type="curve" smooth="yes"/>
			<point x="378" y="465"/>
			<point x="411" y="441"/>
			<point x="421" y="388" type="curve" smooth="yes"/>
			<point x="426" y="361"/>
			<point x="449" y="341"/>
			<point x="477" y="341" type="curve" smooth="yes"/>
			<point x="512" y="341"/>
			<point x="539" y="374"/>
			<point x="533" y="408" type="curve" smooth="yes"/>
			<point x="518" y="492"/>
			<point x="454" y="545"/>
			<point x="346" y="545" type="curve" smooth="yes"/>
			<point x="207" y="545"/>
			<point x="67" y="444"/>
			<point x="29" y="263" type="curve" smooth="yes"/>
			<point x="-8" y="92"/>
			<point x="59" y="4"/>
			<point x="174" y="-11" type="curve"/>
			<point x="149" y="-46" type="line" smooth="yes"/>
			<point x="133" y="-68"/>
			<point x="150" y="-71"/>
			<point x="190" y="-85" type="curve" smooth="yes"/>
			<point x="209" y="-92"/>
			<point x="214" y="-104"/>
			<point x="211" y="-122" type="curve" smooth="yes"/>
			<point x="206" y="-146"/>
			<point x="182" y="-161"/>
			<point x="140" y="-161" type="curve" smooth="yes"/>
			<point x="129" y="-161"/>
			<point x="119" y="-160"/>
			<point x="108" y="-158" type="curve" smooth="yes"/>
			<point x="93" y="-155"/>
			<point x="77" y="-167"/>
			<point x="77" y="-183" type="curve" smooth="yes"/>
			<point x="77" y="-195"/>
			<point x="86" y="-206"/>
			<point x="98" y="-208" type="curve" smooth="yes"/>
			<point x="108" y="-209"/>
			<point x="118" y="-210"/>
			<point x="128" y="-210" type="curve" smooth="yes"/>
			<point x="206" y="-210"/>
			<point x="268" y="-181"/>
			<point x="281" y="-122" type="curve" smooth="yes"/>
			<point x="291" y="-76"/>
			<point x="267" y="-48"/>
			<point x="214" y="-41" type="curve"/>
			<point x="234" y="-13" type="line"/>
			<point x="323" y="-8"/>
			<point x="401" y="30"/>
			<point x="455" y="105" type="curve" smooth="yes"/>
			<point x="461" y="113"/>
			<point x="464" y="122"/>
			<point x="464" y="133" type="curve" smooth="yes"/>
			<point x="464" y="160"/>
			<point x="442" y="182"/>
			<point x="415" y="182" type="curve" smooth="yes"/>
			<point x="396" y="182"/>
			<point x="380" y="172"/>
			<point x="372" y="156" type="curve" smooth="yes"/>
			<point x="340" y="96"/>
			<point x="293" y="66"/>
		</contour>
	</outline>
</glyph>
<glyph name="eacute" format="2">
	<advance width="562"/>
	<unicode hex="00E9"/>
	<note>
		eacute
	</note>
	<outline>
		<contour>
			<point x="374" y="575"/>
			<point x="378" y="579" type="curve" smooth="yes"/>
			<point x="446" y="640" type="line" smooth="yes"/>
			<point x="452" y="646"/>
			<point x="457" y="655"/>
			<point x="457" y="665" type="curve" smooth="yes"/>
			<point x="457" y="683"/>
			<point x="442" y="697"/>
			<point x="424" y="697" type="curve" smooth="yes"/>
			<point x="414" y="697"/>
			<point x="405" y="693"/>
			<point x="399" y="685" type="curve" smooth="yes"/>
			<point x="341" y="615" type="line" smooth="yes"/>
			<point x="338" y="611"/>
			<point x="335" y="605"/>
			<point x="335" y="598" type="curve" smooth="yes"/>
			<point x="335" y="584"/>
			<point x="347" y="572"/>
			<point x="361" y="572" type="curve" smooth="yes"/>
			<point x="368" y="572"/>
		</contour>
		<contour>
			<point x="535" y="316" type="curve" smooth="yes"/>
			<point x="551" y="448"/>
			<point x="490" y="545"/>
			<point x="349" y="545" type="curve" smooth="yes"/>
			<point x="196" y="545"/>
			<point x="64" y="432"/>
			<point x="29" y="264" type="curve" smooth="yes"/>
			<point x="-11" y="76"/>
			<point x="77" y="-14"/>
			<point x="219" y="-14" type="curve" smooth="yes"/>
			<point x="310" y="-14"/>
			<point x="399" y="23"/>
			<point x="457" y="102" type="curve" smooth="yes"/>
			<point x="463" y="110"/>
			<point x="466" y="119"/>
			<point x="466" y="130" type="curve" smooth="yes"/>
			<point x="466" y="157"/>
			<point x="445" y="178"/>
			<point x="418" y="178" type="curve" smooth="yes"/>
			<point x="400" y="178"/>
			<point x="384" y="168"/>
			<point x="376" y="152" type="curve" smooth="yes"/>
			<point x="347" y="96"/>
			<point x="296" y="66"/>
			<point x="240" y="66" type="curve" smooth="yes"/>
			<point x="168" y="66"/>
			<point x="119" y="108"/>
			<point x="137" y="235" type="curve"/>
			<point x="467" y="235" type="line" smooth="yes"/>
			<point x="481" y="235"/>
			<point x="494" y="242"/>
			<point x="504" y="251" type="curve" smooth="yes"/>
			<point x="525" y="269"/>
			<point x="532" y="289"/>
		</contour>
		<contour>
			<point x="328" y="465" type="curve" smooth="yes"/>
			<point x="405" y="465"/>
			<point x="436" y="410"/>
			<point x="423" y="312" type="curve"/>
			<point x="154" y="312" type="line"/>
			<point x="188" y="414"/>
			<point x="253" y="465"/>
		</contour>
	</outline>
</glyph>
<glyph name="ecircumflex" format="2">
	<advance width="562"/>
	<unicode hex="00EA"/>
	<note>
		ecircumflex
	</note>
	<outline>
		<contour>
			<point x="317" y="577"/>
			<point x="322" y="585" type="curve" smooth="yes"/>
			<point x="363" y="643" type="line"/>
			<point x="373" y="611" type="line" smooth="yes"/>
			<point x="375" y="605"/>
			<point x="377" y="599"/>
			<point x="378" y="594" type="curve" smooth="yes"/>
			<point x="382" y="583"/>
			<point x="411" y="574"/>
			<point x="431" y="604" type="curve" smooth="yes"/>
			<point x="436" y="612"/>
			<point x="439" y="622"/>
			<point x="439" y="633" type="curve" smooth="yes"/>
			<point x="439" y="645"/>
			<point x="435" y="657"/>
			<point x="428" y="666" type="curve" smooth="yes"/>
			<point x="414" y="685"/>
			<point x="393" y="698"/>
			<point x="369" y="698" type="curve" smooth="yes"/>
			<point x="349" y="698"/>
			<point x="330" y="688"/>
			<point x="319" y="674" type="curve" smooth="yes"/>
			<point x="276" y="619" type="line" smooth="yes"/>
			<point x="272" y="614"/>
			<point x="270" y="608"/>
			<point x="270" y="601" type="curve" smooth="yes"/>
			<point x="270" y="585"/>
			<point x="283" y="572"/>
			<point x="298" y="572" type="curve" smooth="yes"/>
			<point x="308" y="572"/>
		</contour>
		<contour>
			<point x="535" y="316" type="curve" smooth="yes"/>
			<point x="551" y="448"/>
			<point x="490" y="545"/>
			<point x="349" y="545" type="curve" smooth="yes"/>
			<point x="196" y="545"/>
			<point x="64" y="432"/>
			<point x="29" y="264" type="curve" smooth="yes"/>
			<point x="-11" y="76"/>
			<point x="77" y="-14"/>
			<point x="219" y="-14" type="curve" smooth="yes"/>
			<point x="310" y="-14"/>
			<point x="399" y="23"/>
			<point x="457" y="102" type="curve" smooth="yes"/>
			<point x="463" y="110"/>
			<point x="466" y="119"/>
			<point x="466" y="130" type="curve" smooth="yes"/>
			<point x="466" y="157"/>
			<point x="445" y="178"/>
			<point x="418" y="178" type="curve" smooth="yes"/>
			<point x="400" y="178"/>
			<point x="384" y="168"/>
			<point x="376" y="152" type="curve" smooth="yes"/>
			<point x="347" y="96"/>
			<point x="296" y="66"/>
			<point x="240" y="66" type="curve" smooth="yes"/>
			<point x="168" y="66"/>
			<point x="119" y="108"/>
			<point x="137" y="235" type="curve"/>
			<point x="467" y="235" type="line" smooth="yes"/>
			<point x="481" y="235"/>
			<point x="494" y="242"/>
			<point x="504" y="251" type="curve" smooth="yes"/>
			<point x="525" y="269"/>
			<point x="532" y="289"/>
		</contour>
		<contour>
			<point x="328" y="465" type="curve" smooth="yes"/>
			<point x="405" y="465"/>
			<point x="436" y="410"/>
			<point x="423" y="312" type="curve"/>
			<point x="154" y="312" type="line"/>
			<point x="188" y="414"/>
			<point x="253" y="465"/>
		</contour>
	</outline>
</glyph>
<glyph name="edieresis" format="2">
	<advance width="562"/>
	<unicode hex="00EB"/>
	<note>
		edieresis
	</note>
	<outline>
		<contour>
			<point x="535" y="316" type="curve" smooth="yes"/>
			<point x="551" y="448"/>
			<point x="490" y="545"/>
			<point x="349" y="545" type="curve" smooth="yes"/>
			<point x="196" y="545"/>
			<point x="64" y="432"/>
			<point x="29" y="264" type="curve" smooth="yes"/>
			<point x="-11" y="76"/>
			<point x="77" y="-14"/>
			<point x="219" y="-14" type="curve" smooth="yes"/>
			<point x="310" y="-14"/>
			<point x="399" y="23"/>
			<point x="457" y="102" type="curve" smooth="yes"/>
			<point x="463" y="110"/>
			<point x="466" y="119"/>
			<point x="466" y="130" type="curve" smooth="yes"/>
			<point x="466" y="157"/>
			<point x="445" y="178"/>
			<point x="418" y="178" type="curve" smooth="yes"/>
			<point x="400" y="178"/>
			<point x="384" y="168"/>
			<point x="376" y="152" type="curve" smooth="yes"/>
			<point x="347" y="96"/>
			<point x="296" y="66"/>
			<point x="240" y="66" type="curve" smooth="yes"/>
			<point x="168" y="66"/>
			<point x="119" y="108"/>
			<point x="137" y="235" type="curve"/>
			<point x="467" y="235" type="line" smooth="yes"/>
			<point x="481" y="235"/>
			<point x="494" y="242"/>
			<point x="504" y="251" type="curve" smooth="yes"/>
			<point x="525" y="269"/>
			<point x="532" y="289"/>
		</contour>
		<contour>
			<point x="328" y="465" type="curve" smooth="yes"/>
			<point x="405" y="465"/>
			<point x="436" y="410"/>
			<point x="423" y="312" type="curve"/>
			<point x="154" y="312" type="line"/>
			<point x="188" y="414"/>
			<point x="253" y="465"/>
		</contour>
		<contour>
			<point x="246" y="588"/>
			<point x="268" y="579" type="curve" smooth="yes"/>
			<point x="274" y="577"/>
			<point x="281" y="575"/>
			<point x="288" y="575" type="curve" smooth="yes"/>
			<point x="312" y="575"/>
			<point x="332" y="592"/>
			<point x="337" y="615" type="curve" smooth="yes"/>
			<point x="340" y="627" type="line" smooth="yes"/>
			<point x="347" y="660"/>
			<point x="321" y="692"/>
			<point x="288" y="692" type="curve" smooth="yes"/>
			<point x="279" y="692"/>
			<point x="271" y="690"/>
			<point x="264" y="686" type="curve" smooth="yes"/>
			<point x="244" y="676"/>
			<point x="229" y="656"/>
			<point x="229" y="633" type="curve" smooth="yes"/>
			<point x="229" y="609"/>
		</contour>
		<contour>
			<point x="401" y="588"/>
			<point x="423" y="579" type="curve" smooth="yes"/>
			<point x="429" y="577"/>
			<point x="436" y="575"/>
			<point x="443" y="575" type="curve" smooth="yes"/>
			<point x="467" y="575"/>
			<point x="487" y="592"/>
			<point x="492" y="615" type="curve" smooth="yes"/>
			<point x="495" y="627" type="line" smooth="yes"/>
			<point x="502" y="660"/>
			<point x="476" y="691"/>
			<point x="443" y="691" type="curve" smooth="yes"/>
			<point x="434" y="691"/>
			<point x="426" y="690"/>
			<point x="419" y="686" type="curve" smooth="yes"/>
			<point x="399" y="676"/>
			<point x="384" y="656"/>
			<point x="384" y="633" type="curve" smooth="yes"/>
			<point x="384" y="609"/>
		</contour>
	</outline>
</glyph>
<glyph name="igrave" format="2">
	<advance width="251"/>
	<unicode hex="00EC"/>
	<note>
		igrave
	</note>
	<outline>
		<contour>
			<point x="219" y="605" type="curve" smooth="yes"/>
			<point x="219" y="611" type="line" smooth="yes"/>
			<point x="222" y="638"/>
			<point x="210" y="664"/>
			<point x="191" y="681" type="curve" smooth="yes"/>
			<point x="171" y="699"/>
			<point x="144" y="703"/>
			<point x="128" y="682" type="curve" smooth="yes"/>
			<point x="123" y="676"/>
			<point x="120" y="667"/>
			<point x="120" y="658" type="curve" smooth="yes"/>
			<point x="122" y="632"/>
			<point x="135" y="608"/>
			<point x="155" y="591" type="curve" smooth="yes"/>
			<point x="176" y="574"/>
			<point x="206" y="568"/>
			<point x="216" y="592" type="curve" smooth="yes"/>
			<point x="218" y="596"/>
			<point x="219" y="600"/>
		</contour>
		<contour>
			<point x="126" y="12"/>
			<point x="131" y="37" type="curve" smooth="yes"/>
			<point x="223" y="472" type="line" smooth="yes"/>
			<point x="230" y="506"/>
			<point x="205" y="536"/>
			<point x="171" y="536" type="curve" smooth="yes"/>
			<point x="145" y="536"/>
			<point x="123" y="519"/>
			<point x="118" y="494" type="curve" smooth="yes"/>
			<point x="26" y="59" type="line" smooth="yes"/>
			<point x="19" y="25"/>
			<point x="44" y="-5"/>
			<point x="78" y="-5" type="curve" smooth="yes"/>
			<point x="104" y="-5"/>
		</contour>
	</outline>
</glyph>
<glyph name="iacute" format="2">
	<advance width="251"/>
	<unicode hex="00ED"/>
	<note>
		iacute
	</note>
	<outline>
		<contour>
			<point x="215" y="575"/>
			<point x="219" y="579" type="curve" smooth="yes"/>
			<point x="287" y="640" type="line" smooth="yes"/>
			<point x="293" y="646"/>
			<point x="298" y="655"/>
			<point x="298" y="665" type="curve" smooth="yes"/>
			<point x="298" y="683"/>
			<point x="283" y="697"/>
			<point x="265" y="697" type="curve" smooth="yes"/>
			<point x="255" y="697"/>
			<point x="246" y="693"/>
			<point x="240" y="685" type="curve" smooth="yes"/>
			<point x="182" y="615" type="line" smooth="yes"/>
			<point x="179" y="611"/>
			<point x="176" y="605"/>
			<point x="176" y="598" type="curve" smooth="yes"/>
			<point x="176" y="584"/>
			<point x="188" y="572"/>
			<point x="202" y="572" type="curve" smooth="yes"/>
			<point x="209" y="572"/>
		</contour>
		<contour>
			<point x="126" y="12"/>
			<point x="131" y="37" type="curve" smooth="yes"/>
			<point x="223" y="472" type="line" smooth="yes"/>
			<point x="230" y="506"/>
			<point x="205" y="536"/>
			<point x="171" y="536" type="curve" smooth="yes"/>
			<point x="145" y="536"/>
			<point x="123" y="519"/>
			<point x="118" y="494" type="curve" smooth="yes"/>
			<point x="26" y="59" type="line" smooth="yes"/>
			<point x="19" y="25"/>
			<point x="44" y="-5"/>
			<point x="78" y="-5" type="curve" smooth="yes"/>
			<point x="104" y="-5"/>
		</contour>
	</outline>
</glyph>
<glyph name="icircumflex" format="2">
	<advance width="251"/>
	<unicode hex="00EE"/>
	<note>
		icircumflex
	</note>
	<outline>
		<contour>
			<point x="158" y="577"/>
			<point x="163" y="585" type="curve" smooth="yes"/>
			<point x="204" y="643" type="line"/>
			<point x="214" y="611" type="line" smooth="yes"/>
			<point x="216" y="605"/>
			<point x="218" y="599"/>
			<point x="219" y="594" type="curve" smooth="yes"/>
			<point x="223" y="583"/>
			<point x="252" y="574"/>
			<point x="272" y="604" type="curve" smooth="yes"/>
			<point x="277" y="612"/>
			<point x="280" y="622"/>
			<point x="280" y="633" type="curve" smooth="yes"/>
			<point x="280" y="645"/>
			<point x="276" y="657"/>
			<point x="269" y="666" type="curve" smooth="yes"/>
			<point x="255" y="685"/>
			<point x="234" y="698"/>
			<point x="210" y="698" type="curve" smooth="yes"/>
			<point x="190" y="698"/>
			<point x="171" y="688"/>
			<point x="160" y="674" type="curve" smooth="yes"/>
			<point x="117" y="619" type="line" smooth="yes"/>
			<point x="113" y="614"/>
			<point x="111" y="608"/>
			<point x="111" y="601" type="curve" smooth="yes"/>
			<point x="111" y="585"/>
			<point x="124" y="572"/>
			<point x="139" y="572" type="curve" smooth="yes"/>
			<point x="149" y="572"/>
		</contour>
		<contour>
			<point x="123" y="519"/>
			<point x="118" y="494" type="curve" smooth="yes"/>
			<point x="26" y="59" type="line" smooth="yes"/>
			<point x="19" y="25"/>
			<point x="44" y="-5"/>
			<point x="78" y="-5" type="curve" smooth="yes"/>
			<point x="104" y="-5"/>
			<point x="126" y="12"/>
			<point x="131" y="37" type="curve" smooth="yes"/>
			<point x="223" y="472" type="line" smooth="yes"/>
			<point x="230" y="506"/>
			<point x="205" y="536"/>
			<point x="171" y="536" type="curve" smooth="yes"/>
			<point x="145" y="536"/>
		</contour>
	</outline>
</glyph>
<glyph name="eth" format="2">
	<advance width="604"/>
	<unicode hex="00F0"/>
	<note>
		eth
	</note>
	<outline>
		<contour>
			<point x="548" y="638" type="curve"/>
			<point x="577" y="647" type="line" smooth="yes"/>
			<point x="588" y="650"/>
			<point x="597" y="661"/>
			<point x="597" y="674" type="curve" smooth="yes"/>
			<point x="597" y="693"/>
			<point x="578" y="707"/>
			<point x="560" y="701" type="curve" smooth="yes"/>
			<point x="510" y="685" type="line"/>
			<point x="492" y="703"/>
			<point x="470" y="719"/>
			<point x="444" y="735" type="curve" smooth="yes"/>
			<point x="436" y="740"/>
			<point x="428" y="741"/>
			<point x="419" y="741" type="curve" smooth="yes"/>
			<point x="393" y="741"/>
			<point x="371" y="720"/>
			<point x="371" y="694" type="curve" smooth="yes"/>
			<point x="371" y="677"/>
			<point x="380" y="663"/>
			<point x="392" y="654" type="curve" smooth="yes"/>
			<point x="398" y="650" type="line"/>
			<point x="305" y="620" type="line" smooth="yes"/>
			<point x="294" y="616"/>
			<point x="286" y="606"/>
			<point x="286" y="593" type="curve" smooth="yes"/>
			<point x="286" y="574"/>
			<point x="304" y="561"/>
			<point x="322" y="567" type="curve" smooth="yes"/>
			<point x="442" y="604" type="line"/>
			<point x="470" y="565"/>
			<point x="479" y="516"/>
			<point x="473" y="457" type="curve"/>
			<point x="457" y="487" type="line" smooth="yes"/>
			<point x="445" y="509"/>
			<point x="432" y="524"/>
			<point x="407" y="534" type="curve" smooth="yes"/>
			<point x="386" y="542"/>
			<point x="364" y="545"/>
			<point x="336" y="545" type="curve" smooth="yes"/>
			<point x="204" y="545"/>
			<point x="66" y="440"/>
			<point x="28" y="260" type="curve" smooth="yes"/>
			<point x="-6" y="102"/>
			<point x="56" y="-14"/>
			<point x="231" y="-14" type="curve" smooth="yes"/>
			<point x="368" y="-14"/>
			<point x="517" y="72"/>
			<point x="567" y="307" type="curve" smooth="yes"/>
			<point x="598" y="453"/>
			<point x="595" y="560"/>
		</contour>
		<contour>
			<point x="447" y="289" type="curve" smooth="yes"/>
			<point x="441" y="260" type="line" smooth="yes"/>
			<point x="414" y="132"/>
			<point x="337" y="69"/>
			<point x="252" y="69" type="curve" smooth="yes"/>
			<point x="155" y="69"/>
			<point x="120" y="142"/>
			<point x="146" y="267" type="curve" smooth="yes"/>
			<point x="171" y="384"/>
			<point x="246" y="463"/>
			<point x="336" y="463" type="curve" smooth="yes"/>
			<point x="409" y="463"/>
			<point x="473" y="411"/>
		</contour>
	</outline>
</glyph>
<glyph name="otilde" format="2">
	<advance width="595"/>
	<unicode hex="00F5"/>
	<note>
		otilde
	</note>
	<outline>
		<contour>
			<point x="321" y="616" type="curve" smooth="yes"/>
			<point x="330" y="616"/>
			<point x="340" y="613"/>
			<point x="362" y="604" type="curve" smooth="yes"/>
			<point x="390" y="594"/>
			<point x="405" y="590"/>
			<point x="426" y="590" type="curve" smooth="yes"/>
			<point x="459" y="590"/>
			<point x="483" y="604"/>
			<point x="498" y="648" type="curve" smooth="yes"/>
			<point x="503" y="662"/>
			<point x="494" y="683"/>
			<point x="474" y="683" type="curve" smooth="yes"/>
			<point x="463" y="683"/>
			<point x="454" y="676"/>
			<point x="450" y="666" type="curve" smooth="yes"/>
			<point x="446" y="657"/>
			<point x="441" y="654"/>
			<point x="433" y="654" type="curve" smooth="yes"/>
			<point x="425" y="654"/>
			<point x="413" y="657"/>
			<point x="391" y="666" type="curve" smooth="yes"/>
			<point x="365" y="677"/>
			<point x="349" y="680"/>
			<point x="327" y="680" type="curve" smooth="yes"/>
			<point x="295" y="680"/>
			<point x="272" y="666"/>
			<point x="257" y="622" type="curve" smooth="yes"/>
			<point x="252" y="608"/>
			<point x="262" y="588"/>
			<point x="280" y="588" type="curve" smooth="yes"/>
			<point x="291" y="588"/>
			<point x="300" y="595"/>
			<point x="304" y="604" type="curve" smooth="yes"/>
			<point x="308" y="613"/>
			<point x="314" y="616"/>
		</contour>
		<contour>
			<point x="358" y="545" type="curve" smooth="yes"/>
			<point x="179" y="545"/>
			<point x="62" y="421"/>
			<point x="29" y="266" type="curve" smooth="yes"/>
			<point x="-4" y="111"/>
			<point x="60" y="-14"/>
			<point x="239" y="-14" type="curve" smooth="yes"/>
			<point x="417" y="-14"/>
			<point x="534" y="111"/>
			<point x="567" y="266" type="curve" smooth="yes"/>
			<point x="600" y="421"/>
			<point x="536" y="545"/>
		</contour>
		<contour>
			<point x="256" y="66" type="curve" smooth="yes"/>
			<point x="159" y="66"/>
			<point x="120" y="146"/>
			<point x="145" y="266" type="curve" smooth="yes"/>
			<point x="171" y="386"/>
			<point x="244" y="465"/>
			<point x="341" y="465" type="curve" smooth="yes"/>
			<point x="437" y="465"/>
			<point x="476" y="386"/>
			<point x="450" y="266" type="curve" smooth="yes"/>
			<point x="425" y="146"/>
			<point x="352" y="66"/>
		</contour>
	</outline>
</glyph>
<glyph name="thorn" format="2">
	<advance width="626"/>
	<unicode hex="00FE"/>
	<note>
		thorn
	</note>
	<outline>
		<contour>
			<point x="418" y="545" type="curve" smooth="yes"/>
			<point x="376" y="545"/>
			<point x="330" y="536"/>
			<point x="296" y="520" type="curve" smooth="yes"/>
			<point x="276" y="510"/>
			<point x="263" y="498"/>
			<point x="246" y="479" type="curve" smooth="yes"/>
			<point x="218" y="448" type="line"/>
			<point x="266" y="676" type="line" smooth="yes"/>
			<point x="273" y="710"/>
			<point x="248" y="741"/>
			<point x="214" y="741" type="curve" smooth="yes"/>
			<point x="188" y="741"/>
			<point x="166" y="723"/>
			<point x="161" y="698" type="curve" smooth="yes"/>
			<point x="-16" y="-137" type="line" smooth="yes"/>
			<point x="-23" y="-171"/>
			<point x="2" y="-202"/>
			<point x="36" y="-202" type="curve" smooth="yes"/>
			<point x="62" y="-202"/>
			<point x="84" y="-184"/>
			<point x="89" y="-159" type="curve" smooth="yes"/>
			<point x="138" y="72" type="line"/>
			<point x="150" y="46" type="line" smooth="yes"/>
			<point x="159" y="26"/>
			<point x="169" y="10"/>
			<point x="195" y="0" type="curve" smooth="yes"/>
			<point x="220" y="-9"/>
			<point x="252" y="-14"/>
			<point x="281" y="-14" type="curve" smooth="yes"/>
			<point x="418" y="-14"/>
			<point x="558" y="80"/>
			<point x="599" y="275" type="curve" smooth="yes"/>
			<point x="632" y="430"/>
			<point x="570" y="545"/>
		</contour>
		<contour>
			<point x="285" y="66" type="curve" smooth="yes"/>
			<point x="215" y="66"/>
			<point x="147" y="114"/>
			<point x="175" y="244" type="curve" smooth="yes"/>
			<point x="180" y="271" type="line" smooth="yes"/>
			<point x="210" y="413"/>
			<point x="293" y="465"/>
			<point x="375" y="465" type="curve" smooth="yes"/>
			<point x="471" y="465"/>
			<point x="505" y="380"/>
			<point x="481" y="265" type="curve" smooth="yes"/>
			<point x="453" y="133"/>
			<point x="373" y="66"/>
		</contour>
	</outline>
</glyph>
<glyph name="abreve" format="2">
	<advance width="545"/>
	<unicode hex="0103"/>
	<note>
		abreve
	</note>
	<outline>
		<contour>
			<point x="335" y="567" type="curve" smooth="yes"/>
			<point x="395" y="567"/>
			<point x="437" y="594"/>
			<point x="461" y="657" type="curve" smooth="yes"/>
			<point x="462" y="661"/>
			<point x="463" y="664"/>
			<point x="463" y="668" type="curve" smooth="yes"/>
			<point x="463" y="684"/>
			<point x="449" y="698"/>
			<point x="433" y="698" type="curve" smooth="yes"/>
			<point x="420" y="698"/>
			<point x="409" y="688"/>
			<point x="405" y="677" type="curve" smooth="yes"/>
			<point x="392" y="641"/>
			<point x="373" y="629"/>
			<point x="348" y="629" type="curve" smooth="yes"/>
			<point x="326" y="629"/>
			<point x="312" y="639"/>
			<point x="311" y="667" type="curve" smooth="yes"/>
			<point x="310" y="685"/>
			<point x="297" y="698"/>
			<point x="279" y="698" type="curve" smooth="yes"/>
			<point x="263" y="698"/>
			<point x="249" y="686"/>
			<point x="247" y="669" type="curve" smooth="yes"/>
			<point x="240" y="597"/>
			<point x="271" y="567"/>
		</contour>
		<contour>
			<point x="325" y="77" type="line"/>
			<point x="323" y="53" type="line" smooth="yes"/>
			<point x="321" y="22"/>
			<point x="346" y="-5"/>
			<point x="378" y="-5" type="curve" smooth="yes"/>
			<point x="406" y="-5"/>
			<point x="429" y="17"/>
			<point x="432" y="44" type="curve" smooth="yes"/>
			<point x="436" y="80"/>
			<point x="440" y="106"/>
			<point x="446" y="135" type="curve" smooth="yes"/>
			<point x="486" y="322" type="line" smooth="yes"/>
			<point x="491" y="347"/>
			<point x="496" y="375"/>
			<point x="499" y="397" type="curve" smooth="yes"/>
			<point x="509" y="487"/>
			<point x="468" y="545"/>
			<point x="331" y="545" type="curve" smooth="yes"/>
			<point x="239" y="545"/>
			<point x="157" y="506"/>
			<point x="110" y="434" type="curve" smooth="yes"/>
			<point x="105" y="426"/>
			<point x="102" y="417"/>
			<point x="102" y="407" type="curve" smooth="yes"/>
			<point x="102" y="379"/>
			<point x="124" y="357"/>
			<point x="152" y="357" type="curve" smooth="yes"/>
			<point x="173" y="357"/>
			<point x="189" y="370"/>
			<point x="197" y="387" type="curve" smooth="yes"/>
			<point x="220" y="439"/>
			<point x="258" y="465"/>
			<point x="312" y="465" type="curve" smooth="yes"/>
			<point x="375" y="465"/>
			<point x="395" y="435"/>
			<point x="389" y="392" type="curve" smooth="yes"/>
			<point x="387" y="372"/>
			<point x="383" y="354"/>
			<point x="379" y="334" type="curve" smooth="yes"/>
			<point x="376" y="321" type="line"/>
			<point x="342" y="321" type="line" smooth="yes"/>
			<point x="141" y="321"/>
			<point x="33" y="257"/>
			<point x="8" y="139" type="curve" smooth="yes"/>
			<point x="-13" y="40"/>
			<point x="53" y="-14"/>
			<point x="147" y="-14" type="curve" smooth="yes"/>
			<point x="184" y="-14"/>
			<point x="220" y="-9"/>
			<point x="252" y="3" type="curve" smooth="yes"/>
			<point x="278" y="13"/>
			<point x="292" y="28"/>
			<point x="307" y="51" type="curve" smooth="yes"/>
		</contour>
		<contour>
			<point x="204" y="66" type="curve" smooth="yes"/>
			<point x="146" y="66"/>
			<point x="114" y="92"/>
			<point x="126" y="148" type="curve" smooth="yes"/>
			<point x="143" y="229"/>
			<point x="234" y="258"/>
			<point x="360" y="248" type="curve"/>
			<point x="350" y="199" type="line" smooth="yes"/>
			<point x="332" y="113"/>
			<point x="273" y="66"/>
		</contour>
	</outline>
</glyph>
<glyph name="Cacute" format="2">
	<advance width="708"/>
	<unicode hex="0106"/>
	<note>
		Cacute
	</note>
	<outline>
		<contour>
			<point x="496" y="733"/>
			<point x="500" y="737" type="curve" smooth="yes"/>
			<point x="558" y="787" type="line" smooth="yes"/>
			<point x="565" y="793"/>
			<point x="570" y="802"/>
			<point x="570" y="811" type="curve" smooth="yes"/>
			<point x="570" y="829"/>
			<point x="555" y="844"/>
			<point x="538" y="844" type="curve" smooth="yes"/>
			<point x="528" y="844"/>
			<point x="519" y="839"/>
			<point x="513" y="832" type="curve" smooth="yes"/>
			<point x="463" y="773" type="line" smooth="yes"/>
			<point x="460" y="769"/>
			<point x="457" y="762"/>
			<point x="457" y="756" type="curve" smooth="yes"/>
			<point x="457" y="742"/>
			<point x="469" y="731"/>
			<point x="483" y="731" type="curve" smooth="yes"/>
			<point x="489" y="731"/>
		</contour>
		<contour>
			<point x="472" y="704" type="curve" smooth="yes"/>
			<point x="278" y="704"/>
			<point x="111" y="559"/>
			<point x="65" y="342" type="curve" smooth="yes"/>
			<point x="21" y="132"/>
			<point x="111" y="-14"/>
			<point x="308" y="-14" type="curve" smooth="yes"/>
			<point x="469" y="-14"/>
			<point x="585" y="69"/>
			<point x="637" y="183" type="curve" smooth="yes"/>
			<point x="650" y="212"/>
			<point x="649" y="239"/>
			<point x="622" y="254" type="curve" smooth="yes"/>
			<point x="611" y="260"/>
			<point x="599" y="263"/>
			<point x="586" y="263" type="curve" smooth="yes"/>
			<point x="574" y="263"/>
			<point x="567" y="257"/>
			<point x="561" y="249" type="curve" smooth="yes"/>
			<point x="547" y="231"/>
			<point x="540" y="215"/>
			<point x="528" y="192" type="curve" smooth="yes"/>
			<point x="488" y="117"/>
			<point x="422" y="70"/>
			<point x="331" y="70" type="curve" smooth="yes"/>
			<point x="209" y="70"/>
			<point x="149" y="176"/>
			<point x="185" y="347" type="curve" smooth="yes"/>
			<point x="220" y="510"/>
			<point x="324" y="620"/>
			<point x="452" y="620" type="curve" smooth="yes"/>
			<point x="540" y="620"/>
			<point x="586" y="578"/>
			<point x="597" y="508" type="curve" smooth="yes"/>
			<point x="602" y="480"/>
			<point x="605" y="455"/>
			<point x="632" y="444" type="curve" smooth="yes"/>
			<point x="640" y="441"/>
			<point x="648" y="439"/>
			<point x="657" y="439" type="curve" smooth="yes"/>
			<point x="668" y="439"/>
			<point x="678" y="442"/>
			<point x="687" y="447" type="curve" smooth="yes"/>
			<point x="706" y="459"/>
			<point x="712" y="479"/>
			<point x="712" y="508" type="curve" smooth="yes"/>
			<point x="709" y="623"/>
			<point x="634" y="704"/>
		</contour>
	</outline>
</glyph>
<glyph name="cacute" format="2">
	<advance width="544"/>
	<unicode hex="0107"/>
	<note>
		cacute
	</note>
	<outline>
		<contour>
			<point x="366" y="575"/>
			<point x="370" y="579" type="curve" smooth="yes"/>
			<point x="438" y="640" type="line" smooth="yes"/>
			<point x="444" y="646"/>
			<point x="449" y="655"/>
			<point x="449" y="665" type="curve" smooth="yes"/>
			<point x="449" y="683"/>
			<point x="434" y="697"/>
			<point x="416" y="697" type="curve" smooth="yes"/>
			<point x="406" y="697"/>
			<point x="397" y="693"/>
			<point x="391" y="685" type="curve" smooth="yes"/>
			<point x="333" y="615" type="line" smooth="yes"/>
			<point x="330" y="611"/>
			<point x="327" y="605"/>
			<point x="327" y="598" type="curve" smooth="yes"/>
			<point x="327" y="584"/>
			<point x="339" y="572"/>
			<point x="353" y="572" type="curve" smooth="yes"/>
			<point x="360" y="572"/>
		</contour>
		<contour>
			<point x="346" y="545" type="curve" smooth="yes"/>
			<point x="207" y="545"/>
			<point x="67" y="444"/>
			<point x="29" y="263" type="curve" smooth="yes"/>
			<point x="-12" y="74"/>
			<point x="75" y="-14"/>
			<point x="214" y="-14" type="curve" smooth="yes"/>
			<point x="312" y="-14"/>
			<point x="397" y="24"/>
			<point x="455" y="105" type="curve" smooth="yes"/>
			<point x="461" y="113"/>
			<point x="464" y="122"/>
			<point x="464" y="133" type="curve" smooth="yes"/>
			<point x="464" y="160"/>
			<point x="442" y="182"/>
			<point x="415" y="182" type="curve" smooth="yes"/>
			<point x="396" y="182"/>
			<point x="380" y="172"/>
			<point x="372" y="156" type="curve" smooth="yes"/>
			<point x="340" y="96"/>
			<point x="293" y="66"/>
			<point x="237" y="66" type="curve" smooth="yes"/>
			<point x="163" y="66"/>
			<point x="116" y="127"/>
			<point x="146" y="271" type="curve" smooth="yes"/>
			<point x="175" y="404"/>
			<point x="249" y="465"/>
			<point x="326" y="465" type="curve" smooth="yes"/>
			<point x="378" y="465"/>
			<point x="411" y="441"/>
			<point x="421" y="388" type="curve" smooth="yes"/>
			<point x="426" y="361"/>
			<point x="449" y="341"/>
			<point x="477" y="341" type="curve" smooth="yes"/>
			<point x="512" y="341"/>
			<point x="539" y="374"/>
			<point x="533" y="408" type="curve" smooth="yes"/>
			<point x="518" y="492"/>
			<point x="454" y="545"/>
		</contour>
	</outline>
</glyph>
<glyph name="Cdotaccent" format="2">
	<advance width="708"/>
	<unicode hex="010A"/>
	<note>
		Cdotaccent
	</note>
	<outline>
		<contour>
			<point x="495" y="847" type="curve" smooth="yes"/>
			<point x="462" y="847"/>
			<point x="432" y="823"/>
			<point x="425" y="791" type="curve" smooth="yes"/>
			<point x="418" y="758"/>
			<point x="438" y="734"/>
			<point x="471" y="734" type="curve" smooth="yes"/>
			<point x="504" y="734"/>
			<point x="534" y="758"/>
			<point x="541" y="791" type="curve" smooth="yes"/>
			<point x="548" y="823"/>
			<point x="528" y="847"/>
		</contour>
		<contour>
			<point x="472" y="704" type="curve" smooth="yes"/>
			<point x="278" y="704"/>
			<point x="111" y="559"/>
			<point x="65" y="342" type="curve" smooth="yes"/>
			<point x="21" y="132"/>
			<point x="111" y="-14"/>
			<point x="308" y="-14" type="curve" smooth="yes"/>
			<point x="469" y="-14"/>
			<point x="585" y="69"/>
			<point x="637" y="183" type="curve" smooth="yes"/>
			<point x="650" y="212"/>
			<point x="649" y="239"/>
			<point x="622" y="254" type="curve" smooth="yes"/>
			<point x="611" y="260"/>
			<point x="599" y="263"/>
			<point x="586" y="263" type="curve" smooth="yes"/>
			<point x="574" y="263"/>
			<point x="567" y="257"/>
			<point x="561" y="249" type="curve" smooth="yes"/>
			<point x="547" y="231"/>
			<point x="540" y="215"/>
			<point x="528" y="192" type="curve" smooth="yes"/>
			<point x="488" y="117"/>
			<point x="422" y="70"/>
			<point x="331" y="70" type="curve" smooth="yes"/>
			<point x="209" y="70"/>
			<point x="149" y="176"/>
			<point x="185" y="347" type="curve" smooth="yes"/>
			<point x="220" y="510"/>
			<point x="324" y="620"/>
			<point x="452" y="620" type="curve" smooth="yes"/>
			<point x="540" y="620"/>
			<point x="586" y="578"/>
			<point x="597" y="508" type="curve" smooth="yes"/>
			<point x="602" y="480"/>
			<point x="605" y="455"/>
			<point x="632" y="444" type="curve" smooth="yes"/>
			<point x="640" y="441"/>
			<point x="648" y="439"/>
			<point x="657" y="439" type="curve" smooth="yes"/>
			<point x="668" y="439"/>
			<point x="678" y="442"/>
			<point x="687" y="447" type="curve" smooth="yes"/>
			<point x="706" y="459"/>
			<point x="712" y="479"/>
			<point x="712" y="508" type="curve" smooth="yes"/>
			<point x="709" y="623"/>
			<point x="634" y="704"/>
		</contour>
	</outline>
</glyph>
<glyph name="Ccaron" format="2">
	<advance width="708"/>
	<unicode hex="010C"/>
	<note>
		Ccaron
	</note>
	<outline>
		<contour>
			<point x="431" y="736"/>
			<point x="459" y="736" type="curve" smooth="yes"/>
			<point x="475" y="736" type="line" smooth="yes"/>
			<point x="510" y="736"/>
			<point x="541" y="755"/>
			<point x="558" y="782" type="curve" smooth="yes"/>
			<point x="572" y="805"/>
			<point x="577" y="832"/>
			<point x="553" y="842" type="curve" smooth="yes"/>
			<point x="550" y="843"/>
			<point x="546" y="844"/>
			<point x="543" y="844" type="curve" smooth="yes"/>
			<point x="534" y="844"/>
			<point x="526" y="839"/>
			<point x="521" y="832" type="curve" smooth="yes"/>
			<point x="481" y="777" type="line"/>
			<point x="472" y="808" type="line" smooth="yes"/>
			<point x="466" y="828"/>
			<point x="461" y="838"/>
			<point x="459" y="838" type="curve" smooth="yes"/>
			<point x="431" y="838"/>
			<point x="408" y="815"/>
			<point x="408" y="787" type="curve" smooth="yes"/>
			<point x="408" y="759"/>
		</contour>
		<contour>
			<point x="570" y="259"/>
			<point x="565" y="254" type="curve" smooth="yes"/>
			<point x="546" y="234"/>
			<point x="540" y="215"/>
			<point x="528" y="192" type="curve" smooth="yes"/>
			<point x="488" y="117"/>
			<point x="422" y="70"/>
			<point x="331" y="70" type="curve" smooth="yes"/>
			<point x="209" y="70"/>
			<point x="149" y="176"/>
			<point x="185" y="347" type="curve" smooth="yes"/>
			<point x="220" y="510"/>
			<point x="324" y="620"/>
			<point x="452" y="620" type="curve" smooth="yes"/>
			<point x="540" y="620"/>
			<point x="586" y="578"/>
			<point x="597" y="508" type="curve" smooth="yes"/>
			<point x="602" y="480"/>
			<point x="605" y="455"/>
			<point x="632" y="444" type="curve" smooth="yes"/>
			<point x="640" y="441"/>
			<point x="648" y="439"/>
			<point x="657" y="439" type="curve" smooth="yes"/>
			<point x="668" y="439"/>
			<point x="678" y="442"/>
			<point x="687" y="447" type="curve" smooth="yes"/>
			<point x="706" y="459"/>
			<point x="712" y="479"/>
			<point x="712" y="508" type="curve" smooth="yes"/>
			<point x="709" y="623"/>
			<point x="634" y="704"/>
			<point x="472" y="704" type="curve" smooth="yes"/>
			<point x="278" y="704"/>
			<point x="111" y="559"/>
			<point x="65" y="342" type="curve" smooth="yes"/>
			<point x="21" y="132"/>
			<point x="111" y="-14"/>
			<point x="308" y="-14" type="curve" smooth="yes"/>
			<point x="469" y="-14"/>
			<point x="585" y="69"/>
			<point x="637" y="183" type="curve" smooth="yes"/>
			<point x="650" y="212"/>
			<point x="649" y="239"/>
			<point x="622" y="254" type="curve" smooth="yes"/>
			<point x="611" y="260"/>
			<point x="599" y="263"/>
			<point x="586" y="263" type="curve" smooth="yes"/>
			<point x="577" y="263"/>
		</contour>
	</outline>
</glyph>
<glyph name="ccaron" format="2">
	<advance width="544"/>
	<unicode hex="010D"/>
	<note>
		ccaron
	</note>
	<outline>
		<contour>
			<point x="305" y="578"/>
			<point x="336" y="578" type="curve" smooth="yes"/>
			<point x="339" y="578" type="line" smooth="yes"/>
			<point x="369" y="578"/>
			<point x="391" y="588"/>
			<point x="410" y="612" type="curve" smooth="yes"/>
			<point x="441" y="651" type="line" smooth="yes"/>
			<point x="445" y="656"/>
			<point x="447" y="662"/>
			<point x="447" y="669" type="curve" smooth="yes"/>
			<point x="447" y="685"/>
			<point x="434" y="698"/>
			<point x="419" y="698" type="curve" smooth="yes"/>
			<point x="409" y="698"/>
			<point x="400" y="694"/>
			<point x="395" y="686" type="curve" smooth="yes"/>
			<point x="353" y="626" type="line"/>
			<point x="344" y="659" type="line" smooth="yes"/>
			<point x="338" y="679"/>
			<point x="301" y="694"/>
			<point x="284" y="659" type="curve" smooth="yes"/>
			<point x="281" y="652"/>
			<point x="279" y="644"/>
			<point x="279" y="635" type="curve" smooth="yes"/>
			<point x="279" y="604"/>
		</contour>
		<contour>
			<point x="237" y="66" type="curve" smooth="yes"/>
			<point x="163" y="66"/>
			<point x="116" y="127"/>
			<point x="146" y="271" type="curve" smooth="yes"/>
			<point x="175" y="404"/>
			<point x="249" y="465"/>
			<point x="326" y="465" type="curve" smooth="yes"/>
			<point x="378" y="465"/>
			<point x="411" y="441"/>
			<point x="421" y="388" type="curve" smooth="yes"/>
			<point x="426" y="361"/>
			<point x="449" y="341"/>
			<point x="477" y="341" type="curve" smooth="yes"/>
			<point x="512" y="341"/>
			<point x="539" y="374"/>
			<point x="533" y="408" type="curve" smooth="yes"/>
			<point x="518" y="492"/>
			<point x="454" y="545"/>
			<point x="346" y="545" type="curve" smooth="yes"/>
			<point x="207" y="545"/>
			<point x="67" y="444"/>
			<point x="29" y="263" type="curve" smooth="yes"/>
			<point x="-12" y="74"/>
			<point x="75" y="-14"/>
			<point x="214" y="-14" type="curve" smooth="yes"/>
			<point x="312" y="-14"/>
			<point x="397" y="24"/>
			<point x="455" y="105" type="curve" smooth="yes"/>
			<point x="461" y="113"/>
			<point x="464" y="122"/>
			<point x="464" y="133" type="curve" smooth="yes"/>
			<point x="464" y="160"/>
			<point x="442" y="182"/>
			<point x="415" y="182" type="curve" smooth="yes"/>
			<point x="396" y="182"/>
			<point x="380" y="172"/>
			<point x="372" y="156" type="curve" smooth="yes"/>
			<point x="340" y="96"/>
			<point x="293" y="66"/>
		</contour>
	</outline>
</glyph>
<glyph name="Dcaron" format="2">
	<advance width="719"/>
	<unicode hex="010E"/>
	<note>
		Dcaron
	</note>
	<outline>
		<contour>
			<point x="434" y="736"/>
			<point x="462" y="736" type="curve" smooth="yes"/>
			<point x="478" y="736" type="line" smooth="yes"/>
			<point x="513" y="736"/>
			<point x="544" y="755"/>
			<point x="561" y="782" type="curve" smooth="yes"/>
			<point x="575" y="805"/>
			<point x="580" y="832"/>
			<point x="556" y="842" type="curve" smooth="yes"/>
			<point x="553" y="843"/>
			<point x="549" y="844"/>
			<point x="546" y="844" type="curve" smooth="yes"/>
			<point x="537" y="844"/>
			<point x="529" y="839"/>
			<point x="524" y="832" type="curve" smooth="yes"/>
			<point x="484" y="777" type="line"/>
			<point x="475" y="808" type="line" smooth="yes"/>
			<point x="469" y="828"/>
			<point x="464" y="838"/>
			<point x="462" y="838" type="curve" smooth="yes"/>
			<point x="434" y="838"/>
			<point x="411" y="815"/>
			<point x="411" y="787" type="curve" smooth="yes"/>
			<point x="411" y="759"/>
		</contour>
		<contour>
			<point x="495" y="686" type="curve" smooth="yes"/>
			<point x="461" y="690"/>
			<point x="445" y="690"/>
			<point x="408" y="690" type="curve" smooth="yes"/>
			<point x="237" y="690" type="line" smooth="yes"/>
			<point x="202" y="690"/>
			<point x="181" y="674"/>
			<point x="174" y="639" type="curve" smooth="yes"/>
			<point x="52" y="63" type="line" smooth="yes"/>
			<point x="44" y="24"/>
			<point x="64" y="0"/>
			<point x="104" y="0" type="curve" smooth="yes"/>
			<point x="258" y="0" type="line" smooth="yes"/>
			<point x="295" y="0"/>
			<point x="311" y="0"/>
			<point x="347" y="4" type="curve" smooth="yes"/>
			<point x="511" y="24"/>
			<point x="659" y="147"/>
			<point x="703" y="353" type="curve" smooth="yes"/>
			<point x="747" y="562"/>
			<point x="651" y="667"/>
		</contour>
		<contour>
			<point x="346" y="92" type="curve" smooth="yes"/>
			<point x="323" y="88"/>
			<point x="300" y="88"/>
			<point x="266" y="88" type="curve" smooth="yes"/>
			<point x="167" y="88" type="line"/>
			<point x="277" y="603" type="line"/>
			<point x="380" y="603" type="line" smooth="yes"/>
			<point x="413" y="603"/>
			<point x="437" y="602"/>
			<point x="458" y="598" type="curve" smooth="yes"/>
			<point x="564" y="582"/>
			<point x="616" y="498"/>
			<point x="585" y="353" type="curve" smooth="yes"/>
			<point x="552" y="200"/>
			<point x="461" y="108"/>
		</contour>
	</outline>
</glyph>
<glyph name="edotaccent" format="2">
	<advance width="562"/>
	<unicode hex="0117"/>
	<note>
		edotaccent
	</note>
	<outline>
		<contour>
			<point x="352" y="589" type="curve" smooth="yes"/>
			<point x="389" y="589"/>
			<point x="423" y="616"/>
			<point x="430" y="653" type="curve" smooth="yes"/>
			<point x="438" y="689"/>
			<point x="416" y="716"/>
			<point x="379" y="716" type="curve" smooth="yes"/>
			<point x="342" y="716"/>
			<point x="309" y="689"/>
			<point x="301" y="653" type="curve" smooth="yes"/>
			<point x="294" y="616"/>
			<point x="315" y="589"/>
		</contour>
		<contour>
			<point x="535" y="316" type="curve" smooth="yes"/>
			<point x="551" y="448"/>
			<point x="490" y="545"/>
			<point x="349" y="545" type="curve" smooth="yes"/>
			<point x="196" y="545"/>
			<point x="64" y="432"/>
			<point x="29" y="264" type="curve" smooth="yes"/>
			<point x="-11" y="76"/>
			<point x="77" y="-14"/>
			<point x="219" y="-14" type="curve" smooth="yes"/>
			<point x="310" y="-14"/>
			<point x="399" y="23"/>
			<point x="457" y="102" type="curve" smooth="yes"/>
			<point x="463" y="110"/>
			<point x="466" y="119"/>
			<point x="466" y="130" type="curve" smooth="yes"/>
			<point x="466" y="157"/>
			<point x="445" y="178"/>
			<point x="418" y="178" type="curve" smooth="yes"/>
			<point x="400" y="178"/>
			<point x="384" y="168"/>
			<point x="376" y="152" type="curve" smooth="yes"/>
			<point x="347" y="96"/>
			<point x="296" y="66"/>
			<point x="240" y="66" type="curve" smooth="yes"/>
			<point x="168" y="66"/>
			<point x="119" y="108"/>
			<point x="137" y="235" type="curve"/>
			<point x="467" y="235" type="line" smooth="yes"/>
			<point x="481" y="235"/>
			<point x="494" y="242"/>
			<point x="504" y="251" type="curve" smooth="yes"/>
			<point x="525" y="269"/>
			<point x="532" y="289"/>
		</contour>
		<contour>
			<point x="328" y="465" type="curve" smooth="yes"/>
			<point x="405" y="465"/>
			<point x="436" y="410"/>
			<point x="423" y="312" type="curve"/>
			<point x="154" y="312" type="line"/>
			<point x="188" y="414"/>
			<point x="253" y="465"/>
		</contour>
	</outline>
</glyph>
<glyph name="Ecaron" format="2">
	<advance width="600"/>
	<unicode hex="011A"/>
	<note>
		Ecaron
	</note>
	<outline>
		<contour>
			<point x="397" y="736"/>
			<point x="425" y="736" type="curve" smooth="yes"/>
			<point x="441" y="736" type="line" smooth="yes"/>
			<point x="476" y="736"/>
			<point x="507" y="755"/>
			<point x="524" y="782" type="curve" smooth="yes"/>
			<point x="538" y="805"/>
			<point x="543" y="832"/>
			<point x="519" y="842" type="curve" smooth="yes"/>
			<point x="516" y="843"/>
			<point x="512" y="844"/>
			<point x="509" y="844" type="curve" smooth="yes"/>
			<point x="500" y="844"/>
			<point x="492" y="839"/>
			<point x="487" y="832" type="curve" smooth="yes"/>
			<point x="447" y="777" type="line"/>
			<point x="438" y="808" type="line" smooth="yes"/>
			<point x="432" y="828"/>
			<point x="427" y="838"/>
			<point x="425" y="838" type="curve" smooth="yes"/>
			<point x="397" y="838"/>
			<point x="374" y="815"/>
			<point x="374" y="787" type="curve" smooth="yes"/>
			<point x="374" y="759"/>
		</contour>
		<contour>
			<point x="510" y="88"/>
			<point x="486" y="88" type="curve" smooth="yes"/>
			<point x="167" y="88" type="line"/>
			<point x="213" y="302" type="line"/>
			<point x="512" y="302" type="line" smooth="yes"/>
			<point x="536" y="302"/>
			<point x="556" y="321"/>
			<point x="556" y="346" type="curve" smooth="yes"/>
			<point x="556" y="370"/>
			<point x="536" y="389"/>
			<point x="512" y="389" type="curve" smooth="yes"/>
			<point x="231" y="389" type="line"/>
			<point x="277" y="603" type="line"/>
			<point x="604" y="603" type="line" smooth="yes"/>
			<point x="628" y="603"/>
			<point x="648" y="622"/>
			<point x="648" y="647" type="curve" smooth="yes"/>
			<point x="648" y="671"/>
			<point x="628" y="690"/>
			<point x="604" y="690" type="curve" smooth="yes"/>
			<point x="237" y="690" type="line" smooth="yes"/>
			<point x="202" y="690"/>
			<point x="181" y="674"/>
			<point x="174" y="639" type="curve" smooth="yes"/>
			<point x="52" y="63" type="line" smooth="yes"/>
			<point x="44" y="24"/>
			<point x="64" y="0"/>
			<point x="104" y="0" type="curve" smooth="yes"/>
			<point x="486" y="0" type="line" smooth="yes"/>
			<point x="510" y="0"/>
			<point x="530" y="20"/>
			<point x="530" y="44" type="curve" smooth="yes"/>
			<point x="530" y="68"/>
		</contour>
	</outline>
</glyph>
<glyph name="gbreve" format="2">
	<advance width="629"/>
	<unicode hex="011F"/>
	<note>
		gbreve
	</note>
	<outline>
		<contour>
			<point x="374" y="567" type="curve" smooth="yes"/>
			<point x="434" y="567"/>
			<point x="476" y="594"/>
			<point x="500" y="657" type="curve" smooth="yes"/>
			<point x="501" y="661"/>
			<point x="502" y="664"/>
			<point x="502" y="668" type="curve" smooth="yes"/>
			<point x="502" y="684"/>
			<point x="488" y="698"/>
			<point x="472" y="698" type="curve" smooth="yes"/>
			<point x="459" y="698"/>
			<point x="448" y="688"/>
			<point x="444" y="677" type="curve" smooth="yes"/>
			<point x="431" y="641"/>
			<point x="412" y="629"/>
			<point x="387" y="629" type="curve" smooth="yes"/>
			<point x="365" y="629"/>
			<point x="351" y="639"/>
			<point x="350" y="667" type="curve" smooth="yes"/>
			<point x="349" y="685"/>
			<point x="336" y="698"/>
			<point x="318" y="698" type="curve" smooth="yes"/>
			<point x="302" y="698"/>
			<point x="288" y="686"/>
			<point x="286" y="669" type="curve" smooth="yes"/>
			<point x="279" y="597"/>
			<point x="310" y="567"/>
		</contour>
		<contour>
			<point x="529" y="132" type="curve" smooth="yes"/>
			<point x="601" y="471" type="line" smooth="yes"/>
			<point x="608" y="505"/>
			<point x="583" y="536"/>
			<point x="549" y="536" type="curve" smooth="yes"/>
			<point x="523" y="536"/>
			<point x="501" y="519"/>
			<point x="496" y="494" type="curve" smooth="yes"/>
			<point x="488" y="459" type="line"/>
			<point x="477" y="486" type="line" smooth="yes"/>
			<point x="469" y="506"/>
			<point x="458" y="521"/>
			<point x="432" y="531" type="curve" smooth="yes"/>
			<point x="407" y="540"/>
			<point x="375" y="545"/>
			<point x="346" y="545" type="curve" smooth="yes"/>
			<point x="209" y="545"/>
			<point x="69" y="453"/>
			<point x="28" y="259" type="curve" smooth="yes"/>
			<point x="-5" y="103"/>
			<point x="60" y="-9"/>
			<point x="213" y="-9" type="curve" smooth="yes"/>
			<point x="253" y="-9"/>
			<point x="293" y="0"/>
			<point x="326" y="14" type="curve" smooth="yes"/>
			<point x="350" y="25"/>
			<point x="364" y="38"/>
			<point x="381" y="57" type="curve" smooth="yes"/>
			<point x="410" y="89" type="line"/>
			<point x="407" y="78" type="line" smooth="yes"/>
			<point x="403" y="59"/>
			<point x="399" y="40"/>
			<point x="393" y="17" type="curve" smooth="yes"/>
			<point x="369" y="-78"/>
			<point x="303" y="-130"/>
			<point x="207" y="-130" type="curve" smooth="yes"/>
			<point x="145" y="-130"/>
			<point x="107" y="-108"/>
			<point x="94" y="-73" type="curve" smooth="yes"/>
			<point x="84" y="-46"/>
			<point x="85" y="-21"/>
			<point x="59" y="-9" type="curve" smooth="yes"/>
			<point x="50" y="-5"/>
			<point x="41" y="-3"/>
			<point x="31" y="-3" type="curve" smooth="yes"/>
			<point x="20" y="-3"/>
			<point x="10" y="-7"/>
			<point x="2" y="-13" type="curve" smooth="yes"/>
			<point x="-15" y="-27"/>
			<point x="-22" y="-46"/>
			<point x="-20" y="-74" type="curve" smooth="yes"/>
			<point x="-14" y="-164"/>
			<point x="54" y="-213"/>
			<point x="188" y="-213" type="curve" smooth="yes"/>
			<point x="348" y="-213"/>
			<point x="466" y="-132"/>
			<point x="506" y="29" type="curve" smooth="yes"/>
			<point x="513" y="58"/>
			<point x="522" y="99"/>
		</contour>
		<contour>
			<point x="252" y="71" type="curve" smooth="yes"/>
			<point x="157" y="71"/>
			<point x="121" y="154"/>
			<point x="146" y="269" type="curve" smooth="yes"/>
			<point x="174" y="401"/>
			<point x="254" y="465"/>
			<point x="341" y="465" type="curve" smooth="yes"/>
			<point x="412" y="465"/>
			<point x="479" y="417"/>
			<point x="452" y="288" type="curve" smooth="yes"/>
			<point x="447" y="265" type="line" smooth="yes"/>
			<point x="417" y="123"/>
			<point x="335" y="71"/>
		</contour>
	</outline>
</glyph>
<glyph name="uni0123" format="2">
	<advance width="629"/>
	<unicode hex="0123"/>
	<note>
		gcommaaccent
	</note>
	<outline>
		<contour>
			<point x="410" y="577"/>
			<point x="420" y="594" type="curve" smooth="yes"/>
			<point x="478" y="689" type="line" smooth="yes"/>
			<point x="481" y="693"/>
			<point x="482" y="699"/>
			<point x="482" y="705" type="curve" smooth="yes"/>
			<point x="482" y="722"/>
			<point x="468" y="735"/>
			<point x="452" y="735" type="curve" smooth="yes"/>
			<point x="441" y="735"/>
			<point x="432" y="731"/>
			<point x="427" y="723" type="curve" smooth="yes"/>
			<point x="364" y="634" type="line" smooth="yes"/>
			<point x="343" y="605"/>
			<point x="340" y="564"/>
			<point x="376" y="560" type="curve" smooth="yes"/>
			<point x="382" y="560" type="line" smooth="yes"/>
			<point x="402" y="560"/>
		</contour>
		<contour>
			<point x="529" y="132" type="curve" smooth="yes"/>
			<point x="601" y="471" type="line" smooth="yes"/>
			<point x="608" y="505"/>
			<point x="583" y="536"/>
			<point x="549" y="536" type="curve" smooth="yes"/>
			<point x="523" y="536"/>
			<point x="501" y="519"/>
			<point x="496" y="494" type="curve" smooth="yes"/>
			<point x="488" y="459" type="line"/>
			<point x="477" y="486" type="line" smooth="yes"/>
			<point x="469" y="506"/>
			<point x="458" y="521"/>
			<point x="432" y="531" type="curve" smooth="yes"/>
			<point x="407" y="540"/>
			<point x="375" y="545"/>
			<point x="346" y="545" type="curve" smooth="yes"/>
			<point x="209" y="545"/>
			<point x="69" y="453"/>
			<point x="28" y="259" type="curve" smooth="yes"/>
			<point x="-5" y="103"/>
			<point x="60" y="-9"/>
			<point x="213" y="-9" type="curve" smooth="yes"/>
			<point x="253" y="-9"/>
			<point x="293" y="0"/>
			<point x="326" y="14" type="curve" smooth="yes"/>
			<point x="350" y="25"/>
			<point x="364" y="38"/>
			<point x="381" y="57" type="curve" smooth="yes"/>
			<point x="410" y="89" type="line"/>
			<point x="407" y="78" type="line" smooth="yes"/>
			<point x="403" y="59"/>
			<point x="399" y="40"/>
			<point x="393" y="17" type="curve" smooth="yes"/>
			<point x="369" y="-78"/>
			<point x="303" y="-130"/>
			<point x="207" y="-130" type="curve" smooth="yes"/>
			<point x="145" y="-130"/>
			<point x="107" y="-108"/>
			<point x="94" y="-73" type="curve" smooth="yes"/>
			<point x="84" y="-46"/>
			<point x="85" y="-21"/>
			<point x="59" y="-9" type="curve" smooth="yes"/>
			<point x="50" y="-5"/>
			<point x="41" y="-3"/>
			<point x="31" y="-3" type="curve" smooth="yes"/>
			<point x="20" y="-3"/>
			<point x="10" y="-7"/>
			<point x="2" y="-13" type="curve" smooth="yes"/>
			<point x="-15" y="-27"/>
			<point x="-22" y="-46"/>
			<point x="-20" y="-74" type="curve" smooth="yes"/>
			<point x="-14" y="-164"/>
			<point x="54" y="-213"/>
			<point x="188" y="-213" type="curve" smooth="yes"/>
			<point x="348" y="-213"/>
			<point x="466" y="-132"/>
			<point x="506" y="29" type="curve" smooth="yes"/>
			<point x="513" y="58"/>
			<point x="522" y="99"/>
		</contour>
		<contour>
			<point x="252" y="71" type="curve" smooth="yes"/>
			<point x="157" y="71"/>
			<point x="121" y="154"/>
			<point x="146" y="269" type="curve" smooth="yes"/>
			<point x="174" y="401"/>
			<point x="254" y="465"/>
			<point x="341" y="465" type="curve" smooth="yes"/>
			<point x="412" y="465"/>
			<point x="479" y="417"/>
			<point x="452" y="288" type="curve" smooth="yes"/>
			<point x="447" y="265" type="line" smooth="yes"/>
			<point x="417" y="123"/>
			<point x="335" y="71"/>
		</contour>
	</outline>
</glyph>
<glyph name="hbar" format="2">
	<advance width="621"/>
	<unicode hex="0127"/>
	<note>
		hbar
	</note>
	<outline>
		<contour>
			<point x="580" y="393" type="curve" smooth="yes"/>
			<point x="590" y="486"/>
			<point x="538" y="545"/>
			<point x="424" y="545" type="curve" smooth="yes"/>
			<point x="383" y="545"/>
			<point x="349" y="540"/>
			<point x="313" y="522" type="curve" smooth="yes"/>
			<point x="289" y="510"/>
			<point x="274" y="496"/>
			<point x="258" y="476" type="curve" smooth="yes"/>
			<point x="232" y="443" type="line"/>
			<point x="263" y="590" type="line"/>
			<point x="347" y="590" type="line" smooth="yes"/>
			<point x="365" y="590"/>
			<point x="380" y="605"/>
			<point x="380" y="623" type="curve" smooth="yes"/>
			<point x="380" y="641"/>
			<point x="365" y="656"/>
			<point x="347" y="656" type="curve" smooth="yes"/>
			<point x="277" y="656" type="line"/>
			<point x="282" y="680" type="line" smooth="yes"/>
			<point x="289" y="714"/>
			<point x="264" y="745"/>
			<point x="230" y="745" type="curve" smooth="yes"/>
			<point x="204" y="745"/>
			<point x="182" y="728"/>
			<point x="177" y="703" type="curve" smooth="yes"/>
			<point x="167" y="656" type="line"/>
			<point x="133" y="656" type="line" smooth="yes"/>
			<point x="115" y="656"/>
			<point x="100" y="641"/>
			<point x="100" y="623" type="curve" smooth="yes"/>
			<point x="100" y="605"/>
			<point x="115" y="590"/>
			<point x="133" y="590" type="curve" smooth="yes"/>
			<point x="153" y="590" type="line"/>
			<point x="41" y="59" type="line" smooth="yes"/>
			<point x="34" y="25"/>
			<point x="59" y="-6"/>
			<point x="93" y="-6" type="curve" smooth="yes"/>
			<point x="119" y="-6"/>
			<point x="141" y="12"/>
			<point x="146" y="37" type="curve" smooth="yes"/>
			<point x="188" y="238" type="line" smooth="yes"/>
			<point x="224" y="404"/>
			<point x="298" y="462"/>
			<point x="374" y="464" type="curve" smooth="yes"/>
			<point x="450" y="465"/>
			<point x="472" y="422"/>
			<point x="465" y="362" type="curve" smooth="yes"/>
			<point x="461" y="335"/>
			<point x="456" y="312"/>
			<point x="451" y="287" type="curve" smooth="yes"/>
			<point x="403" y="59" type="line" smooth="yes"/>
			<point x="396" y="25"/>
			<point x="421" y="-6"/>
			<point x="455" y="-6" type="curve" smooth="yes"/>
			<point x="481" y="-6"/>
			<point x="503" y="12"/>
			<point x="508" y="37" type="curve" smooth="yes"/>
			<point x="563" y="299" type="line" smooth="yes"/>
			<point x="572" y="342"/>
			<point x="576" y="366"/>
		</contour>
	</outline>
</glyph>
<glyph name="Imacron" format="2">
	<advance width="277"/>
	<unicode hex="012A"/>
	<note>
		Imacron
	</note>
	<outline>
		<contour>
			<point x="161" y="758" type="curve" smooth="yes"/>
			<point x="363" y="758" type="line" smooth="yes"/>
			<point x="380" y="758"/>
			<point x="394" y="772"/>
			<point x="394" y="790" type="curve" smooth="yes"/>
			<point x="394" y="807"/>
			<point x="380" y="821"/>
			<point x="363" y="821" type="curve" smooth="yes"/>
			<point x="161" y="821" type="line" smooth="yes"/>
			<point x="144" y="821"/>
			<point x="130" y="807"/>
			<point x="130" y="789" type="curve" smooth="yes"/>
			<point x="130" y="772"/>
			<point x="144" y="758"/>
		</contour>
		<contour>
			<point x="152" y="12"/>
			<point x="157" y="37" type="curve" smooth="yes"/>
			<point x="282" y="631" type="line" smooth="yes"/>
			<point x="289" y="665"/>
			<point x="264" y="695"/>
			<point x="230" y="695" type="curve" smooth="yes"/>
			<point x="204" y="695"/>
			<point x="182" y="678"/>
			<point x="177" y="653" type="curve" smooth="yes"/>
			<point x="52" y="59" type="line" smooth="yes"/>
			<point x="45" y="25"/>
			<point x="70" y="-5"/>
			<point x="104" y="-5" type="curve" smooth="yes"/>
			<point x="130" y="-5"/>
		</contour>
	</outline>
</glyph>
<glyph name="iogonek" format="2">
	<advance width="251"/>
	<unicode hex="012F"/>
	<note>
		iogonek
	</note>
	<outline>
		<contour>
			<point x="123" y="519"/>
			<point x="118" y="494" type="curve" smooth="yes"/>
			<point x="15" y="10" type="line"/>
			<point x="-45" y="-13"/>
			<point x="-107" y="-66"/>
			<point x="-123" y="-138" type="curve" smooth="yes"/>
			<point x="-136" y="-201"/>
			<point x="-101" y="-223"/>
			<point x="-43" y="-223" type="curve" smooth="yes"/>
			<point x="-6" y="-223"/>
			<point x="28" y="-214"/>
			<point x="60" y="-199" type="curve" smooth="yes"/>
			<point x="68" y="-195"/>
			<point x="73" y="-186"/>
			<point x="73" y="-177" type="curve" smooth="yes"/>
			<point x="73" y="-161"/>
			<point x="58" y="-150"/>
			<point x="43" y="-154" type="curve" smooth="yes"/>
			<point x="35" y="-156"/>
			<point x="27" y="-157"/>
			<point x="19" y="-157" type="curve" smooth="yes"/>
			<point x="-8" y="-157"/>
			<point x="-22" y="-144"/>
			<point x="-14" y="-107" type="curve" smooth="yes"/>
			<point x="-2" y="-50"/>
			<point x="45" y="-7"/>
			<point x="91" y="0" type="curve"/>
			<point x="107" y="0" type="line" smooth="yes"/>
			<point x="117" y="0"/>
			<point x="127" y="16"/>
			<point x="134" y="51" type="curve" smooth="yes"/>
			<point x="223" y="472" type="line" smooth="yes"/>
			<point x="230" y="506"/>
			<point x="205" y="536"/>
			<point x="171" y="536" type="curve" smooth="yes"/>
			<point x="145" y="536"/>
		</contour>
		<contour>
			<point x="176" y="589"/>
			<point x="211" y="589" type="curve" smooth="yes"/>
			<point x="236" y="589"/>
			<point x="253" y="605"/>
			<point x="260" y="640" type="curve" smooth="yes"/>
			<point x="264" y="661" type="line" smooth="yes"/>
			<point x="272" y="699"/>
			<point x="237" y="729"/>
			<point x="203" y="720" type="curve" smooth="yes"/>
			<point x="172" y="712"/>
			<point x="147" y="685"/>
			<point x="147" y="652" type="curve" smooth="yes"/>
			<point x="147" y="617"/>
		</contour>
	</outline>
</glyph>
<glyph name="Idotaccent" format="2">
	<advance width="304"/>
	<unicode hex="0130"/>
	<outline>
		<contour>
			<point x="152" y="12"/>
			<point x="157" y="37" type="curve" smooth="yes"/>
			<point x="282" y="631" type="line" smooth="yes"/>
			<point x="289" y="665"/>
			<point x="264" y="695"/>
			<point x="230" y="695" type="curve" smooth="yes"/>
			<point x="204" y="695"/>
			<point x="182" y="678"/>
			<point x="177" y="653" type="curve" smooth="yes"/>
			<point x="52" y="59" type="line" smooth="yes"/>
			<point x="45" y="25"/>
			<point x="70" y="-5"/>
			<point x="104" y="-5" type="curve" smooth="yes"/>
			<point x="130" y="-5"/>
		</contour>
		<contour>
			<point x="252" y="734" type="curve" smooth="yes"/>
			<point x="285" y="734"/>
			<point x="315" y="758"/>
			<point x="322" y="791" type="curve" smooth="yes"/>
			<point x="329" y="823"/>
			<point x="309" y="847"/>
			<point x="276" y="847" type="curve" smooth="yes"/>
			<point x="243" y="847"/>
			<point x="213" y="823"/>
			<point x="206" y="791" type="curve" smooth="yes"/>
			<point x="199" y="758"/>
			<point x="219" y="734"/>
		</contour>
	</outline>
</glyph>
<glyph name="dotlessi" format="2">
	<advance width="251"/>
	<unicode hex="0131"/>
	<note>
		dotlessi
	</note>
	<outline>
		<contour>
			<point x="126" y="12"/>
			<point x="131" y="37" type="curve" smooth="yes"/>
			<point x="223" y="472" type="line" smooth="yes"/>
			<point x="230" y="506"/>
			<point x="205" y="536"/>
			<point x="171" y="536" type="curve" smooth="yes"/>
			<point x="145" y="536"/>
			<point x="123" y="519"/>
			<point x="118" y="494" type="curve" smooth="yes"/>
			<point x="26" y="59" type="line" smooth="yes"/>
			<point x="19" y="25"/>
			<point x="44" y="-5"/>
			<point x="78" y="-5" type="curve" smooth="yes"/>
			<point x="104" y="-5"/>
		</contour>
	</outline>
</glyph>
<glyph name="Lacute" format="2">
	<advance width="588"/>
	<unicode hex="0139"/>
	<note>
		Lacute
	</note>
	<outline>
		<contour>
			<point x="275" y="733"/>
			<point x="279" y="737" type="curve" smooth="yes"/>
			<point x="337" y="787" type="line" smooth="yes"/>
			<point x="344" y="793"/>
			<point x="349" y="802"/>
			<point x="349" y="811" type="curve" smooth="yes"/>
			<point x="349" y="829"/>
			<point x="334" y="844"/>
			<point x="317" y="844" type="curve" smooth="yes"/>
			<point x="307" y="844"/>
			<point x="298" y="839"/>
			<point x="292" y="832" type="curve" smooth="yes"/>
			<point x="242" y="773" type="line" smooth="yes"/>
			<point x="239" y="769"/>
			<point x="236" y="762"/>
			<point x="236" y="756" type="curve" smooth="yes"/>
			<point x="236" y="742"/>
			<point x="248" y="731"/>
			<point x="262" y="731" type="curve" smooth="yes"/>
			<point x="268" y="731"/>
		</contour>
		<contour>
			<point x="510" y="91"/>
			<point x="485" y="91" type="curve" smooth="yes"/>
			<point x="168" y="91" type="line"/>
			<point x="282" y="631" type="line" smooth="yes"/>
			<point x="289" y="665"/>
			<point x="264" y="696"/>
			<point x="230" y="696" type="curve" smooth="yes"/>
			<point x="204" y="696"/>
			<point x="182" y="678"/>
			<point x="177" y="653" type="curve" smooth="yes"/>
			<point x="52" y="63" type="line" smooth="yes"/>
			<point x="44" y="24"/>
			<point x="64" y="0"/>
			<point x="104" y="0" type="curve" smooth="yes"/>
			<point x="485" y="0" type="line" smooth="yes"/>
			<point x="510" y="0"/>
			<point x="530" y="20"/>
			<point x="530" y="46" type="curve" smooth="yes"/>
			<point x="530" y="71"/>
		</contour>
	</outline>
</glyph>
<glyph name="uni013B" format="2">
	<advance width="588"/>
	<unicode hex="013B"/>
	<note>
		Lcommaaccent
	</note>
	<outline>
		<contour>
			<point x="510" y="91"/>
			<point x="485" y="91" type="curve" smooth="yes"/>
			<point x="168" y="91" type="line"/>
			<point x="282" y="631" type="line" smooth="yes"/>
			<point x="289" y="665"/>
			<point x="264" y="696"/>
			<point x="230" y="696" type="curve" smooth="yes"/>
			<point x="204" y="696"/>
			<point x="182" y="678"/>
			<point x="177" y="653" type="curve" smooth="yes"/>
			<point x="52" y="63" type="line" smooth="yes"/>
			<point x="44" y="24"/>
			<point x="64" y="0"/>
			<point x="104" y="0" type="curve" smooth="yes"/>
			<point x="485" y="0" type="line" smooth="yes"/>
			<point x="510" y="0"/>
			<point x="530" y="20"/>
			<point x="530" y="46" type="curve" smooth="yes"/>
			<point x="530" y="71"/>
		</contour>
		<contour>
			<point x="236" y="-48"/>
			<point x="226" y="-64" type="curve" smooth="yes"/>
			<point x="168" y="-159" type="line" smooth="yes"/>
			<point x="165" y="-163"/>
			<point x="164" y="-169"/>
			<point x="164" y="-175" type="curve" smooth="yes"/>
			<point x="164" y="-192"/>
			<point x="178" y="-206"/>
			<point x="194" y="-206" type="curve" smooth="yes"/>
			<point x="205" y="-206"/>
			<point x="214" y="-200"/>
			<point x="219" y="-193" type="curve" smooth="yes"/>
			<point x="283" y="-104" type="line" smooth="yes"/>
			<point x="304" y="-74"/>
			<point x="307" y="-34"/>
			<point x="271" y="-29" type="curve"/>
			<point x="264" y="-29" type="line" smooth="yes"/>
			<point x="244" y="-29"/>
		</contour>
	</outline>
</glyph>
<glyph name="Ldot" format="2">
	<advance width="588"/>
	<unicode hex="013F"/>
	<note>
		Ldot
	</note>
	<outline>
		<contour>
			<point x="510" y="91"/>
			<point x="485" y="91" type="curve" smooth="yes"/>
			<point x="168" y="91" type="line"/>
			<point x="282" y="631" type="line" smooth="yes"/>
			<point x="289" y="665"/>
			<point x="264" y="696"/>
			<point x="230" y="696" type="curve" smooth="yes"/>
			<point x="204" y="696"/>
			<point x="182" y="678"/>
			<point x="177" y="653" type="curve" smooth="yes"/>
			<point x="52" y="63" type="line" smooth="yes"/>
			<point x="44" y="24"/>
			<point x="64" y="0"/>
			<point x="104" y="0" type="curve" smooth="yes"/>
			<point x="485" y="0" type="line" smooth="yes"/>
			<point x="510" y="0"/>
			<point x="530" y="20"/>
			<point x="530" y="46" type="curve" smooth="yes"/>
			<point x="530" y="71"/>
		</contour>
		<contour>
			<point x="422" y="334" type="curve" smooth="yes"/>
			<point x="459" y="334"/>
			<point x="494" y="363"/>
			<point x="502" y="400" type="curve" smooth="yes"/>
			<point x="510" y="438"/>
			<point x="487" y="466"/>
			<point x="450" y="466" type="curve" smooth="yes"/>
			<point x="412" y="466"/>
			<point x="377" y="438"/>
			<point x="369" y="400" type="curve" smooth="yes"/>
			<point x="361" y="363"/>
			<point x="384" y="334"/>
		</contour>
	</outline>
</glyph>
<glyph name="Lslash" format="2">
	<advance width="615"/>
	<unicode hex="0141"/>
	<note>
		Lslash
	</note>
	<outline>
		<contour>
			<point x="536" y="91"/>
			<point x="511" y="91" type="curve" smooth="yes"/>
			<point x="194" y="91" type="line"/>
			<point x="249" y="350" type="line"/>
			<point x="372" y="414" type="line" smooth="yes"/>
			<point x="382" y="419"/>
			<point x="389" y="429"/>
			<point x="389" y="441" type="curve" smooth="yes"/>
			<point x="389" y="458"/>
			<point x="375" y="472"/>
			<point x="358" y="472" type="curve" smooth="yes"/>
			<point x="353" y="472"/>
			<point x="348" y="470"/>
			<point x="344" y="468" type="curve" smooth="yes"/>
			<point x="266" y="428" type="line"/>
			<point x="309" y="631" type="line" smooth="yes"/>
			<point x="316" y="665"/>
			<point x="290" y="696"/>
			<point x="256" y="696" type="curve" smooth="yes"/>
			<point x="231" y="696"/>
			<point x="209" y="678"/>
			<point x="204" y="653" type="curve" smooth="yes"/>
			<point x="143" y="365" type="line"/>
			<point x="33" y="308" type="line" smooth="yes"/>
			<point x="23" y="303"/>
			<point x="16" y="293"/>
			<point x="16" y="281" type="curve" smooth="yes"/>
			<point x="16" y="264"/>
			<point x="30" y="250"/>
			<point x="47" y="250" type="curve" smooth="yes"/>
			<point x="52" y="250"/>
			<point x="57" y="251"/>
			<point x="61" y="253" type="curve" smooth="yes"/>
			<point x="127" y="287" type="line"/>
			<point x="79" y="63" type="line" smooth="yes"/>
			<point x="71" y="23"/>
			<point x="91" y="0"/>
			<point x="131" y="0" type="curve" smooth="yes"/>
			<point x="511" y="0" type="line" smooth="yes"/>
			<point x="536" y="0"/>
			<point x="556" y="20"/>
			<point x="556" y="46" type="curve" smooth="yes"/>
			<point x="556" y="71"/>
		</contour>
	</outline>
</glyph>
<glyph name="nacute" format="2">
	<advance width="606"/>
	<unicode hex="0144"/>
	<note>
		nacute
	</note>
	<outline>
		<contour>
			<point x="385" y="618"/>
			<point x="365" y="612" type="line"/>
			<point x="364" y="610"/>
			<point x="361" y="604"/>
			<point x="361" y="598" type="curve" smooth="yes"/>
			<point x="361" y="582"/>
			<point x="377" y="570"/>
			<point x="392" y="573" type="curve" smooth="yes"/>
			<point x="407" y="576"/>
			<point x="420" y="584"/>
			<point x="430" y="595" type="curve" smooth="yes"/>
			<point x="444" y="611"/>
			<point x="425" y="629"/>
			<point x="405" y="624" type="curve" smooth="yes"/>
		</contour>
		<contour>
			<point x="565" y="393" type="curve" smooth="yes"/>
			<point x="575" y="486"/>
			<point x="523" y="545"/>
			<point x="409" y="545" type="curve" smooth="yes"/>
			<point x="368" y="545"/>
			<point x="334" y="540"/>
			<point x="298" y="522" type="curve" smooth="yes"/>
			<point x="274" y="510"/>
			<point x="259" y="496"/>
			<point x="243" y="476" type="curve" smooth="yes"/>
			<point x="217" y="443" type="line"/>
			<point x="223" y="471" type="line" smooth="yes"/>
			<point x="230" y="505"/>
			<point x="205" y="537"/>
			<point x="171" y="537" type="curve" smooth="yes"/>
			<point x="145" y="537"/>
			<point x="123" y="519"/>
			<point x="118" y="494" type="curve" smooth="yes"/>
			<point x="26" y="59" type="line" smooth="yes"/>
			<point x="19" y="25"/>
			<point x="44" y="-5"/>
			<point x="78" y="-5" type="curve" smooth="yes"/>
			<point x="104" y="-5"/>
			<point x="126" y="12"/>
			<point x="131" y="37" type="curve" smooth="yes"/>
			<point x="173" y="238" type="line" smooth="yes"/>
			<point x="209" y="404"/>
			<point x="283" y="464"/>
			<point x="359" y="464" type="curve" smooth="yes"/>
			<point x="434" y="464"/>
			<point x="457" y="422"/>
			<point x="450" y="362" type="curve" smooth="yes"/>
			<point x="446" y="335"/>
			<point x="441" y="312"/>
			<point x="436" y="287" type="curve" smooth="yes"/>
			<point x="388" y="59" type="line" smooth="yes"/>
			<point x="381" y="25"/>
			<point x="406" y="-6"/>
			<point x="440" y="-6" type="curve" smooth="yes"/>
			<point x="466" y="-6"/>
			<point x="488" y="12"/>
			<point x="493" y="37" type="curve" smooth="yes"/>
			<point x="548" y="299" type="line" smooth="yes"/>
			<point x="557" y="342"/>
			<point x="561" y="366"/>
		</contour>
	</outline>
</glyph>
<glyph name="uni0146" format="2">
	<advance width="606"/>
	<unicode hex="0146"/>
	<note>
		ncommaaccent
	</note>
	<outline>
		<contour>
			<point x="565" y="393" type="curve" smooth="yes"/>
			<point x="575" y="486"/>
			<point x="523" y="545"/>
			<point x="409" y="545" type="curve" smooth="yes"/>
			<point x="368" y="545"/>
			<point x="334" y="540"/>
			<point x="298" y="522" type="curve" smooth="yes"/>
			<point x="274" y="510"/>
			<point x="259" y="496"/>
			<point x="243" y="476" type="curve" smooth="yes"/>
			<point x="217" y="443" type="line"/>
			<point x="223" y="471" type="line" smooth="yes"/>
			<point x="230" y="505"/>
			<point x="205" y="537"/>
			<point x="171" y="537" type="curve" smooth="yes"/>
			<point x="145" y="537"/>
			<point x="123" y="519"/>
			<point x="118" y="494" type="curve" smooth="yes"/>
			<point x="26" y="59" type="line" smooth="yes"/>
			<point x="19" y="25"/>
			<point x="44" y="-5"/>
			<point x="78" y="-5" type="curve" smooth="yes"/>
			<point x="104" y="-5"/>
			<point x="126" y="12"/>
			<point x="131" y="37" type="curve" smooth="yes"/>
			<point x="173" y="238" type="line" smooth="yes"/>
			<point x="209" y="404"/>
			<point x="283" y="464"/>
			<point x="359" y="464" type="curve" smooth="yes"/>
			<point x="434" y="464"/>
			<point x="457" y="422"/>
			<point x="450" y="362" type="curve" smooth="yes"/>
			<point x="446" y="335"/>
			<point x="441" y="312"/>
			<point x="436" y="287" type="curve" smooth="yes"/>
			<point x="388" y="59" type="line" smooth="yes"/>
			<point x="381" y="25"/>
			<point x="406" y="-6"/>
			<point x="440" y="-6" type="curve" smooth="yes"/>
			<point x="466" y="-6"/>
			<point x="488" y="12"/>
			<point x="493" y="37" type="curve" smooth="yes"/>
			<point x="548" y="299" type="line" smooth="yes"/>
			<point x="557" y="342"/>
			<point x="561" y="366"/>
		</contour>
		<contour>
			<point x="239" y="-100"/>
			<point x="253" y="-93"/>
			<point x="252" y="-64"/>
			<point x="252" y="-64" type="curve" smooth="yes"/>
			<point x="242" y="-49"/>
			<point x="218" y="-42"/>
			<point x="192" y="-62" type="curve" smooth="yes"/>
			<point x="189" y="-65"/>
			<point x="186" y="-67"/>
			<point x="183" y="-70" type="curve" smooth="yes"/>
			<point x="161" y="-95"/>
			<point x="188" y="-119"/>
			<point x="219" y="-108" type="curve" smooth="yes"/>
		</contour>
	</outline>
</glyph>
